<?xml version="1.0" encoding="UTF-8" standalone="no"?>
<!-- Created with Inkscape (http://www.inkscape.org/) -->

<svg
   version="1.1"
   id="svg21495"
   width="653.6369"
   height="571.64215"
   viewBox="0 0 653.63691 571.64215"
   sodipodi:docname="smaller_rnn_unrolled.svg"
   inkscape:version="1.2.2 (1:1.2.2+202212051551+b0a8486541)"
   xmlns:inkscape="http://www.inkscape.org/namespaces/inkscape"
   xmlns:sodipodi="http://sodipodi.sourceforge.net/DTD/sodipodi-0.dtd"
   xmlns="http://www.w3.org/2000/svg"
   xmlns:svg="http://www.w3.org/2000/svg">
  <defs
     id="defs21499">
    <clipPath
       clipPathUnits="userSpaceOnUse"
       id="clipPath21551">
      <path
         d="m 351.793,111.93 h 6 v 10 h -6 z"
         id="path21549" />
    </clipPath>
    <clipPath
       clipPathUnits="userSpaceOnUse"
       id="clipPath21561">
      <path
         d="M 0,0 H 709 V 546 H 0 Z"
         id="path21559" />
    </clipPath>
    <clipPath
       clipPathUnits="userSpaceOnUse"
       id="clipPath21605">
      <path
         d="m 352.793,224.953 h 5 v 10 h -5 z"
         id="path21603" />
    </clipPath>
    <clipPath
       clipPathUnits="userSpaceOnUse"
       id="clipPath21615">
      <path
         d="M 0,0 H 709 V 546 H 0 Z"
         id="path21613" />
    </clipPath>
  </defs>
  <sodipodi:namedview
     id="namedview21497"
     pagecolor="#ffffff"
     bordercolor="#666666"
     borderopacity="1.0"
     inkscape:showpageshadow="2"
     inkscape:pageopacity="0.0"
     inkscape:pagecheckerboard="0"
     inkscape:deskcolor="#d1d1d1"
     showgrid="false"
     inkscape:zoom="1.4142136"
     inkscape:cx="276.12519"
     inkscape:cy="306.17723"
     inkscape:window-width="1920"
     inkscape:window-height="1043"
     inkscape:window-x="0"
     inkscape:window-y="0"
     inkscape:window-maximized="1"
     inkscape:current-layer="g21503">
    <inkscape:page
       x="0"
       y="0"
       id="page21501"
       width="653.6369"
       height="571.64215" />
  </sodipodi:namedview>
  <g
     id="g21503"
     inkscape:groupmode="layer"
     inkscape:label="Page 1"
     transform="matrix(1.3333333,0,0,1.3333333,64.267572,4.0021697)">
    <g
       id="g21507">
      <path
         d="m 305.676,87.801 h 68.523 v 56.281 h -68.523 z"
         style="fill:#ffffff;fill-opacity:1;fill-rule:evenodd;stroke:#000000;stroke-width:2.24997;stroke-linecap:butt;stroke-linejoin:miter;stroke-miterlimit:10;stroke-dasharray:none;stroke-opacity:1"
         id="path21509" />
    </g>
    <path
       d="m 104.973,165.422 v 28.019 h -2.25 v -28.019 z m 2.25,26.887 -3.371,6.75 -3.379,-6.75 z"
       style="fill:#000000;fill-opacity:1;fill-rule:nonzero;stroke:none"
       id="path21511"
       sodipodi:nodetypes="ccccccccc" />
    <path
       d="m 0,114.16 h 62.879 v 2.25 H 0 Z m 61.75,-2.25 6.75,3.383 -6.75,3.367 z"
       style="fill:#000000;fill-opacity:1;fill-rule:nonzero;stroke:none"
       id="path21513" />
    <path
       d="m 373.527,117.242 h 62.879 v 2.25 h -62.879 z m 61.75,-2.25 6.75,3.383 -6.75,3.367 z"
       style="fill:#000000;fill-opacity:1;fill-rule:nonzero;stroke:none"
       id="path21515" />
    <path
       d="m 68.52,115.293 c 0,-13.32 10.8,-24.121 24.121,-24.121 13.32,0 24.121,10.801 24.121,24.121 0,13.32 -10.801,24.117 -24.121,24.117 -13.321,0 -24.121,-10.797 -24.121,-24.117 z"
       style="fill:#ffffff;fill-opacity:1;fill-rule:evenodd;stroke:none"
       id="path21517" />
    <g
       id="g21519">
      <path
         d="m 69.461,87.129 h 68.52 v 56.281 h -68.52 z"
         style="fill:#ffffff;fill-opacity:1;fill-rule:evenodd;stroke:#000000;stroke-width:2.24997;stroke-linecap:butt;stroke-linejoin:miter;stroke-miterlimit:10;stroke-dasharray:none;stroke-opacity:1"
         id="path21521" />
    </g>
    <path
       d="m 138.18,115.602 160.738,0.011 v 2.25 L 138.18,117.852 Z m 159.621,-2.239 6.75,3.367 -6.75,3.383 z"
       style="fill:#000000;fill-opacity:1;fill-rule:nonzero;stroke:none"
       id="path21523" />
    <path
       d="m 104.688,32.934 v 49.019 h -2.25 V 32.934 Z m 2.25,47.886 -3.372,6.75 -3.378,-6.75 z"
       style="fill:#000000;fill-opacity:1;fill-rule:nonzero;stroke:none"
       id="path21525" />
    <g
       id="g21527">
      <path
         d="m 103.5,-3 0.094,64.984"
         style="fill:none;stroke:#000000;stroke-width:2.24999;stroke-linecap:butt;stroke-linejoin:miter;stroke-miterlimit:4;stroke-dasharray:6.74999, 2.24999;stroke-dashoffset:0;stroke-opacity:1"
         id="path21529" />
    </g>
    <path
       d="m 86.43,119.699 h -1.375 v 0.938 c 0.562,-0.032 1.75,-0.063 2.5,-0.063 0.781,0 1.968,0.031 2.5,0.063 v -0.938 H 88.68 v -4.156 c 0,-2.188 1.718,-3.156 3,-3.156 0.656,0 1.093,0.406 1.093,1.937 v 5.375 h -1.375 v 0.938 c 0.532,-0.032 1.75,-0.063 2.5,-0.063 0.782,0 1.969,0.031 2.5,0.063 v -0.938 h -1.375 v -5.156 c 0,-2.094 -1.062,-2.875 -3.062,-2.875 -1.906,0 -2.938,1.156 -3.375,1.937 v -6.812 l -3.531,0.156 v 0.938 c 1.218,0 1.375,0 1.375,0.781 z"
       style="fill:#000000;fill-opacity:1;fill-rule:nonzero;stroke:none"
       id="path21531" />
    <path
       d="m 100.316,118.125 h 1.407 c 0.281,0 0.437,0 0.437,-0.313 0,-0.187 -0.156,-0.187 -0.406,-0.187 h -1.313 l 0.5,-2.063 c 0.032,-0.062 0.063,-0.156 0.063,-0.187 0,-0.281 -0.219,-0.469 -0.5,-0.469 -0.344,0 -0.531,0.25 -0.656,0.594 -0.094,0.375 0.093,-0.312 -0.532,2.125 H 97.91 c -0.25,0 -0.437,0 -0.437,0.313 0,0.187 0.156,0.187 0.406,0.187 h 1.312 l -0.812,3.281 c -0.094,0.344 -0.219,0.844 -0.219,1.032 0,0.812 0.719,1.312 1.5,1.312 1.563,0 2.438,-1.938 2.438,-2.125 0,-0.187 -0.188,-0.187 -0.219,-0.187 -0.188,0 -0.188,0.031 -0.313,0.281 -0.375,0.875 -1.093,1.656 -1.843,1.656 -0.313,0 -0.5,-0.187 -0.5,-0.687 0,-0.126 0.062,-0.438 0.093,-0.563 z"
       style="fill:#000000;fill-opacity:1;fill-rule:nonzero;stroke:none"
       id="path21533" />
    <path
       d="m 113.273,120.469 c 0.219,0 0.563,0 0.563,-0.313 0,-0.375 -0.344,-0.375 -0.563,-0.375 h -8.312 c -0.219,0 -0.563,0 -0.563,0.344 0,0.344 0.313,0.344 0.563,0.344 z"
       style="fill:#000000;fill-opacity:1;fill-rule:nonzero;stroke:none"
       id="path21535" />
    <path
       d="m 122.387,121.094 h -0.469 c -0.031,0.312 -0.188,1.125 -0.375,1.25 -0.094,0.094 -1.156,0.094 -1.375,0.094 h -2.563 c 1.469,-1.282 1.969,-1.688 2.782,-2.344 1.031,-0.813 2,-1.688 2,-3 0,-1.688 -1.469,-2.719 -3.25,-2.719 -1.719,0 -2.907,1.219 -2.907,2.5 0,0.687 0.594,0.781 0.75,0.781 0.313,0 0.719,-0.25 0.719,-0.75 0,-0.25 -0.094,-0.75 -0.812,-0.75 0.437,-0.968 1.375,-1.281 2.031,-1.281 1.406,0 2.125,1.094 2.125,2.219 0,1.218 -0.875,2.156 -1.313,2.656 l -3.343,3.344 c -0.157,0.125 -0.157,0.156 -0.157,0.531 h 5.75 z"
       style="fill:#000000;fill-opacity:1;fill-rule:nonzero;stroke:none"
       id="path21537" />
    <path
       d="m 332.27,114.559 c 0,-2.688 -1.844,-4.688 -5.094,-4.688 -3.281,0 -5.094,2.031 -5.094,4.688 0,2.468 1.781,4.468 5.094,4.468 3.344,0 5.094,-2.031 5.094,-4.468 z m -5.094,3.656 c -2.531,0 -2.531,-2.156 -2.531,-3.875 0,-0.906 0,-1.906 0.343,-2.594 0.375,-0.75 1.219,-1.156 2.188,-1.156 0.844,0 1.687,0.312 2.125,1 0.406,0.687 0.406,1.781 0.406,2.75 0,1.719 0,3.875 -2.531,3.875 z"
       style="fill:#000000;fill-opacity:1;fill-rule:nonzero;stroke:none"
       id="path21539" />
    <path
       d="m 336.352,116.391 h 1.406 c 0.281,0 0.437,0 0.437,-0.313 0,-0.187 -0.156,-0.187 -0.406,-0.187 h -1.312 l 0.5,-2.063 c 0.031,-0.062 0.062,-0.156 0.062,-0.187 0,-0.282 -0.219,-0.469 -0.5,-0.469 -0.344,0 -0.531,0.25 -0.656,0.594 -0.094,0.375 0.094,-0.313 -0.531,2.125 h -1.407 c -0.25,0 -0.437,0 -0.437,0.312 0,0.188 0.156,0.188 0.406,0.188 h 1.313 l -0.813,3.281 c -0.094,0.344 -0.219,0.844 -0.219,1.031 0,0.813 0.719,1.313 1.5,1.313 1.563,0 2.438,-1.938 2.438,-2.125 0,-0.188 -0.188,-0.188 -0.219,-0.188 -0.187,0 -0.187,0.031 -0.312,0.281 -0.375,0.875 -1.094,1.657 -1.844,1.657 -0.313,0 -0.5,-0.188 -0.5,-0.688 0,-0.125 0.062,-0.437 0.094,-0.562 z"
       style="fill:#000000;fill-opacity:1;fill-rule:nonzero;stroke:none"
       id="path21541" />
    <path
       d="m 349.309,118.734 c 0.218,0 0.562,0 0.562,-0.312 0,-0.375 -0.344,-0.375 -0.562,-0.375 h -8.313 c -0.219,0 -0.562,0 -0.562,0.344 0,0.343 0.312,0.343 0.562,0.343 z"
       style="fill:#000000;fill-opacity:1;fill-rule:nonzero;stroke:none"
       id="path21543" />
    <g
       id="g21547"
       clip-path="url(#clipPath21551)">
      <g
         id="g21553">
        <g
           id="g21555">
          <g
             id="g21557"
             clip-path="url(#clipPath21561)">
            <g
               id="g21563">
              <path
                 d="m 358.418,119.359 h -0.469 c -0.031,0.313 -0.187,1.125 -0.375,1.25 -0.094,0.094 -1.156,0.094 -1.375,0.094 h -2.562 c 1.468,-1.281 1.968,-1.687 2.781,-2.344 1.031,-0.812 2,-1.687 2,-3 0,-1.687 -1.469,-2.718 -3.25,-2.718 -1.719,0 -2.906,1.218 -2.906,2.5 0,0.687 0.593,0.781 0.75,0.781 0.312,0 0.718,-0.25 0.718,-0.75 0,-0.25 -0.093,-0.75 -0.812,-0.75 0.437,-0.969 1.375,-1.281 2.031,-1.281 1.406,0 2.125,1.093 2.125,2.218 0,1.219 -0.875,2.157 -1.312,2.657 l -3.344,3.343 c -0.156,0.125 -0.156,0.157 -0.156,0.532 h 5.75 z"
                 style="fill:#000000;fill-opacity:1;fill-rule:nonzero;stroke:none"
                 id="path21565" />
            </g>
          </g>
        </g>
      </g>
    </g>
    <path
       d="m 0,227.289 h 62.879 v 2.25 H 0 Z m 61.75,-2.25 6.75,3.383 -6.75,3.367 z"
       style="fill:#000000;fill-opacity:1;fill-rule:nonzero;stroke:none"
       id="path21569" />
    <g
       id="g21571">
      <path
         d="m 305.676,200.461 h 68.523 v 56.281 h -68.523 z"
         style="fill:#ffffff;fill-opacity:1;fill-rule:evenodd;stroke:#000000;stroke-width:2.24997;stroke-linecap:butt;stroke-linejoin:miter;stroke-miterlimit:10;stroke-dasharray:none;stroke-opacity:1"
         id="path21573" />
    </g>
    <path
       d="m 104.859,278.816 v 28.02 h -2.25 v -28.02 z m 2.25,26.887 -3.371,6.75 -3.379,-6.75 z"
       style="fill:#000000;fill-opacity:1;fill-rule:nonzero;stroke:none"
       id="path21575"
       sodipodi:nodetypes="ccccccccc" />
    <path
       d="m 373.527,227.477 h 62.879 v 2.25 h -62.879 z m 61.75,-2.25 6.75,3.382 -6.75,3.368 z"
       style="fill:#000000;fill-opacity:1;fill-rule:nonzero;stroke:none"
       id="path21577" />
    <g
       id="g21579">
      <path
         d="m 69.477,200.461 h 68.52 v 56.281 h -68.52 z"
         style="fill:#ffffff;fill-opacity:1;fill-rule:evenodd;stroke:#000000;stroke-width:2.24997;stroke-linecap:butt;stroke-linejoin:miter;stroke-miterlimit:10;stroke-dasharray:none;stroke-opacity:1"
         id="path21581" />
    </g>
    <path
       d="m 138.18,227.465 160.738,0.012 v 2.25 L 138.18,229.715 Z m 159.621,-2.238 6.75,3.367 -6.75,3.383 z"
       style="fill:#000000;fill-opacity:1;fill-rule:nonzero;stroke:none"
       id="path21583" />
    <path
       d="m 86.664,233.027 h -1.375 v 0.938 c 0.563,-0.031 1.75,-0.063 2.5,-0.063 0.781,0 1.969,0.032 2.5,0.063 v -0.938 h -1.375 v -4.156 c 0,-2.187 1.719,-3.156 3,-3.156 0.656,0 1.094,0.406 1.094,1.937 v 5.375 h -1.375 v 0.938 c 0.531,-0.031 1.75,-0.063 2.5,-0.063 0.781,0 1.969,0.032 2.5,0.063 v -0.938 h -1.375 v -5.156 c 0,-2.094 -1.063,-2.875 -3.063,-2.875 -1.906,0 -2.937,1.156 -3.375,1.938 v -6.813 l -3.531,0.156 v 0.938 c 1.219,0 1.375,0 1.375,0.781 z"
       style="fill:#000000;fill-opacity:1;fill-rule:nonzero;stroke:none"
       id="path21585" />
    <path
       d="m 100.551,231.453 h 1.406 c 0.281,0 0.438,0 0.438,-0.312 0,-0.188 -0.157,-0.188 -0.407,-0.188 h -1.312 l 0.5,-2.062 c 0.031,-0.063 0.062,-0.157 0.062,-0.188 0,-0.281 -0.218,-0.469 -0.5,-0.469 -0.343,0 -0.531,0.25 -0.656,0.594 -0.094,0.375 0.094,-0.312 -0.531,2.125 h -1.406 c -0.25,0 -0.438,0 -0.438,0.313 0,0.187 0.156,0.187 0.406,0.187 h 1.313 l -0.813,3.281 c -0.093,0.344 -0.218,0.844 -0.218,1.032 0,0.812 0.718,1.312 1.5,1.312 1.562,0 2.437,-1.937 2.437,-2.125 0,-0.187 -0.187,-0.187 -0.219,-0.187 -0.187,0 -0.187,0.031 -0.312,0.281 -0.375,0.875 -1.094,1.656 -1.844,1.656 -0.312,0 -0.5,-0.187 -0.5,-0.687 0,-0.125 0.063,-0.438 0.094,-0.563 z"
       style="fill:#000000;fill-opacity:1;fill-rule:nonzero;stroke:none"
       id="path21587" />
    <path
       d="m 113.508,233.797 c 0.219,0 0.562,0 0.562,-0.313 0,-0.375 -0.343,-0.375 -0.562,-0.375 h -8.313 c -0.218,0 -0.562,0 -0.562,0.344 0,0.344 0.312,0.344 0.562,0.344 z"
       style="fill:#000000;fill-opacity:1;fill-rule:nonzero;stroke:none"
       id="path21589" />
    <path
       d="m 120.242,228.078 c 0,-0.375 0,-0.375 -0.406,-0.375 -0.906,0.875 -2.156,0.875 -2.719,0.875 v 0.5 c 0.313,0 1.25,0 2,-0.375 v 7.094 c 0,0.469 0,0.656 -1.375,0.656 h -0.531 v 0.5 c 0.25,0 1.969,-0.062 2.469,-0.062 0.437,0 2.187,0.062 2.5,0.062 v -0.5 h -0.532 c -1.406,0 -1.406,-0.187 -1.406,-0.656 z"
       style="fill:#000000;fill-opacity:1;fill-rule:nonzero;stroke:none"
       id="path21591" />
    <path
       d="m 332.27,227.215 c 0,-2.688 -1.844,-4.688 -5.094,-4.688 -3.281,0 -5.094,2.032 -5.094,4.688 0,2.469 1.781,4.469 5.094,4.469 3.344,0 5.094,-2.032 5.094,-4.469 z m -5.094,3.656 c -2.531,0 -2.531,-2.156 -2.531,-3.875 0,-0.906 0,-1.906 0.343,-2.594 0.375,-0.75 1.219,-1.156 2.188,-1.156 0.844,0 1.687,0.313 2.125,1 0.406,0.688 0.406,1.781 0.406,2.75 0,1.719 0,3.875 -2.531,3.875 z"
       style="fill:#000000;fill-opacity:1;fill-rule:nonzero;stroke:none"
       id="path21593" />
    <path
       d="m 336.352,229.047 h 1.406 c 0.281,0 0.437,0 0.437,-0.313 0,-0.187 -0.156,-0.187 -0.406,-0.187 h -1.312 l 0.5,-2.063 c 0.031,-0.062 0.062,-0.156 0.062,-0.187 0,-0.281 -0.219,-0.469 -0.5,-0.469 -0.344,0 -0.531,0.25 -0.656,0.594 -0.094,0.375 0.094,-0.313 -0.531,2.125 h -1.407 c -0.25,0 -0.437,0 -0.437,0.312 0,0.188 0.156,0.188 0.406,0.188 h 1.313 l -0.813,3.281 c -0.094,0.344 -0.219,0.844 -0.219,1.031 0,0.813 0.719,1.313 1.5,1.313 1.563,0 2.438,-1.938 2.438,-2.125 0,-0.188 -0.188,-0.188 -0.219,-0.188 -0.187,0 -0.187,0.036 -0.312,0.286 -0.375,0.871 -1.094,1.652 -1.844,1.652 -0.313,0 -0.5,-0.188 -0.5,-0.688 0,-0.125 0.062,-0.437 0.094,-0.562 z"
       style="fill:#000000;fill-opacity:1;fill-rule:nonzero;stroke:none"
       id="path21595" />
    <path
       d="m 349.309,231.395 c 0.218,0 0.562,0 0.562,-0.317 0,-0.375 -0.344,-0.375 -0.562,-0.375 h -8.313 c -0.219,0 -0.562,0 -0.562,0.344 0,0.348 0.312,0.348 0.562,0.348 z"
       style="fill:#000000;fill-opacity:1;fill-rule:nonzero;stroke:none"
       id="path21597" />
    <g
       id="g21601"
       clip-path="url(#clipPath21605)">
      <g
         id="g21607">
        <g
           id="g21609">
          <g
             id="g21611"
             clip-path="url(#clipPath21615)">
            <g
               id="g21617">
              <path
                 d="m 356.043,225.672 c 0,-0.375 0,-0.375 -0.406,-0.375 -0.907,0.875 -2.157,0.875 -2.719,0.875 v 0.5 c 0.312,0 1.25,0 2,-0.375 v 7.098 c 0,0.464 0,0.652 -1.375,0.652 h -0.531 v 0.5 c 0.25,0 1.968,-0.063 2.468,-0.063 0.438,0 2.188,0.063 2.5,0.063 v -0.5 h -0.531 c -1.406,0 -1.406,-0.188 -1.406,-0.652 z"
                 style="fill:#000000;fill-opacity:1;fill-rule:nonzero;stroke:none"
                 id="path21619" />
            </g>
          </g>
        </g>
      </g>
    </g>
    <path
       d="m 0,340.422 h 62.879 v 2.25 H 0 Z m 61.75,-2.25 6.75,3.379 -6.75,3.371 z"
       style="fill:#000000;fill-opacity:1;fill-rule:nonzero;stroke:none"
       id="path21623" />
    <g
       id="g21625">
      <path
         d="m 305.344,313.738 h 68.523 v 56.281 h -68.523 z"
         style="fill:#ffffff;fill-opacity:1;fill-rule:evenodd;stroke:#000000;stroke-width:2.24997;stroke-linecap:butt;stroke-linejoin:miter;stroke-miterlimit:10;stroke-dasharray:none;stroke-opacity:1"
         id="path21627" />
    </g>
    <path
       d="m 104.527,392.094 v 28.019 h -2.25 v -28.019 z m 2.25,26.886 -3.371,6.75 -3.379,-6.75 z"
       style="fill:#000000;fill-opacity:1;fill-rule:nonzero;stroke:none"
       id="path21629"
       sodipodi:nodetypes="ccccccccc" />
    <path
       d="m 373.195,340.754 h 62.879 v 2.25 h -62.879 z m 61.75,-2.25 6.75,3.383 -6.75,3.367 z"
       style="fill:#000000;fill-opacity:1;fill-rule:nonzero;stroke:none"
       id="path21631" />
    <g
       id="g21633">
      <path
         d="m 69.145,313.738 h 68.52 v 56.281 h -68.52 z"
         style="fill:#ffffff;fill-opacity:1;fill-rule:evenodd;stroke:#000000;stroke-width:2.24997;stroke-linecap:butt;stroke-linejoin:miter;stroke-miterlimit:10;stroke-dasharray:none;stroke-opacity:1"
         id="path21635" />
    </g>
    <path
       d="m 137.848,340.742 160.738,0.012 v 2.25 l -160.738,-0.012 z m 159.621,-2.238 6.75,3.367 -6.75,3.383 z"
       style="fill:#000000;fill-opacity:1;fill-rule:nonzero;stroke:none"
       id="path21637" />
    <path
       d="m 341.738,340.492 c 0,-2.687 -1.843,-4.687 -5.093,-4.687 -3.282,0 -5.094,2.031 -5.094,4.687 0,2.469 1.777,4.469 5.094,4.469 3.343,0 5.093,-2.031 5.093,-4.469 z m -5.093,3.656 c -2.532,0 -2.532,-2.156 -2.532,-3.875 0,-0.906 0,-1.906 0.34,-2.593 0.375,-0.75 1.223,-1.157 2.192,-1.157 0.843,0 1.683,0.313 2.125,1 0.406,0.688 0.406,1.782 0.406,2.75 0,1.719 0,3.875 -2.531,3.875 z"
       style="fill:#000000;fill-opacity:1;fill-rule:nonzero;stroke:none"
       id="path21639" />
    <path
       d="m 345.82,342.324 h 1.407 c 0.281,0 0.433,0 0.433,-0.312 0,-0.188 -0.152,-0.188 -0.402,-0.188 h -1.313 l 0.5,-2.062 c 0.032,-0.063 0.063,-0.157 0.063,-0.188 0,-0.281 -0.223,-0.469 -0.5,-0.469 -0.348,0 -0.531,0.25 -0.656,0.594 -0.094,0.375 0.093,-0.312 -0.532,2.125 h -1.41 c -0.25,0 -0.433,0 -0.433,0.313 0,0.187 0.156,0.187 0.406,0.187 h 1.312 l -0.812,3.281 c -0.098,0.344 -0.223,0.844 -0.223,1.032 0,0.812 0.723,1.312 1.5,1.312 1.567,0 2.442,-1.937 2.442,-2.125 0,-0.187 -0.192,-0.187 -0.219,-0.187 -0.188,0 -0.188,0.031 -0.313,0.281 -0.375,0.875 -1.093,1.656 -1.843,1.656 -0.317,0 -0.5,-0.187 -0.5,-0.687 0,-0.125 0.058,-0.438 0.093,-0.563 z"
       style="fill:#000000;fill-opacity:1;fill-rule:nonzero;stroke:none"
       id="path21641" />
    <path
       d="m 96.227,346.305 h -1.375 v 0.937 c 0.562,-0.031 1.75,-0.062 2.5,-0.062 0.781,0 1.968,0.031 2.5,0.062 v -0.937 h -1.375 v -4.157 c 0,-2.187 1.718,-3.156 3,-3.156 0.656,0 1.093,0.406 1.093,1.938 v 5.375 h -1.375 v 0.937 c 0.532,-0.031 1.75,-0.062 2.5,-0.062 0.782,0 1.969,0.031 2.5,0.062 v -0.937 h -1.375 v -5.157 c 0,-2.093 -1.062,-2.875 -3.062,-2.875 -1.906,0 -2.938,1.157 -3.375,1.938 v -6.813 l -3.531,0.157 v 0.937 c 1.218,0 1.375,0 1.375,0.781 z"
       style="fill:#000000;fill-opacity:1;fill-rule:nonzero;stroke:none"
       id="path21643" />
    <path
       d="m 110.113,344.73 h 1.407 c 0.281,0 0.437,0 0.437,-0.312 0,-0.188 -0.156,-0.188 -0.406,-0.188 h -1.313 l 0.5,-2.062 c 0.032,-0.063 0.063,-0.156 0.063,-0.188 0,-0.281 -0.219,-0.468 -0.5,-0.468 -0.344,0 -0.531,0.25 -0.656,0.593 -0.094,0.375 0.093,-0.312 -0.532,2.125 h -1.406 c -0.25,0 -0.437,0 -0.437,0.313 0,0.187 0.156,0.187 0.406,0.187 h 1.312 l -0.812,3.282 c -0.094,0.343 -0.219,0.843 -0.219,1.031 0,0.812 0.719,1.312 1.5,1.312 1.563,0 2.438,-1.937 2.438,-2.125 0,-0.187 -0.188,-0.187 -0.219,-0.187 -0.188,0 -0.188,0.031 -0.313,0.281 -0.375,0.875 -1.093,1.656 -1.843,1.656 -0.313,0 -0.5,-0.187 -0.5,-0.687 0,-0.125 0.062,-0.438 0.093,-0.563 z"
       style="fill:#000000;fill-opacity:1;fill-rule:nonzero;stroke:none"
       id="path21645" />
    <path
       d="m -41.7317,111.17386 2.312,-2.594 c 0.281,-0.281 0.407,-0.406 2.03099,-0.406 v -0.93699 c -0.687,0.031 -1.71799,0.062 -1.81199,0.062 -0.5,0 -1.5,-0.062 -2.062,-0.062 v 0.93699 c 0.281,0 0.531,0.031 0.75,0.156 -0.063,0.125 -0.063,0.188 -0.157,0.25 l -1.656,1.875 -1.96899,-2.281 h 0.813 v -0.93699 c -0.531,0 -1.781,0.062 -2.438,0.062 -0.625,0 -1.53099,-0.062 -2.18699,-0.062 v 0.93699 h 1.437 l 3.09399,3.65599 -2.625,2.938 c -0.312,0.375 -1.03099,0.375 -1.99999,0.375 v 0.93699 c 0.688,-0.031 1.74999,-0.062 1.84399,-0.062 0.5,0 1.656,0.031 2.031,0.062 v -0.93699 c -0.344,0 -0.719,-0.094 -0.719,-0.219 0,-0.031 0,-0.031 0.125,-0.187 l 1.938,-2.188 2.18699,2.594 h -0.781 v 0.93699 c 0.531,-0.031 1.75,-0.062 2.406,-0.062 0.625,0 1.53099,0.031 2.18799,0.062 v -0.93699 h -1.407 z"
       style="fill:#000000;fill-opacity:1;fill-rule:nonzero;stroke:none;stroke-width:0.999997"
       id="path706" />
    <path
       d="m -33.10672,113.56485 h 1.406 c 0.281,0 0.438,0 0.438,-0.313 0,-0.187 -0.157,-0.187 -0.407,-0.187 h -1.312 l 0.5,-2.06299 c 0.031,-0.062 0.062,-0.156 0.062,-0.187 0,-0.282 -0.219,-0.469 -0.5,-0.469 -0.343,0 -0.531,0.25 -0.656,0.594 -0.094,0.375 0.094,-0.313 -0.531,2.12499 h -1.40599 c -0.25,0 -0.438,0 -0.438,0.312 0,0.188 0.156,0.188 0.406,0.188 h 1.31299 l -0.81299,3.28099 c -0.094,0.344 -0.218,0.844 -0.218,1.031 0,0.813 0.71799,1.313 1.49999,1.313 1.562,0 2.437,-1.938 2.437,-2.125 0,-0.188 -0.187,-0.188 -0.219,-0.188 -0.187,0 -0.187,0.031 -0.312,0.281 -0.375,0.875 -1.094,1.657 -1.844,1.657 -0.312,0 -0.5,-0.188 -0.5,-0.688 0,-0.125 0.062,-0.437 0.094,-0.562 z"
       style="fill:#000000;fill-opacity:1;fill-rule:nonzero;stroke:none;stroke-width:0.999997"
       id="path708" />
    <path
       d="m -20.149753,115.90784 c 0.219,0 0.561999,0 0.561999,-0.31199 0,-0.375 -0.342999,-0.375 -0.561999,-0.375 h -8.312977 c -0.218,0 -0.562,0 -0.562,0.344 0,0.34299 0.312,0.34299 0.562,0.34299 z"
       style="fill:#000000;fill-opacity:1;fill-rule:nonzero;stroke:none;stroke-width:0.999997"
       id="path710" />
    <path
       d="m -11.040775,116.53284 h -0.468999 c -0.031,0.313 -0.187,1.125 -0.374999,1.25 -0.093,0.094 -1.155997,0.094 -1.374997,0.094 h -2.561993 c 1.468996,-1.281 1.968995,-1.687 2.780993,-2.34399 1.030997,-0.812 1.999995,-1.687 1.999995,-3 0,-1.68699 -1.468997,-2.71799 -3.249992,-2.71799 -1.718996,0 -2.905993,1.218 -2.905993,2.49999 0,0.687 0.593999,0.781 0.749998,0.781 0.311999,0 0.718998,-0.25 0.718998,-0.75 0,-0.25 -0.094,-0.75 -0.812998,-0.75 0.437999,-0.96899 1.374997,-1.28099 2.030995,-1.28099 1.406997,0 2.124995,1.093 2.124995,2.21799 0,1.219 -0.874998,2.157 -1.311997,2.657 l -3.343991,3.34299 c -0.156,0.125 -0.156,0.157 -0.156,0.532 h 5.749986 z"
       style="fill:#000000;fill-opacity:1;fill-rule:nonzero;stroke:none;stroke-width:0.999997"
       id="path712" />
    <path
       d="m -41.2947,224.30243 2.313,-2.59399 c 0.281,-0.281 0.406,-0.406 2.03099,-0.406 v -0.937 c -0.688,0.031 -1.71899,0.062 -1.81199,0.062 -0.5,0 -1.5,-0.062 -2.063,-0.062 v 0.937 c 0.281,0 0.531,0.031 0.75,0.156 -0.063,0.125 -0.063,0.188 -0.156,0.25 l -1.657,1.875 -1.96799,-2.281 h 0.812 v -0.937 c -0.531,0 -1.781,0.062 -2.437,0.062 -0.625,0 -1.53099,-0.062 -2.18799,-0.062 v 0.937 h 1.43799 l 3.093,3.65599 -2.624,2.938 c -0.313,0.375 -1.03199,0.375 -1.99999,0.375 v 0.93699 c 0.687,-0.031 1.74999,-0.062 1.84299,-0.062 0.5,0 1.657,0.031 2.031,0.062 v -0.93699 c -0.343,0 -0.718,-0.094 -0.718,-0.219 0,-0.031 0,-0.031 0.125,-0.187 l 1.93699,-2.188 2.188,2.594 h -0.782 v 0.93699 c 0.532,-0.031 1.75,-0.062 2.407,-0.062 0.62499,0 1.53099,0.031 2.18699,0.062 v -0.93699 h -1.406 z"
       style="fill:#000000;fill-opacity:1;fill-rule:nonzero;stroke:none;stroke-width:0.999997"
       id="path714" />
    <path
       d="m -32.66972,226.69743 h 1.407 c 0.281,0 0.437,0 0.437,-0.313 0,-0.187 -0.156,-0.187 -0.406,-0.187 h -1.313 l 0.5,-2.06299 c 0.032,-0.062 0.063,-0.156 0.063,-0.187 0,-0.282 -0.219,-0.469 -0.5,-0.469 -0.344,0 -0.531,0.25 -0.657,0.594 -0.093,0.37499 0.094,-0.313 -0.531,2.12499 h -1.40599 c -0.25,0 -0.437,0 -0.437,0.312 0,0.188 0.156,0.188 0.406,0.188 h 1.31199 l -0.81199,3.28099 c -0.094,0.344 -0.219,0.844 -0.219,1.031 0,0.813 0.71899,1.313 1.49999,1.313 1.563,0 2.437,-1.938 2.437,-2.125 0,-0.188 -0.187,-0.188 -0.218,-0.188 -0.188,0 -0.188,0.031 -0.313,0.281 -0.375,0.875 -1.093,1.657 -1.843,1.657 -0.313,0 -0.5,-0.188 -0.5,-0.688 0,-0.125 0.062,-0.437 0.093,-0.562 z"
       style="fill:#000000;fill-opacity:1;fill-rule:nonzero;stroke:none;stroke-width:0.999997"
       id="path716" />
    <path
       d="m -19.712754,229.04042 c 0.219,0 0.562999,0 0.562999,-0.312 0,-0.375 -0.343999,-0.375 -0.562999,-0.375 h -8.311976 c -0.219,0 -0.563,0 -0.563,0.344 0,0.343 0.313,0.343 0.563,0.343 z"
       style="fill:#000000;fill-opacity:1;fill-rule:nonzero;stroke:none;stroke-width:0.999997"
       id="path718" />
    <path
       d="m -12.97777,223.32244 c 0,-0.375 0,-0.375 -0.406999,-0.375 -0.905998,0.875 -2.155995,0.875 -2.717994,0.875 v 0.49999 c 0.312,0 1.249997,0 1.999995,-0.37499 v 7.09298 c 0,0.469 0,0.657 -1.374996,0.657 h -0.531999 v 0.5 c 0.249999,0 1.968995,-0.063 2.468994,-0.063 0.437999,0 2.187995,0.063 2.499994,0.063 v -0.5 h -0.530999 c -1.405996,0 -1.405996,-0.188 -1.405996,-0.657 z"
       style="fill:#000000;fill-opacity:1;fill-rule:nonzero;stroke:none;stroke-width:0.999997"
       id="path720" />
    <path
       d="m -21.509749,337.43102 2.312994,-2.59399 c 0.280999,-0.281 0.405999,-0.406 2.030995,-0.406 v -0.938 c -0.686998,0.032 -1.718996,0.063 -1.811996,0.063 -0.499998,0 -1.499996,-0.063 -2.062994,-0.063 v 0.938 c 0.280999,0 0.530998,0.031 0.749998,0.156 -0.062,0.125 -0.062,0.188 -0.156,0.25 l -1.655996,1.875 -1.968995,-2.281 h 0.811998 v -0.938 c -0.530998,0 -1.780995,0.063 -2.436993,0.063 -0.624999,0 -1.530996,-0.063 -2.187994,-0.063 v 0.938 h 1.437996 l 3.093992,3.65599 -2.624994,2.938 c -0.312999,0.37499 -1.031997,0.37499 -1.999994,0.37499 v 0.937 c 0.686998,-0.031 1.749995,-0.062 1.842995,-0.062 0.499999,0 1.656995,0.031 2.031995,0.062 v -0.937 c -0.344,0 -0.718998,-0.094 -0.718998,-0.21899 0,-0.031 0,-0.031 0.124999,-0.188 l 1.936995,-2.187 2.187994,2.59399 h -0.780998 v 0.937 c 0.530999,-0.031 1.749996,-0.062 2.405994,-0.062 0.624999,0 1.530997,0.031 2.186995,0.062 v -0.937 h -1.405997 z"
       style="fill:#000000;fill-opacity:1;fill-rule:nonzero;stroke:none;stroke-width:0.999997"
       id="path722" />
    <path
       d="m -12.884771,339.82502 h 1.406997 c 0.280999,0 0.436999,0 0.436999,-0.312 0,-0.188 -0.156,-0.188 -0.405999,-0.188 h -1.312997 l 0.499999,-2.062 c 0.032,-0.063 0.063,-0.15599 0.063,-0.18799 0,-0.281 -0.219,-0.468 -0.499999,-0.468 -0.343999,0 -0.530999,0.25 -0.655999,0.59299 -0.094,0.375 0.093,-0.31199 -0.531998,2.125 h -1.405997 c -0.249999,0 -0.436999,0 -0.436999,0.313 0,0.187 0.156,0.187 0.405999,0.187 h 1.311997 l -0.811998,3.28199 c -0.094,0.343 -0.218999,0.843 -0.218999,1.031 0,0.812 0.718998,1.31199 1.499996,1.31199 1.562996,0 2.437994,-1.93699 2.437994,-2.12499 0,-0.187 -0.188,-0.187 -0.219,-0.187 -0.187999,0 -0.187999,0.031 -0.312999,0.281 -0.374999,0.875 -1.092997,1.656 -1.842995,1.656 -0.312999,0 -0.499999,-0.187 -0.499999,-0.687 0,-0.125 0.062,-0.438 0.093,-0.563 z"
       style="fill:#000000;fill-opacity:1;fill-rule:nonzero;stroke:none;stroke-width:0.999997"
       id="path724" />
    <path
       style="fill:none;stroke:#000000;stroke-width:2.4;stroke-linecap:butt;stroke-linejoin:miter;stroke-dasharray:none;stroke-opacity:1"
       d="m 103.85425,166.22222 49.0969,0.0372 0.32887,-50.17044"
       id="path40923"
       sodipodi:nodetypes="ccc" />
    <path
       style="fill:none;stroke:#000000;stroke-width:2.4;stroke-linecap:butt;stroke-linejoin:miter;stroke-dasharray:none;stroke-opacity:1"
       d="m 102.7218,278.87547 49.0969,0.0372 0.32887,-50.17043"
       id="path40923-5"
       sodipodi:nodetypes="ccc" />
    <path
       style="fill:none;stroke:#000000;stroke-width:2.4;stroke-linecap:butt;stroke-linejoin:miter;stroke-dasharray:none;stroke-opacity:1"
       d="m 102.09718,393.12642 49.0969,0.0372 0.32887,-50.17044"
       id="path40923-1"
       sodipodi:nodetypes="ccc" />
  </g>
</svg>
