<?xml version="1.0" encoding="UTF-8" standalone="no"?>
<!-- Created with Inkscape (http://www.inkscape.org/) -->

<svg
   version="1.1"
   id="svg21495"
   width="704.59595"
   height="571.64215"
   viewBox="0 0 704.59596 571.64215"
   sodipodi:docname="smaller_rnn_unrolled_BP.svg"
   inkscape:version="1.2.2 (1:1.2.2+202212051551+b0a8486541)"
   xmlns:inkscape="http://www.inkscape.org/namespaces/inkscape"
   xmlns:sodipodi="http://sodipodi.sourceforge.net/DTD/sodipodi-0.dtd"
   xmlns="http://www.w3.org/2000/svg"
   xmlns:svg="http://www.w3.org/2000/svg"
   xmlns:ns4="http://www.iki.fi/pav/software/textext/">
  <defs
     id="defs21499">
    <marker
       style="overflow:visible"
       id="TriangleStart"
       refX="0"
       refY="0"
       orient="auto-start-reverse"
       inkscape:stockid="TriangleStart"
       markerWidth="2.3239999"
       markerHeight="2.6867051"
       viewBox="0 0 5.3244081 6.1553851"
       inkscape:isstock="true"
       inkscape:collect="always"
       preserveAspectRatio="xMidYMid">
      <path
         transform="scale(0.5)"
         style="fill:context-stroke;fill-rule:evenodd;stroke:context-stroke;stroke-width:1pt"
         d="M 5.77,0 -2.88,5 V -5 Z"
         id="path135" />
    </marker>
    <clipPath
       clipPathUnits="userSpaceOnUse"
       id="clipPath21551">
      <path
         d="m 351.793,111.93 h 6 v 10 h -6 z"
         id="path21549" />
    </clipPath>
    <clipPath
       clipPathUnits="userSpaceOnUse"
       id="clipPath21561">
      <path
         d="M 0,0 H 709 V 546 H 0 Z"
         id="path21559" />
    </clipPath>
    <clipPath
       clipPathUnits="userSpaceOnUse"
       id="clipPath21605">
      <path
         d="m 352.793,224.953 h 5 v 10 h -5 z"
         id="path21603" />
    </clipPath>
    <clipPath
       clipPathUnits="userSpaceOnUse"
       id="clipPath21615">
      <path
         d="M 0,0 H 709 V 546 H 0 Z"
         id="path21613" />
    </clipPath>
    <g
       id="id-0a8574f0-ece9-4361-90fc-dc32b01c35a9">
      <symbol
         overflow="visible"
         id="id-4c8424e2-ff76-41d1-b9f9-7f25b871011e">
        <path
           style="stroke:none"
           d=""
           id="id-7838c54e-d880-4988-8b32-004c84ec8538" />
      </symbol>
      <symbol
         overflow="visible"
         id="id-d4eded10-de98-459a-8c6f-873f76c2479e">
        <path
           style="stroke:none"
           d="m 2.828125,-4.421875 c -1.765625,0.40625 -2.375,1.921875 -2.375,2.8125 0,1.203125 0.96875,1.734375 2.03125,1.734375 C 3.796875,0.125 4.75,-1.46875 4.75,-3.078125 4.75,-3.96875 4.390625,-4.390625 3.984375,-4.78125 3.53125,-5.203125 2.65625,-6.015625 2.65625,-6.375 c 0,-0.046875 0.109375,-0.3125 0.46875,-0.3125 0.328125,0 0.578125,0.171875 0.75,0.296875 0.1875,0.15625 0.484375,0.375 0.703125,0.375 0.3125,0 0.53125,-0.28125 0.53125,-0.53125 0,-0.296875 -0.15625,-0.328125 -0.6875,-0.4375 C 4.203125,-7.03125 3.625,-7.15625 3.359375,-7.15625 c -0.53125,0 -1.125,0.375 -1.125,1.09375 0,0.5625 0.375,1.234375 0.59375,1.640625 z m 0.21875,0.359375 c 0.25,0.390625 0.5625,0.953125 0.5625,1.65625 0,0.4375 -0.265625,2.171875 -1.09375,2.171875 -0.109375,0 -0.484375,-0.03125 -0.765625,-0.28125 C 1.5,-0.75 1.5,-1.125 1.5,-1.25 c 0,-0.515625 0.28125,-1.484375 0.453125,-1.84375 0.140625,-0.265625 0.4375,-0.75 1.09375,-0.96875 z m 0,0"
           id="id-f9626f04-72f5-42b1-96e4-3ed7d11c951e" />
      </symbol>
      <symbol
         overflow="visible"
         id="id-d6629376-cc24-435a-a705-f8c4929adc06">
        <path
           style="stroke:none"
           d=""
           id="id-6a559388-6f60-4eaf-8c1d-e3a7731396d3" />
      </symbol>
      <symbol
         overflow="visible"
         id="id-242e1378-7d2b-45da-9858-ec692ba7f364">
        <path
           style="stroke:none"
           d="m 1.71875,-2.75 h 0.703125 c 0.140625,0 0.21875,0 0.21875,-0.15625 C 2.640625,-3 2.5625,-3 2.4375,-3 H 1.78125 l 0.25,-1.03125 C 2.046875,-4.0625 2.0625,-4.109375 2.0625,-4.125 c 0,-0.140625 -0.109375,-0.234375 -0.25,-0.234375 -0.171875,0 -0.265625,0.125 -0.328125,0.296875 C 1.4375,-3.875 1.53125,-4.21875 1.21875,-3 H 0.515625 c -0.125,0 -0.21875,0 -0.21875,0.15625 C 0.296875,-2.75 0.375,-2.75 0.5,-2.75 H 1.15625 L 0.75,-1.109375 C 0.703125,-0.9375 0.640625,-0.6875 0.640625,-0.59375 c 0,0.40625 0.359375,0.65625 0.75,0.65625 0.78125,0 1.21875,-0.96875 1.21875,-1.0625 0,-0.09375 -0.09375,-0.09375 -0.109375,-0.09375 -0.09375,0 -0.09375,0.015625 -0.15625,0.140625 -0.1875,0.4375 -0.546875,0.828125 -0.921875,0.828125 -0.15625,0 -0.25,-0.09375 -0.25,-0.34375 0,-0.0625 0.03125,-0.21875 0.046875,-0.28125 z m 0,0"
           id="id-d6975df7-c9f6-4540-9883-148984c5e5ba" />
      </symbol>
      <symbol
         overflow="visible"
         id="id-7c0c90d2-3840-45c9-9f35-44af03f56e50">
        <path
           style="stroke:none"
           d=""
           id="id-bc45b357-3502-45f5-b412-110db33c93f9" />
      </symbol>
      <symbol
         overflow="visible"
         id="id-f7484fce-a31e-4e4e-a7d3-026e72c9ec3f">
        <path
           style="stroke:none"
           d="m 3.21875,-1.578125 h 2.140625 c 0.09375,0 0.25,0 0.25,-0.15625 0,-0.1875 -0.15625,-0.1875 -0.25,-0.1875 H 3.21875 V -4.0625 c 0,-0.078125 0,-0.25 -0.15625,-0.25 -0.171875,0 -0.171875,0.15625 -0.171875,0.25 v 2.140625 H 0.75 c -0.09375,0 -0.265625,0 -0.265625,0.171875 0,0.171875 0.15625,0.171875 0.265625,0.171875 H 2.890625 V 0.5625 c 0,0.09375 0,0.265625 0.15625,0.265625 0.171875,0 0.171875,-0.171875 0.171875,-0.265625 z m 0,0"
           id="id-04e9e891-43ea-47d0-af16-442544a141b7" />
      </symbol>
      <symbol
         overflow="visible"
         id="id-30c4db57-0434-4d9d-8288-d1b32136b15a">
        <path
           style="stroke:none"
           d="m 2.328125,-4.4375 c 0,-0.1875 0,-0.1875 -0.203125,-0.1875 -0.453125,0.4375 -1.078125,0.4375 -1.359375,0.4375 v 0.25 c 0.15625,0 0.625,0 1,-0.1875 v 3.546875 c 0,0.234375 0,0.328125 -0.6875,0.328125 H 0.8125 V 0 c 0.125,0 0.984375,-0.03125 1.234375,-0.03125 0.21875,0 1.09375,0.03125 1.25,0.03125 V -0.25 H 3.03125 c -0.703125,0 -0.703125,-0.09375 -0.703125,-0.328125 z m 0,0"
           id="id-e5b0fe6f-1351-4ee9-994b-cb3a0ac0f591" />
      </symbol>
    </g>
    <g
       id="id-d4cb466d-b295-474b-9732-5cc4981f1498">
      <symbol
         overflow="visible"
         id="id-0ddc3e17-de50-4d45-a953-79282061afd9">
        <path
           style="stroke:none"
           d=""
           id="id-51d1ce88-99fa-447f-8e3a-e3264467c3bc" />
      </symbol>
      <symbol
         overflow="visible"
         id="id-6c083e0e-ba10-49d1-9047-be4a2a0ffa25">
        <path
           style="stroke:none"
           d="m 2.828125,-4.421875 c -1.765625,0.40625 -2.375,1.921875 -2.375,2.8125 0,1.203125 0.96875,1.734375 2.03125,1.734375 C 3.796875,0.125 4.75,-1.46875 4.75,-3.078125 4.75,-3.96875 4.390625,-4.390625 3.984375,-4.78125 3.53125,-5.203125 2.65625,-6.015625 2.65625,-6.375 c 0,-0.046875 0.109375,-0.3125 0.46875,-0.3125 0.328125,0 0.578125,0.171875 0.75,0.296875 0.1875,0.15625 0.484375,0.375 0.703125,0.375 0.3125,0 0.53125,-0.28125 0.53125,-0.53125 0,-0.296875 -0.15625,-0.328125 -0.6875,-0.4375 C 4.203125,-7.03125 3.625,-7.15625 3.359375,-7.15625 c -0.53125,0 -1.125,0.375 -1.125,1.09375 0,0.5625 0.375,1.234375 0.59375,1.640625 z m 0.21875,0.359375 c 0.25,0.390625 0.5625,0.953125 0.5625,1.65625 0,0.4375 -0.265625,2.171875 -1.09375,2.171875 -0.109375,0 -0.484375,-0.03125 -0.765625,-0.28125 C 1.5,-0.75 1.5,-1.125 1.5,-1.25 c 0,-0.515625 0.28125,-1.484375 0.453125,-1.84375 0.140625,-0.265625 0.4375,-0.75 1.09375,-0.96875 z m 0,0"
           id="id-d365e09d-ad91-48c2-9be5-ee9f3cee3620" />
      </symbol>
      <symbol
         overflow="visible"
         id="id-81473787-87fb-4a5d-aad1-47bcc2d44d37">
        <path
           style="stroke:none"
           d=""
           id="id-915dac6e-78f5-46e2-9f27-ee71ccc06f7d" />
      </symbol>
      <symbol
         overflow="visible"
         id="id-75f54778-3182-46d8-afdd-ed607f08b6b2">
        <path
           style="stroke:none"
           d="m 1.71875,-2.75 h 0.703125 c 0.140625,0 0.21875,0 0.21875,-0.15625 C 2.640625,-3 2.5625,-3 2.4375,-3 H 1.78125 l 0.25,-1.03125 C 2.046875,-4.0625 2.0625,-4.109375 2.0625,-4.125 c 0,-0.140625 -0.109375,-0.234375 -0.25,-0.234375 -0.171875,0 -0.265625,0.125 -0.328125,0.296875 C 1.4375,-3.875 1.53125,-4.21875 1.21875,-3 H 0.515625 c -0.125,0 -0.21875,0 -0.21875,0.15625 C 0.296875,-2.75 0.375,-2.75 0.5,-2.75 H 1.15625 L 0.75,-1.109375 C 0.703125,-0.9375 0.640625,-0.6875 0.640625,-0.59375 c 0,0.40625 0.359375,0.65625 0.75,0.65625 0.78125,0 1.21875,-0.96875 1.21875,-1.0625 0,-0.09375 -0.09375,-0.09375 -0.109375,-0.09375 -0.09375,0 -0.09375,0.015625 -0.15625,0.140625 -0.1875,0.4375 -0.546875,0.828125 -0.921875,0.828125 -0.15625,0 -0.25,-0.09375 -0.25,-0.34375 0,-0.0625 0.03125,-0.21875 0.046875,-0.28125 z m 0,0"
           id="id-90f94d20-aa01-4e52-bcd5-675e92b27528" />
      </symbol>
    </g>
    <g
       id="id-f8982101-9d20-4d16-b94b-56b4d9b3e783">
      <symbol
         overflow="visible"
         id="id-99dab8cd-5cdf-4b3f-9c6f-eecbc3a8c97d">
        <path
           style="stroke:none"
           d=""
           id="id-ba8e7a11-2526-4e65-97c3-192cc608721e" />
      </symbol>
      <symbol
         overflow="visible"
         id="id-40edccec-5af8-4a05-a1a0-e6d7665abdad">
        <path
           style="stroke:none"
           d="m 2.828125,-4.421875 c -1.765625,0.40625 -2.375,1.921875 -2.375,2.8125 0,1.203125 0.96875,1.734375 2.03125,1.734375 C 3.796875,0.125 4.75,-1.46875 4.75,-3.078125 4.75,-3.96875 4.390625,-4.390625 3.984375,-4.78125 3.53125,-5.203125 2.65625,-6.015625 2.65625,-6.375 c 0,-0.046875 0.109375,-0.3125 0.46875,-0.3125 0.328125,0 0.578125,0.171875 0.75,0.296875 0.1875,0.15625 0.484375,0.375 0.703125,0.375 0.3125,0 0.53125,-0.28125 0.53125,-0.53125 0,-0.296875 -0.15625,-0.328125 -0.6875,-0.4375 C 4.203125,-7.03125 3.625,-7.15625 3.359375,-7.15625 c -0.53125,0 -1.125,0.375 -1.125,1.09375 0,0.5625 0.375,1.234375 0.59375,1.640625 z m 0.21875,0.359375 c 0.25,0.390625 0.5625,0.953125 0.5625,1.65625 0,0.4375 -0.265625,2.171875 -1.09375,2.171875 -0.109375,0 -0.484375,-0.03125 -0.765625,-0.28125 C 1.5,-0.75 1.5,-1.125 1.5,-1.25 c 0,-0.515625 0.28125,-1.484375 0.453125,-1.84375 0.140625,-0.265625 0.4375,-0.75 1.09375,-0.96875 z m 0,0"
           id="id-dbaf61ea-8155-4d97-a9f4-3e57824bee90" />
      </symbol>
      <symbol
         overflow="visible"
         id="id-35520abb-f0b3-47a5-9500-478c1770c2d8">
        <path
           style="stroke:none"
           d=""
           id="id-bbb81710-a026-4dcd-99e1-d3bd923968a3" />
      </symbol>
      <symbol
         overflow="visible"
         id="id-132b23f5-8323-45ce-a011-482305e6df83">
        <path
           style="stroke:none"
           d="m 1.71875,-2.75 h 0.703125 c 0.140625,0 0.21875,0 0.21875,-0.15625 C 2.640625,-3 2.5625,-3 2.4375,-3 H 1.78125 l 0.25,-1.03125 C 2.046875,-4.0625 2.0625,-4.109375 2.0625,-4.125 c 0,-0.140625 -0.109375,-0.234375 -0.25,-0.234375 -0.171875,0 -0.265625,0.125 -0.328125,0.296875 C 1.4375,-3.875 1.53125,-4.21875 1.21875,-3 H 0.515625 c -0.125,0 -0.21875,0 -0.21875,0.15625 C 0.296875,-2.75 0.375,-2.75 0.5,-2.75 H 1.15625 L 0.75,-1.109375 C 0.703125,-0.9375 0.640625,-0.6875 0.640625,-0.59375 c 0,0.40625 0.359375,0.65625 0.75,0.65625 0.78125,0 1.21875,-0.96875 1.21875,-1.0625 0,-0.09375 -0.09375,-0.09375 -0.109375,-0.09375 -0.09375,0 -0.09375,0.015625 -0.15625,0.140625 -0.1875,0.4375 -0.546875,0.828125 -0.921875,0.828125 -0.15625,0 -0.25,-0.09375 -0.25,-0.34375 0,-0.0625 0.03125,-0.21875 0.046875,-0.28125 z m 0,0"
           id="id-324bd42d-14e5-48ca-9280-3f5af5fd21f8" />
      </symbol>
      <symbol
         overflow="visible"
         id="id-3dca8392-40eb-4460-b7e6-9f5388366c31">
        <path
           style="stroke:none"
           d=""
           id="id-04906ae5-6d74-4225-a92c-03ddadaaf83e" />
      </symbol>
      <symbol
         overflow="visible"
         id="id-0db40859-5377-4f0a-884d-d72b90f66711">
        <path
           style="stroke:none"
           d="m 5.1875,-1.578125 c 0.109375,0 0.28125,0 0.28125,-0.15625 0,-0.1875 -0.171875,-0.1875 -0.28125,-0.1875 H 1.03125 c -0.109375,0 -0.28125,0 -0.28125,0.171875 0,0.171875 0.15625,0.171875 0.28125,0.171875 z m 0,0"
           id="id-550d7c2c-fc95-421a-ba0d-ee94ff5db76e" />
      </symbol>
      <symbol
         overflow="visible"
         id="id-c263151b-c498-4446-96b3-3b7a0740e58a">
        <path
           style="stroke:none"
           d=""
           id="id-f49f41c3-939c-44b9-a3be-eeed0531ecc0" />
      </symbol>
      <symbol
         overflow="visible"
         id="id-657bb04c-104e-4a73-9272-76663ed2f9be">
        <path
           style="stroke:none"
           d="m 2.328125,-4.4375 c 0,-0.1875 0,-0.1875 -0.203125,-0.1875 -0.453125,0.4375 -1.078125,0.4375 -1.359375,0.4375 v 0.25 c 0.15625,0 0.625,0 1,-0.1875 v 3.546875 c 0,0.234375 0,0.328125 -0.6875,0.328125 H 0.8125 V 0 c 0.125,0 0.984375,-0.03125 1.234375,-0.03125 0.21875,0 1.09375,0.03125 1.25,0.03125 V -0.25 H 3.03125 c -0.703125,0 -0.703125,-0.09375 -0.703125,-0.328125 z m 0,0"
           id="id-3416e768-e716-47c1-9d67-6843b7105d87" />
      </symbol>
    </g>
  </defs>
  <sodipodi:namedview
     id="namedview21497"
     pagecolor="#ffffff"
     bordercolor="#666666"
     borderopacity="1.0"
     inkscape:showpageshadow="2"
     inkscape:pageopacity="0.0"
     inkscape:pagecheckerboard="0"
     inkscape:deskcolor="#d1d1d1"
     showgrid="false"
     inkscape:zoom="1.4142136"
     inkscape:cx="356.73536"
     inkscape:cy="307.23789"
     inkscape:window-width="1850"
     inkscape:window-height="1016"
     inkscape:window-x="1990"
     inkscape:window-y="27"
     inkscape:window-maximized="1"
     inkscape:current-layer="g21503">
    <inkscape:page
       x="0"
       y="0"
       id="page21501"
       width="704.59595"
       height="571.64215" />
  </sodipodi:namedview>
  <g
     id="g21503"
     inkscape:groupmode="layer"
     inkscape:label="Page 1"
     transform="matrix(1.3333333,0,0,1.3333333,64.267572,4.0021697)">
    <g
       id="g21507">
      <path
         d="m 305.676,87.801 h 68.523 v 56.281 h -68.523 z"
         style="fill:#ffffff;fill-opacity:1;fill-rule:evenodd;stroke:#000000;stroke-width:2.24997;stroke-linecap:butt;stroke-linejoin:miter;stroke-miterlimit:10;stroke-dasharray:none;stroke-opacity:1"
         id="path21509" />
    </g>
    <path
       d="m 104.973,165.422 v 28.019 h -2.25 v -28.019 z m 2.25,26.887 -3.371,6.75 -3.379,-6.75 z"
       style="fill:#000000;fill-opacity:1;fill-rule:nonzero;stroke:none"
       id="path21511"
       sodipodi:nodetypes="ccccccccc" />
    <path
       d="m 0,114.16 h 62.879 v 2.25 H 0 Z m 61.75,-2.25 6.75,3.383 -6.75,3.367 z"
       style="fill:#000000;fill-opacity:1;fill-rule:nonzero;stroke:none"
       id="path21513" />
    <path
       d="m 373.527,117.242 h 62.879 v 2.25 h -62.879 z m 61.75,-2.25 6.75,3.383 -6.75,3.367 z"
       style="fill:#000000;fill-opacity:1;fill-rule:nonzero;stroke:none"
       id="path21515" />
    <path
       d="m 68.52,115.293 c 0,-13.32 10.8,-24.121 24.121,-24.121 13.32,0 24.121,10.801 24.121,24.121 0,13.32 -10.801,24.117 -24.121,24.117 -13.321,0 -24.121,-10.797 -24.121,-24.117 z"
       style="fill:#ffffff;fill-opacity:1;fill-rule:evenodd;stroke:none"
       id="path21517" />
    <g
       id="g21519">
      <path
         d="m 69.461,87.129 h 68.52 v 56.281 h -68.52 z"
         style="fill:#ffffff;fill-opacity:1;fill-rule:evenodd;stroke:#000000;stroke-width:2.24997;stroke-linecap:butt;stroke-linejoin:miter;stroke-miterlimit:10;stroke-dasharray:none;stroke-opacity:1"
         id="path21521" />
    </g>
    <path
       d="m 138.18,115.602 160.738,0.011 v 2.25 L 138.18,117.852 Z m 159.621,-2.239 6.75,3.367 -6.75,3.383 z"
       style="fill:#000000;fill-opacity:1;fill-rule:nonzero;stroke:none"
       id="path21523" />
    <path
       d="m 104.688,32.934 v 49.019 h -2.25 V 32.934 Z m 2.25,47.886 -3.372,6.75 -3.378,-6.75 z"
       style="fill:#000000;fill-opacity:1;fill-rule:nonzero;stroke:none"
       id="path21525" />
    <g
       id="g21527">
      <path
         d="m 103.5,-3 0.094,64.984"
         style="fill:none;stroke:#000000;stroke-width:2.24999;stroke-linecap:butt;stroke-linejoin:miter;stroke-miterlimit:4;stroke-dasharray:6.74999, 2.24999;stroke-dashoffset:0;stroke-opacity:1"
         id="path21529" />
    </g>
    <path
       d="m 86.43,119.699 h -1.375 v 0.938 c 0.562,-0.032 1.75,-0.063 2.5,-0.063 0.781,0 1.968,0.031 2.5,0.063 v -0.938 H 88.68 v -4.156 c 0,-2.188 1.718,-3.156 3,-3.156 0.656,0 1.093,0.406 1.093,1.937 v 5.375 h -1.375 v 0.938 c 0.532,-0.032 1.75,-0.063 2.5,-0.063 0.782,0 1.969,0.031 2.5,0.063 v -0.938 h -1.375 v -5.156 c 0,-2.094 -1.062,-2.875 -3.062,-2.875 -1.906,0 -2.938,1.156 -3.375,1.937 v -6.812 l -3.531,0.156 v 0.938 c 1.218,0 1.375,0 1.375,0.781 z"
       style="fill:#000000;fill-opacity:1;fill-rule:nonzero;stroke:none"
       id="path21531" />
    <path
       d="m 100.316,118.125 h 1.407 c 0.281,0 0.437,0 0.437,-0.313 0,-0.187 -0.156,-0.187 -0.406,-0.187 h -1.313 l 0.5,-2.063 c 0.032,-0.062 0.063,-0.156 0.063,-0.187 0,-0.281 -0.219,-0.469 -0.5,-0.469 -0.344,0 -0.531,0.25 -0.656,0.594 -0.094,0.375 0.093,-0.312 -0.532,2.125 H 97.91 c -0.25,0 -0.437,0 -0.437,0.313 0,0.187 0.156,0.187 0.406,0.187 h 1.312 l -0.812,3.281 c -0.094,0.344 -0.219,0.844 -0.219,1.032 0,0.812 0.719,1.312 1.5,1.312 1.563,0 2.438,-1.938 2.438,-2.125 0,-0.187 -0.188,-0.187 -0.219,-0.187 -0.188,0 -0.188,0.031 -0.313,0.281 -0.375,0.875 -1.093,1.656 -1.843,1.656 -0.313,0 -0.5,-0.187 -0.5,-0.687 0,-0.126 0.062,-0.438 0.093,-0.563 z"
       style="fill:#000000;fill-opacity:1;fill-rule:nonzero;stroke:none"
       id="path21533" />
    <path
       d="m 113.273,120.469 c 0.219,0 0.563,0 0.563,-0.313 0,-0.375 -0.344,-0.375 -0.563,-0.375 h -8.312 c -0.219,0 -0.563,0 -0.563,0.344 0,0.344 0.313,0.344 0.563,0.344 z"
       style="fill:#000000;fill-opacity:1;fill-rule:nonzero;stroke:none"
       id="path21535" />
    <path
       d="m 122.387,121.094 h -0.469 c -0.031,0.312 -0.188,1.125 -0.375,1.25 -0.094,0.094 -1.156,0.094 -1.375,0.094 h -2.563 c 1.469,-1.282 1.969,-1.688 2.782,-2.344 1.031,-0.813 2,-1.688 2,-3 0,-1.688 -1.469,-2.719 -3.25,-2.719 -1.719,0 -2.907,1.219 -2.907,2.5 0,0.687 0.594,0.781 0.75,0.781 0.313,0 0.719,-0.25 0.719,-0.75 0,-0.25 -0.094,-0.75 -0.812,-0.75 0.437,-0.968 1.375,-1.281 2.031,-1.281 1.406,0 2.125,1.094 2.125,2.219 0,1.218 -0.875,2.156 -1.313,2.656 l -3.343,3.344 c -0.157,0.125 -0.157,0.156 -0.157,0.531 h 5.75 z"
       style="fill:#000000;fill-opacity:1;fill-rule:nonzero;stroke:none"
       id="path21537" />
    <path
       d="m 332.27,114.559 c 0,-2.688 -1.844,-4.688 -5.094,-4.688 -3.281,0 -5.094,2.031 -5.094,4.688 0,2.468 1.781,4.468 5.094,4.468 3.344,0 5.094,-2.031 5.094,-4.468 z m -5.094,3.656 c -2.531,0 -2.531,-2.156 -2.531,-3.875 0,-0.906 0,-1.906 0.343,-2.594 0.375,-0.75 1.219,-1.156 2.188,-1.156 0.844,0 1.687,0.312 2.125,1 0.406,0.687 0.406,1.781 0.406,2.75 0,1.719 0,3.875 -2.531,3.875 z"
       style="fill:#000000;fill-opacity:1;fill-rule:nonzero;stroke:none"
       id="path21539" />
    <path
       d="m 336.352,116.391 h 1.406 c 0.281,0 0.437,0 0.437,-0.313 0,-0.187 -0.156,-0.187 -0.406,-0.187 h -1.312 l 0.5,-2.063 c 0.031,-0.062 0.062,-0.156 0.062,-0.187 0,-0.282 -0.219,-0.469 -0.5,-0.469 -0.344,0 -0.531,0.25 -0.656,0.594 -0.094,0.375 0.094,-0.313 -0.531,2.125 h -1.407 c -0.25,0 -0.437,0 -0.437,0.312 0,0.188 0.156,0.188 0.406,0.188 h 1.313 l -0.813,3.281 c -0.094,0.344 -0.219,0.844 -0.219,1.031 0,0.813 0.719,1.313 1.5,1.313 1.563,0 2.438,-1.938 2.438,-2.125 0,-0.188 -0.188,-0.188 -0.219,-0.188 -0.187,0 -0.187,0.031 -0.312,0.281 -0.375,0.875 -1.094,1.657 -1.844,1.657 -0.313,0 -0.5,-0.188 -0.5,-0.688 0,-0.125 0.062,-0.437 0.094,-0.562 z"
       style="fill:#000000;fill-opacity:1;fill-rule:nonzero;stroke:none"
       id="path21541" />
    <path
       d="m 349.309,118.734 c 0.218,0 0.562,0 0.562,-0.312 0,-0.375 -0.344,-0.375 -0.562,-0.375 h -8.313 c -0.219,0 -0.562,0 -0.562,0.344 0,0.343 0.312,0.343 0.562,0.343 z"
       style="fill:#000000;fill-opacity:1;fill-rule:nonzero;stroke:none"
       id="path21543" />
    <g
       id="g21547"
       clip-path="url(#clipPath21551)">
      <g
         id="g21553">
        <g
           id="g21555">
          <g
             id="g21557"
             clip-path="url(#clipPath21561)">
            <g
               id="g21563">
              <path
                 d="m 358.418,119.359 h -0.469 c -0.031,0.313 -0.187,1.125 -0.375,1.25 -0.094,0.094 -1.156,0.094 -1.375,0.094 h -2.562 c 1.468,-1.281 1.968,-1.687 2.781,-2.344 1.031,-0.812 2,-1.687 2,-3 0,-1.687 -1.469,-2.718 -3.25,-2.718 -1.719,0 -2.906,1.218 -2.906,2.5 0,0.687 0.593,0.781 0.75,0.781 0.312,0 0.718,-0.25 0.718,-0.75 0,-0.25 -0.093,-0.75 -0.812,-0.75 0.437,-0.969 1.375,-1.281 2.031,-1.281 1.406,0 2.125,1.093 2.125,2.218 0,1.219 -0.875,2.157 -1.312,2.657 l -3.344,3.343 c -0.156,0.125 -0.156,0.157 -0.156,0.532 h 5.75 z"
                 style="fill:#000000;fill-opacity:1;fill-rule:nonzero;stroke:none"
                 id="path21565" />
            </g>
          </g>
        </g>
      </g>
    </g>
    <path
       d="m 0,227.289 h 62.879 v 2.25 H 0 Z m 61.75,-2.25 6.75,3.383 -6.75,3.367 z"
       style="fill:#000000;fill-opacity:1;fill-rule:nonzero;stroke:none"
       id="path21569" />
    <g
       id="g21571">
      <path
         d="m 305.676,200.461 h 68.523 v 56.281 h -68.523 z"
         style="fill:#ffffff;fill-opacity:1;fill-rule:evenodd;stroke:#000000;stroke-width:2.24997;stroke-linecap:butt;stroke-linejoin:miter;stroke-miterlimit:10;stroke-dasharray:none;stroke-opacity:1"
         id="path21573" />
    </g>
    <path
       d="m 104.859,278.816 v 28.02 h -2.25 v -28.02 z m 2.25,26.887 -3.371,6.75 -3.379,-6.75 z"
       style="fill:#000000;fill-opacity:1;fill-rule:nonzero;stroke:none"
       id="path21575"
       sodipodi:nodetypes="ccccccccc" />
    <path
       d="m 373.527,227.477 h 62.879 v 2.25 h -62.879 z m 61.75,-2.25 6.75,3.382 -6.75,3.368 z"
       style="fill:#000000;fill-opacity:1;fill-rule:nonzero;stroke:none"
       id="path21577" />
    <g
       id="g21579">
      <path
         d="m 69.477,200.461 h 68.52 v 56.281 h -68.52 z"
         style="fill:#ffffff;fill-opacity:1;fill-rule:evenodd;stroke:#000000;stroke-width:2.24997;stroke-linecap:butt;stroke-linejoin:miter;stroke-miterlimit:10;stroke-dasharray:none;stroke-opacity:1"
         id="path21581" />
    </g>
    <path
       d="m 138.18,227.465 160.738,0.012 v 2.25 L 138.18,229.715 Z m 159.621,-2.238 6.75,3.367 -6.75,3.383 z"
       style="fill:#000000;fill-opacity:1;fill-rule:nonzero;stroke:none"
       id="path21583" />
    <path
       d="m 86.664,233.027 h -1.375 v 0.938 c 0.563,-0.031 1.75,-0.063 2.5,-0.063 0.781,0 1.969,0.032 2.5,0.063 v -0.938 h -1.375 v -4.156 c 0,-2.187 1.719,-3.156 3,-3.156 0.656,0 1.094,0.406 1.094,1.937 v 5.375 h -1.375 v 0.938 c 0.531,-0.031 1.75,-0.063 2.5,-0.063 0.781,0 1.969,0.032 2.5,0.063 v -0.938 h -1.375 v -5.156 c 0,-2.094 -1.063,-2.875 -3.063,-2.875 -1.906,0 -2.937,1.156 -3.375,1.938 v -6.813 l -3.531,0.156 v 0.938 c 1.219,0 1.375,0 1.375,0.781 z"
       style="fill:#000000;fill-opacity:1;fill-rule:nonzero;stroke:none"
       id="path21585" />
    <path
       d="m 100.551,231.453 h 1.406 c 0.281,0 0.438,0 0.438,-0.312 0,-0.188 -0.157,-0.188 -0.407,-0.188 h -1.312 l 0.5,-2.062 c 0.031,-0.063 0.062,-0.157 0.062,-0.188 0,-0.281 -0.218,-0.469 -0.5,-0.469 -0.343,0 -0.531,0.25 -0.656,0.594 -0.094,0.375 0.094,-0.312 -0.531,2.125 h -1.406 c -0.25,0 -0.438,0 -0.438,0.313 0,0.187 0.156,0.187 0.406,0.187 h 1.313 l -0.813,3.281 c -0.093,0.344 -0.218,0.844 -0.218,1.032 0,0.812 0.718,1.312 1.5,1.312 1.562,0 2.437,-1.937 2.437,-2.125 0,-0.187 -0.187,-0.187 -0.219,-0.187 -0.187,0 -0.187,0.031 -0.312,0.281 -0.375,0.875 -1.094,1.656 -1.844,1.656 -0.312,0 -0.5,-0.187 -0.5,-0.687 0,-0.125 0.063,-0.438 0.094,-0.563 z"
       style="fill:#000000;fill-opacity:1;fill-rule:nonzero;stroke:none"
       id="path21587" />
    <path
       d="m 113.508,233.797 c 0.219,0 0.562,0 0.562,-0.313 0,-0.375 -0.343,-0.375 -0.562,-0.375 h -8.313 c -0.218,0 -0.562,0 -0.562,0.344 0,0.344 0.312,0.344 0.562,0.344 z"
       style="fill:#000000;fill-opacity:1;fill-rule:nonzero;stroke:none"
       id="path21589" />
    <path
       d="m 120.242,228.078 c 0,-0.375 0,-0.375 -0.406,-0.375 -0.906,0.875 -2.156,0.875 -2.719,0.875 v 0.5 c 0.313,0 1.25,0 2,-0.375 v 7.094 c 0,0.469 0,0.656 -1.375,0.656 h -0.531 v 0.5 c 0.25,0 1.969,-0.062 2.469,-0.062 0.437,0 2.187,0.062 2.5,0.062 v -0.5 h -0.532 c -1.406,0 -1.406,-0.187 -1.406,-0.656 z"
       style="fill:#000000;fill-opacity:1;fill-rule:nonzero;stroke:none"
       id="path21591" />
    <path
       d="m 332.27,227.215 c 0,-2.688 -1.844,-4.688 -5.094,-4.688 -3.281,0 -5.094,2.032 -5.094,4.688 0,2.469 1.781,4.469 5.094,4.469 3.344,0 5.094,-2.032 5.094,-4.469 z m -5.094,3.656 c -2.531,0 -2.531,-2.156 -2.531,-3.875 0,-0.906 0,-1.906 0.343,-2.594 0.375,-0.75 1.219,-1.156 2.188,-1.156 0.844,0 1.687,0.313 2.125,1 0.406,0.688 0.406,1.781 0.406,2.75 0,1.719 0,3.875 -2.531,3.875 z"
       style="fill:#000000;fill-opacity:1;fill-rule:nonzero;stroke:none"
       id="path21593" />
    <path
       d="m 336.352,229.047 h 1.406 c 0.281,0 0.437,0 0.437,-0.313 0,-0.187 -0.156,-0.187 -0.406,-0.187 h -1.312 l 0.5,-2.063 c 0.031,-0.062 0.062,-0.156 0.062,-0.187 0,-0.281 -0.219,-0.469 -0.5,-0.469 -0.344,0 -0.531,0.25 -0.656,0.594 -0.094,0.375 0.094,-0.313 -0.531,2.125 h -1.407 c -0.25,0 -0.437,0 -0.437,0.312 0,0.188 0.156,0.188 0.406,0.188 h 1.313 l -0.813,3.281 c -0.094,0.344 -0.219,0.844 -0.219,1.031 0,0.813 0.719,1.313 1.5,1.313 1.563,0 2.438,-1.938 2.438,-2.125 0,-0.188 -0.188,-0.188 -0.219,-0.188 -0.187,0 -0.187,0.036 -0.312,0.286 -0.375,0.871 -1.094,1.652 -1.844,1.652 -0.313,0 -0.5,-0.188 -0.5,-0.688 0,-0.125 0.062,-0.437 0.094,-0.562 z"
       style="fill:#000000;fill-opacity:1;fill-rule:nonzero;stroke:none"
       id="path21595" />
    <path
       d="m 349.309,231.395 c 0.218,0 0.562,0 0.562,-0.317 0,-0.375 -0.344,-0.375 -0.562,-0.375 h -8.313 c -0.219,0 -0.562,0 -0.562,0.344 0,0.348 0.312,0.348 0.562,0.348 z"
       style="fill:#000000;fill-opacity:1;fill-rule:nonzero;stroke:none"
       id="path21597" />
    <g
       id="g21601"
       clip-path="url(#clipPath21605)">
      <g
         id="g21607">
        <g
           id="g21609">
          <g
             id="g21611"
             clip-path="url(#clipPath21615)">
            <g
               id="g21617">
              <path
                 d="m 356.043,225.672 c 0,-0.375 0,-0.375 -0.406,-0.375 -0.907,0.875 -2.157,0.875 -2.719,0.875 v 0.5 c 0.312,0 1.25,0 2,-0.375 v 7.098 c 0,0.464 0,0.652 -1.375,0.652 h -0.531 v 0.5 c 0.25,0 1.968,-0.063 2.468,-0.063 0.438,0 2.188,0.063 2.5,0.063 v -0.5 h -0.531 c -1.406,0 -1.406,-0.188 -1.406,-0.652 z"
                 style="fill:#000000;fill-opacity:1;fill-rule:nonzero;stroke:none"
                 id="path21619" />
            </g>
          </g>
        </g>
      </g>
    </g>
    <path
       d="m 0,340.422 h 62.879 v 2.25 H 0 Z m 61.75,-2.25 6.75,3.379 -6.75,3.371 z"
       style="fill:#000000;fill-opacity:1;fill-rule:nonzero;stroke:none"
       id="path21623" />
    <g
       id="g21625">
      <path
         d="m 305.344,313.738 h 68.523 v 56.281 h -68.523 z"
         style="fill:#ffffff;fill-opacity:1;fill-rule:evenodd;stroke:#000000;stroke-width:2.24997;stroke-linecap:butt;stroke-linejoin:miter;stroke-miterlimit:10;stroke-dasharray:none;stroke-opacity:1"
         id="path21627" />
    </g>
    <path
       d="m 104.527,392.094 v 28.019 h -2.25 v -28.019 z m 2.25,26.886 -3.371,6.75 -3.379,-6.75 z"
       style="fill:#000000;fill-opacity:1;fill-rule:nonzero;stroke:none"
       id="path21629"
       sodipodi:nodetypes="ccccccccc" />
    <path
       d="m 373.195,340.754 h 62.879 v 2.25 h -62.879 z m 61.75,-2.25 6.75,3.383 -6.75,3.367 z"
       style="fill:#000000;fill-opacity:1;fill-rule:nonzero;stroke:none"
       id="path21631" />
    <g
       id="g21633">
      <path
         d="m 69.145,313.738 h 68.52 v 56.281 h -68.52 z"
         style="fill:#ffffff;fill-opacity:1;fill-rule:evenodd;stroke:#000000;stroke-width:2.24997;stroke-linecap:butt;stroke-linejoin:miter;stroke-miterlimit:10;stroke-dasharray:none;stroke-opacity:1"
         id="path21635" />
    </g>
    <path
       d="m 137.848,340.742 160.738,0.012 v 2.25 l -160.738,-0.012 z m 159.621,-2.238 6.75,3.367 -6.75,3.383 z"
       style="fill:#000000;fill-opacity:1;fill-rule:nonzero;stroke:none"
       id="path21637" />
    <path
       d="m 341.738,340.492 c 0,-2.687 -1.843,-4.687 -5.093,-4.687 -3.282,0 -5.094,2.031 -5.094,4.687 0,2.469 1.777,4.469 5.094,4.469 3.343,0 5.093,-2.031 5.093,-4.469 z m -5.093,3.656 c -2.532,0 -2.532,-2.156 -2.532,-3.875 0,-0.906 0,-1.906 0.34,-2.593 0.375,-0.75 1.223,-1.157 2.192,-1.157 0.843,0 1.683,0.313 2.125,1 0.406,0.688 0.406,1.782 0.406,2.75 0,1.719 0,3.875 -2.531,3.875 z"
       style="fill:#000000;fill-opacity:1;fill-rule:nonzero;stroke:none"
       id="path21639" />
    <path
       d="m 345.82,342.324 h 1.407 c 0.281,0 0.433,0 0.433,-0.312 0,-0.188 -0.152,-0.188 -0.402,-0.188 h -1.313 l 0.5,-2.062 c 0.032,-0.063 0.063,-0.157 0.063,-0.188 0,-0.281 -0.223,-0.469 -0.5,-0.469 -0.348,0 -0.531,0.25 -0.656,0.594 -0.094,0.375 0.093,-0.312 -0.532,2.125 h -1.41 c -0.25,0 -0.433,0 -0.433,0.313 0,0.187 0.156,0.187 0.406,0.187 h 1.312 l -0.812,3.281 c -0.098,0.344 -0.223,0.844 -0.223,1.032 0,0.812 0.723,1.312 1.5,1.312 1.567,0 2.442,-1.937 2.442,-2.125 0,-0.187 -0.192,-0.187 -0.219,-0.187 -0.188,0 -0.188,0.031 -0.313,0.281 -0.375,0.875 -1.093,1.656 -1.843,1.656 -0.317,0 -0.5,-0.187 -0.5,-0.687 0,-0.125 0.058,-0.438 0.093,-0.563 z"
       style="fill:#000000;fill-opacity:1;fill-rule:nonzero;stroke:none"
       id="path21641" />
    <path
       d="m 96.227,346.305 h -1.375 v 0.937 c 0.562,-0.031 1.75,-0.062 2.5,-0.062 0.781,0 1.968,0.031 2.5,0.062 v -0.937 h -1.375 v -4.157 c 0,-2.187 1.718,-3.156 3,-3.156 0.656,0 1.093,0.406 1.093,1.938 v 5.375 h -1.375 v 0.937 c 0.532,-0.031 1.75,-0.062 2.5,-0.062 0.782,0 1.969,0.031 2.5,0.062 v -0.937 h -1.375 v -5.157 c 0,-2.093 -1.062,-2.875 -3.062,-2.875 -1.906,0 -2.938,1.157 -3.375,1.938 v -6.813 l -3.531,0.157 v 0.937 c 1.218,0 1.375,0 1.375,0.781 z"
       style="fill:#000000;fill-opacity:1;fill-rule:nonzero;stroke:none"
       id="path21643" />
    <path
       d="m 110.113,344.73 h 1.407 c 0.281,0 0.437,0 0.437,-0.312 0,-0.188 -0.156,-0.188 -0.406,-0.188 h -1.313 l 0.5,-2.062 c 0.032,-0.063 0.063,-0.156 0.063,-0.188 0,-0.281 -0.219,-0.468 -0.5,-0.468 -0.344,0 -0.531,0.25 -0.656,0.593 -0.094,0.375 0.093,-0.312 -0.532,2.125 h -1.406 c -0.25,0 -0.437,0 -0.437,0.313 0,0.187 0.156,0.187 0.406,0.187 h 1.312 l -0.812,3.282 c -0.094,0.343 -0.219,0.843 -0.219,1.031 0,0.812 0.719,1.312 1.5,1.312 1.563,0 2.438,-1.937 2.438,-2.125 0,-0.187 -0.188,-0.187 -0.219,-0.187 -0.188,0 -0.188,0.031 -0.313,0.281 -0.375,0.875 -1.093,1.656 -1.843,1.656 -0.313,0 -0.5,-0.187 -0.5,-0.687 0,-0.125 0.062,-0.438 0.093,-0.563 z"
       style="fill:#000000;fill-opacity:1;fill-rule:nonzero;stroke:none"
       id="path21645" />
    <path
       d="m -41.7317,111.17386 2.312,-2.594 c 0.281,-0.281 0.407,-0.406 2.03099,-0.406 v -0.93699 c -0.687,0.031 -1.71799,0.062 -1.81199,0.062 -0.5,0 -1.5,-0.062 -2.062,-0.062 v 0.93699 c 0.281,0 0.531,0.031 0.75,0.156 -0.063,0.125 -0.063,0.188 -0.157,0.25 l -1.656,1.875 -1.96899,-2.281 h 0.813 v -0.93699 c -0.531,0 -1.781,0.062 -2.438,0.062 -0.625,0 -1.53099,-0.062 -2.18699,-0.062 v 0.93699 h 1.437 l 3.09399,3.65599 -2.625,2.938 c -0.312,0.375 -1.03099,0.375 -1.99999,0.375 v 0.93699 c 0.688,-0.031 1.74999,-0.062 1.84399,-0.062 0.5,0 1.656,0.031 2.031,0.062 v -0.93699 c -0.344,0 -0.719,-0.094 -0.719,-0.219 0,-0.031 0,-0.031 0.125,-0.187 l 1.938,-2.188 2.18699,2.594 h -0.781 v 0.93699 c 0.531,-0.031 1.75,-0.062 2.406,-0.062 0.625,0 1.53099,0.031 2.18799,0.062 v -0.93699 h -1.407 z"
       style="fill:#000000;fill-opacity:1;fill-rule:nonzero;stroke:none;stroke-width:0.999997"
       id="path706" />
    <path
       d="m -33.10672,113.56485 h 1.406 c 0.281,0 0.438,0 0.438,-0.313 0,-0.187 -0.157,-0.187 -0.407,-0.187 h -1.312 l 0.5,-2.06299 c 0.031,-0.062 0.062,-0.156 0.062,-0.187 0,-0.282 -0.219,-0.469 -0.5,-0.469 -0.343,0 -0.531,0.25 -0.656,0.594 -0.094,0.375 0.094,-0.313 -0.531,2.12499 h -1.40599 c -0.25,0 -0.438,0 -0.438,0.312 0,0.188 0.156,0.188 0.406,0.188 h 1.31299 l -0.81299,3.28099 c -0.094,0.344 -0.218,0.844 -0.218,1.031 0,0.813 0.71799,1.313 1.49999,1.313 1.562,0 2.437,-1.938 2.437,-2.125 0,-0.188 -0.187,-0.188 -0.219,-0.188 -0.187,0 -0.187,0.031 -0.312,0.281 -0.375,0.875 -1.094,1.657 -1.844,1.657 -0.312,0 -0.5,-0.188 -0.5,-0.688 0,-0.125 0.062,-0.437 0.094,-0.562 z"
       style="fill:#000000;fill-opacity:1;fill-rule:nonzero;stroke:none;stroke-width:0.999997"
       id="path708" />
    <path
       d="m -20.149753,115.90784 c 0.219,0 0.561999,0 0.561999,-0.31199 0,-0.375 -0.342999,-0.375 -0.561999,-0.375 h -8.312977 c -0.218,0 -0.562,0 -0.562,0.344 0,0.34299 0.312,0.34299 0.562,0.34299 z"
       style="fill:#000000;fill-opacity:1;fill-rule:nonzero;stroke:none;stroke-width:0.999997"
       id="path710" />
    <path
       d="m -11.040775,116.53284 h -0.468999 c -0.031,0.313 -0.187,1.125 -0.374999,1.25 -0.093,0.094 -1.155997,0.094 -1.374997,0.094 h -2.561993 c 1.468996,-1.281 1.968995,-1.687 2.780993,-2.34399 1.030997,-0.812 1.999995,-1.687 1.999995,-3 0,-1.68699 -1.468997,-2.71799 -3.249992,-2.71799 -1.718996,0 -2.905993,1.218 -2.905993,2.49999 0,0.687 0.593999,0.781 0.749998,0.781 0.311999,0 0.718998,-0.25 0.718998,-0.75 0,-0.25 -0.094,-0.75 -0.812998,-0.75 0.437999,-0.96899 1.374997,-1.28099 2.030995,-1.28099 1.406997,0 2.124995,1.093 2.124995,2.21799 0,1.219 -0.874998,2.157 -1.311997,2.657 l -3.343991,3.34299 c -0.156,0.125 -0.156,0.157 -0.156,0.532 h 5.749986 z"
       style="fill:#000000;fill-opacity:1;fill-rule:nonzero;stroke:none;stroke-width:0.999997"
       id="path712" />
    <path
       d="m -41.2947,224.30243 2.313,-2.59399 c 0.281,-0.281 0.406,-0.406 2.03099,-0.406 v -0.937 c -0.688,0.031 -1.71899,0.062 -1.81199,0.062 -0.5,0 -1.5,-0.062 -2.063,-0.062 v 0.937 c 0.281,0 0.531,0.031 0.75,0.156 -0.063,0.125 -0.063,0.188 -0.156,0.25 l -1.657,1.875 -1.96799,-2.281 h 0.812 v -0.937 c -0.531,0 -1.781,0.062 -2.437,0.062 -0.625,0 -1.53099,-0.062 -2.18799,-0.062 v 0.937 h 1.43799 l 3.093,3.65599 -2.624,2.938 c -0.313,0.375 -1.03199,0.375 -1.99999,0.375 v 0.93699 c 0.687,-0.031 1.74999,-0.062 1.84299,-0.062 0.5,0 1.657,0.031 2.031,0.062 v -0.93699 c -0.343,0 -0.718,-0.094 -0.718,-0.219 0,-0.031 0,-0.031 0.125,-0.187 l 1.93699,-2.188 2.188,2.594 h -0.782 v 0.93699 c 0.532,-0.031 1.75,-0.062 2.407,-0.062 0.62499,0 1.53099,0.031 2.18699,0.062 v -0.93699 h -1.406 z"
       style="fill:#000000;fill-opacity:1;fill-rule:nonzero;stroke:none;stroke-width:0.999997"
       id="path714" />
    <path
       d="m -32.66972,226.69743 h 1.407 c 0.281,0 0.437,0 0.437,-0.313 0,-0.187 -0.156,-0.187 -0.406,-0.187 h -1.313 l 0.5,-2.06299 c 0.032,-0.062 0.063,-0.156 0.063,-0.187 0,-0.282 -0.219,-0.469 -0.5,-0.469 -0.344,0 -0.531,0.25 -0.657,0.594 -0.093,0.37499 0.094,-0.313 -0.531,2.12499 h -1.40599 c -0.25,0 -0.437,0 -0.437,0.312 0,0.188 0.156,0.188 0.406,0.188 h 1.31199 l -0.81199,3.28099 c -0.094,0.344 -0.219,0.844 -0.219,1.031 0,0.813 0.71899,1.313 1.49999,1.313 1.563,0 2.437,-1.938 2.437,-2.125 0,-0.188 -0.187,-0.188 -0.218,-0.188 -0.188,0 -0.188,0.031 -0.313,0.281 -0.375,0.875 -1.093,1.657 -1.843,1.657 -0.313,0 -0.5,-0.188 -0.5,-0.688 0,-0.125 0.062,-0.437 0.093,-0.562 z"
       style="fill:#000000;fill-opacity:1;fill-rule:nonzero;stroke:none;stroke-width:0.999997"
       id="path716" />
    <path
       d="m -19.712754,229.04042 c 0.219,0 0.562999,0 0.562999,-0.312 0,-0.375 -0.343999,-0.375 -0.562999,-0.375 h -8.311976 c -0.219,0 -0.563,0 -0.563,0.344 0,0.343 0.313,0.343 0.563,0.343 z"
       style="fill:#000000;fill-opacity:1;fill-rule:nonzero;stroke:none;stroke-width:0.999997"
       id="path718" />
    <path
       d="m -12.97777,223.32244 c 0,-0.375 0,-0.375 -0.406999,-0.375 -0.905998,0.875 -2.155995,0.875 -2.717994,0.875 v 0.49999 c 0.312,0 1.249997,0 1.999995,-0.37499 v 7.09298 c 0,0.469 0,0.657 -1.374996,0.657 h -0.531999 v 0.5 c 0.249999,0 1.968995,-0.063 2.468994,-0.063 0.437999,0 2.187995,0.063 2.499994,0.063 v -0.5 h -0.530999 c -1.405996,0 -1.405996,-0.188 -1.405996,-0.657 z"
       style="fill:#000000;fill-opacity:1;fill-rule:nonzero;stroke:none;stroke-width:0.999997"
       id="path720" />
    <path
       d="m -21.509749,337.43102 2.312994,-2.59399 c 0.280999,-0.281 0.405999,-0.406 2.030995,-0.406 v -0.938 c -0.686998,0.032 -1.718996,0.063 -1.811996,0.063 -0.499998,0 -1.499996,-0.063 -2.062994,-0.063 v 0.938 c 0.280999,0 0.530998,0.031 0.749998,0.156 -0.062,0.125 -0.062,0.188 -0.156,0.25 l -1.655996,1.875 -1.968995,-2.281 h 0.811998 v -0.938 c -0.530998,0 -1.780995,0.063 -2.436993,0.063 -0.624999,0 -1.530996,-0.063 -2.187994,-0.063 v 0.938 h 1.437996 l 3.093992,3.65599 -2.624994,2.938 c -0.312999,0.37499 -1.031997,0.37499 -1.999994,0.37499 v 0.937 c 0.686998,-0.031 1.749995,-0.062 1.842995,-0.062 0.499999,0 1.656995,0.031 2.031995,0.062 v -0.937 c -0.344,0 -0.718998,-0.094 -0.718998,-0.21899 0,-0.031 0,-0.031 0.124999,-0.188 l 1.936995,-2.187 2.187994,2.59399 h -0.780998 v 0.937 c 0.530999,-0.031 1.749996,-0.062 2.405994,-0.062 0.624999,0 1.530997,0.031 2.186995,0.062 v -0.937 h -1.405997 z"
       style="fill:#000000;fill-opacity:1;fill-rule:nonzero;stroke:none;stroke-width:0.999997"
       id="path722" />
    <path
       d="m -12.884771,339.82502 h 1.406997 c 0.280999,0 0.436999,0 0.436999,-0.312 0,-0.188 -0.156,-0.188 -0.405999,-0.188 h -1.312997 l 0.499999,-2.062 c 0.032,-0.063 0.063,-0.15599 0.063,-0.18799 0,-0.281 -0.219,-0.468 -0.499999,-0.468 -0.343999,0 -0.530999,0.25 -0.655999,0.59299 -0.094,0.375 0.093,-0.31199 -0.531998,2.125 h -1.405997 c -0.249999,0 -0.436999,0 -0.436999,0.313 0,0.187 0.156,0.187 0.405999,0.187 h 1.311997 l -0.811998,3.28199 c -0.094,0.343 -0.218999,0.843 -0.218999,1.031 0,0.812 0.718998,1.31199 1.499996,1.31199 1.562996,0 2.437994,-1.93699 2.437994,-2.12499 0,-0.187 -0.188,-0.187 -0.219,-0.187 -0.187999,0 -0.187999,0.031 -0.312999,0.281 -0.374999,0.875 -1.092997,1.656 -1.842995,1.656 -0.312999,0 -0.499999,-0.187 -0.499999,-0.687 0,-0.125 0.062,-0.438 0.093,-0.563 z"
       style="fill:#000000;fill-opacity:1;fill-rule:nonzero;stroke:none;stroke-width:0.999997"
       id="path724" />
    <path
       style="fill:none;stroke:#000000;stroke-width:2.4;stroke-linecap:butt;stroke-linejoin:miter;stroke-dasharray:none;stroke-opacity:1"
       d="m 103.85425,166.22222 49.0969,0.0372 0.32887,-50.17044"
       id="path40923"
       sodipodi:nodetypes="ccc" />
    <path
       style="fill:none;stroke:#000000;stroke-width:2.4;stroke-linecap:butt;stroke-linejoin:miter;stroke-dasharray:none;stroke-opacity:1"
       d="m 102.7218,278.87547 49.0969,0.0372 0.32887,-50.17043"
       id="path40923-5"
       sodipodi:nodetypes="ccc" />
    <path
       style="fill:none;stroke:#000000;stroke-width:2.4;stroke-linecap:butt;stroke-linejoin:miter;stroke-dasharray:none;stroke-opacity:1"
       d="m 102.09718,393.12642 49.0969,0.0372 0.32887,-50.17044"
       id="path40923-1"
       sodipodi:nodetypes="ccc" />
    <path
       style="fill:none;stroke:#000000;stroke-width:2.84221;stroke-dasharray:none;stroke-opacity:0.35907069;marker-start:url(#TriangleStart);fill-opacity:1"
       id="path37505"
       sodipodi:type="arc"
       sodipodi:cx="339.81982"
       sodipodi:cy="357.548"
       sodipodi:rx="70.792267"
       sodipodi:ry="75.339172"
       sodipodi:start="3.5122953"
       sodipodi:end="6.0134603"
       sodipodi:open="true"
       sodipodi:arc-type="arc"
       d="m 273.83626,330.25485 a 70.792267,75.339172 0 0 1 69.55626,-47.95001 70.792267,75.339172 0 0 1 64.66002,55.16781" />
    <path
       style="fill:none;stroke:#000000;stroke-width:2.84221;stroke-dasharray:none;stroke-opacity:0.35907069;marker-start:url(#TriangleStart);fill-opacity:1"
       id="path37505-7"
       sodipodi:type="arc"
       sodipodi:cx="337.21579"
       sodipodi:cy="244.58623"
       sodipodi:rx="70.792267"
       sodipodi:ry="75.339172"
       sodipodi:start="3.5122953"
       sodipodi:end="6.0134603"
       sodipodi:open="true"
       sodipodi:arc-type="arc"
       d="m 271.23223,217.29307 a 70.792267,75.339172 0 0 1 69.55626,-47.95001 70.792267,75.339172 0 0 1 64.66002,55.16781" />
    <path
       style="fill:none;stroke:#000000;stroke-width:2.84221;stroke-dasharray:none;stroke-opacity:0.35907069;marker-start:url(#TriangleStart);fill-opacity:1"
       id="path37505-7-3"
       sodipodi:type="arc"
       sodipodi:cx="107.4165"
       sodipodi:cy="245.97873"
       sodipodi:rx="70.792267"
       sodipodi:ry="75.339172"
       sodipodi:start="3.5122953"
       sodipodi:end="6.0134603"
       sodipodi:open="true"
       sodipodi:arc-type="arc"
       d="m 41.432934,218.68557 a 70.792267,75.339172 0 0 1 69.556266,-47.95001 70.792267,75.339172 0 0 1 64.66001,55.16781" />
    <path
       style="fill:none;stroke:#000000;stroke-width:2.84221;stroke-dasharray:none;stroke-opacity:0.35907069;marker-start:url(#TriangleStart);fill-opacity:1"
       id="path37505-7-3-9"
       sodipodi:type="arc"
       sodipodi:cx="106.91138"
       sodipodi:cy="134.28563"
       sodipodi:rx="70.792267"
       sodipodi:ry="75.339172"
       sodipodi:start="3.5122953"
       sodipodi:end="6.0134603"
       sodipodi:open="true"
       sodipodi:arc-type="arc"
       d="M 40.927814,106.99247 A 70.792267,75.339172 0 0 1 110.48408,59.042461 70.792267,75.339172 0 0 1 175.14409,114.21027" />
    <path
       style="fill:none;stroke:#000000;stroke-width:2.84221;stroke-dasharray:none;stroke-opacity:0.35907069;marker-start:url(#TriangleStart);fill-opacity:1"
       id="path37505-7-3-7"
       sodipodi:type="arc"
       sodipodi:cx="107.60417"
       sodipodi:cy="360.48074"
       sodipodi:rx="70.792267"
       sodipodi:ry="75.339172"
       sodipodi:start="3.5122953"
       sodipodi:end="6.0134603"
       sodipodi:open="true"
       sodipodi:arc-type="arc"
       d="m 41.620609,333.18759 a 70.792267,75.339172 0 0 1 69.556261,-47.95002 70.792267,75.339172 0 0 1 64.66002,55.16782" />
    <path
       style="fill:none;stroke:#000000;stroke-width:2.84221;stroke-dasharray:none;stroke-opacity:0.35907069;marker-start:url(#TriangleStart);fill-opacity:1"
       id="path37505-6"
       sodipodi:type="arc"
       sodipodi:cx="340.15778"
       sodipodi:cy="133.21312"
       sodipodi:rx="70.792267"
       sodipodi:ry="75.339172"
       sodipodi:start="3.5122953"
       sodipodi:end="6.0134603"
       sodipodi:open="true"
       sodipodi:arc-type="arc"
       d="m 274.17421,105.91996 a 70.792267,75.339172 0 0 1 69.55627,-47.950009 70.792267,75.339172 0 0 1 64.66001,55.167809" />
    <path
       style="fill:none;stroke:#000000;stroke-width:2.84221;stroke-dasharray:none;stroke-opacity:0.35907069;marker-start:url(#TriangleStart);fill-opacity:1"
       id="path37505-76"
       sodipodi:type="arc"
       sodipodi:cx="288.50681"
       sodipodi:cy="-160.3699"
       sodipodi:rx="70.792267"
       sodipodi:ry="75.339172"
       sodipodi:start="3.9427732"
       sodipodi:end="5.4861287"
       sodipodi:open="true"
       sodipodi:arc-type="arc"
       d="m 239.24534,-214.47685 a 70.792267,75.339172 0 0 1 98.73217,0.21666"
       transform="rotate(90)" />
    <path
       style="fill:none;stroke:#000000;stroke-width:2.84221;stroke-dasharray:none;stroke-opacity:0.35907069;marker-start:url(#TriangleStart);fill-opacity:1"
       id="path37505-76-83"
       sodipodi:type="arc"
       sodipodi:cx="400.79657"
       sodipodi:cy="-160.79893"
       sodipodi:rx="70.792267"
       sodipodi:ry="75.339172"
       sodipodi:start="3.9427732"
       sodipodi:end="5.0592733"
       sodipodi:open="true"
       sodipodi:arc-type="arc"
       d="m 351.53511,-214.90588 a 70.792267,75.339172 0 0 1 73.32866,-16.74476"
       transform="rotate(90)" />
    <path
       style="fill:none;stroke:#000000;stroke-width:2.84221;stroke-dasharray:none;stroke-opacity:0.35907069;marker-start:url(#TriangleStart);fill-opacity:1"
       id="path37505-76-7"
       sodipodi:type="arc"
       sodipodi:cx="174.31561"
       sodipodi:cy="-160.12016"
       sodipodi:rx="70.792267"
       sodipodi:ry="75.339172"
       sodipodi:start="3.9427732"
       sodipodi:end="5.4861287"
       sodipodi:open="true"
       sodipodi:arc-type="arc"
       d="m 125.05415,-214.22711 a 70.792267,75.339172 0 0 1 98.73217,0.21666"
       transform="rotate(90)" />
    <path
       style="fill:none;stroke:#000000;stroke-width:2.84221;stroke-dasharray:none;stroke-opacity:0.35907069;marker-start:url(#TriangleStart);fill-opacity:1"
       id="path37505-76-8"
       sodipodi:type="arc"
       sodipodi:cx="63.749603"
       sodipodi:cy="-160.99884"
       sodipodi:rx="70.792267"
       sodipodi:ry="75.339172"
       sodipodi:start="3.9427732"
       sodipodi:end="5.4861287"
       sodipodi:open="true"
       sodipodi:arc-type="arc"
       d="m 14.488142,-215.10578 a 70.792267,75.339172 0 0 1 98.732168,0.21666"
       transform="rotate(90)" />
    <g
       transform="matrix(1.99999 0 0 1.99999 454.701 333.334)"
       ns4:version="1.8.1"
       ns4:texconverter="pdflatex"
       ns4:pdfconverter="inkscape"
       ns4:text="${\\boldsymbol \\delta}_{t}$"
       ns4:preamble="/home/manel/.config/inkscape/extensions/textext/default_packages.tex"
       ns4:scale="1.999995"
       ns4:alignment="middle center"
       ns4:stroke-to-path="0"
       ns4:inkscapeversion="1.2.2"
       ns4:jacobian_sqrt="1.99999"
       id="g24821-5-6-1">
      <defs
         id="id-4742da2e-470b-466d-94b4-9216a29aec25">
        <g
           id="id-69a9b8c9-9181-4b70-97a1-7082fb34e68d">
          <symbol
             overflow="visible"
             id="id-29b0ce61-7f06-422b-9d66-7077e30643e6">
            <path
               style="stroke:none"
               d=""
               id="id-c96592c2-200a-494a-a64d-379a31024074" />
          </symbol>
          <symbol
             overflow="visible"
             id="id-5bf1135a-4b9e-4ac0-a520-02c106a08efc">
            <path
               style="stroke:none"
               d="m 2.828125,-4.421875 c -1.765625,0.40625 -2.375,1.921875 -2.375,2.8125 0,1.203125 0.96875,1.734375 2.03125,1.734375 C 3.796875,0.125 4.75,-1.46875 4.75,-3.078125 4.75,-3.96875 4.390625,-4.390625 3.984375,-4.78125 3.53125,-5.203125 2.65625,-6.015625 2.65625,-6.375 c 0,-0.046875 0.109375,-0.3125 0.46875,-0.3125 0.328125,0 0.578125,0.171875 0.75,0.296875 0.1875,0.15625 0.484375,0.375 0.703125,0.375 0.3125,0 0.53125,-0.28125 0.53125,-0.53125 0,-0.296875 -0.15625,-0.328125 -0.6875,-0.4375 C 4.203125,-7.03125 3.625,-7.15625 3.359375,-7.15625 c -0.53125,0 -1.125,0.375 -1.125,1.09375 0,0.5625 0.375,1.234375 0.59375,1.640625 z m 0.21875,0.359375 c 0.25,0.390625 0.5625,0.953125 0.5625,1.65625 0,0.4375 -0.265625,2.171875 -1.09375,2.171875 -0.109375,0 -0.484375,-0.03125 -0.765625,-0.28125 C 1.5,-0.75 1.5,-1.125 1.5,-1.25 c 0,-0.515625 0.28125,-1.484375 0.453125,-1.84375 0.140625,-0.265625 0.4375,-0.75 1.09375,-0.96875 z m 0,0"
               id="id-d1854fb7-8949-4e73-84c9-542b3aa8024e" />
          </symbol>
          <symbol
             overflow="visible"
             id="id-795fa53c-fe2c-4506-bcaf-57b2c40a54b3">
            <path
               style="stroke:none"
               d=""
               id="id-bf4c15ac-0964-475c-b6df-7bb228a67f67" />
          </symbol>
          <symbol
             overflow="visible"
             id="id-399b5a05-19b1-4f66-9e8f-bffb636f4aa4">
            <path
               style="stroke:none"
               d="m 1.71875,-2.75 h 0.703125 c 0.140625,0 0.21875,0 0.21875,-0.15625 C 2.640625,-3 2.5625,-3 2.4375,-3 H 1.78125 l 0.25,-1.03125 C 2.046875,-4.0625 2.0625,-4.109375 2.0625,-4.125 c 0,-0.140625 -0.109375,-0.234375 -0.25,-0.234375 -0.171875,0 -0.265625,0.125 -0.328125,0.296875 C 1.4375,-3.875 1.53125,-4.21875 1.21875,-3 H 0.515625 c -0.125,0 -0.21875,0 -0.21875,0.15625 C 0.296875,-2.75 0.375,-2.75 0.5,-2.75 H 1.15625 L 0.75,-1.109375 C 0.703125,-0.9375 0.640625,-0.6875 0.640625,-0.59375 c 0,0.40625 0.359375,0.65625 0.75,0.65625 0.78125,0 1.21875,-0.96875 1.21875,-1.0625 0,-0.09375 -0.09375,-0.09375 -0.109375,-0.09375 -0.09375,0 -0.09375,0.015625 -0.15625,0.140625 -0.1875,0.4375 -0.546875,0.828125 -0.921875,0.828125 -0.15625,0 -0.25,-0.09375 -0.25,-0.34375 0,-0.0625 0.03125,-0.21875 0.046875,-0.28125 z m 0,0"
               id="id-e5559e5b-0b9f-4675-916b-8b7a45de3598" />
          </symbol>
        </g>
      </defs>
      <g
         id="id-d7004559-20a7-4aae-90bc-15631f31329e"
         transform="translate(-149.165, -127.609)">
        <g
           style="fill:#000000;fill-opacity:1"
           id="id-b47eccfc-6427-4821-bfd8-2ff7b923fc60">
          <g
             transform="translate(148.712, 134.765)"
             id="g1483">
            <path
               style="stroke:none"
               d="m 2.828125,-4.421875 c -1.765625,0.40625 -2.375,1.921875 -2.375,2.8125 0,1.203125 0.96875,1.734375 2.03125,1.734375 C 3.796875,0.125 4.75,-1.46875 4.75,-3.078125 4.75,-3.96875 4.390625,-4.390625 3.984375,-4.78125 3.53125,-5.203125 2.65625,-6.015625 2.65625,-6.375 c 0,-0.046875 0.109375,-0.3125 0.46875,-0.3125 0.328125,0 0.578125,0.171875 0.75,0.296875 0.1875,0.15625 0.484375,0.375 0.703125,0.375 0.3125,0 0.53125,-0.28125 0.53125,-0.53125 0,-0.296875 -0.15625,-0.328125 -0.6875,-0.4375 C 4.203125,-7.03125 3.625,-7.15625 3.359375,-7.15625 c -0.53125,0 -1.125,0.375 -1.125,1.09375 0,0.5625 0.375,1.234375 0.59375,1.640625 z m 0.21875,0.359375 c 0.25,0.390625 0.5625,0.953125 0.5625,1.65625 0,0.4375 -0.265625,2.171875 -1.09375,2.171875 -0.109375,0 -0.484375,-0.03125 -0.765625,-0.28125 C 1.5,-0.75 1.5,-1.125 1.5,-1.25 c 0,-0.515625 0.28125,-1.484375 0.453125,-1.84375 0.140625,-0.265625 0.4375,-0.75 1.09375,-0.96875 z m 0,0"
               id="id-85a22dbc-05c4-45d2-b37a-d578a7e17846" />
          </g>
        </g>
        <g
           style="fill:#000000;fill-opacity:1"
           id="id-7b138338-2dc7-44e4-8493-da2e0b7b01c4">
          <g
             transform="translate(154.295, 136.259)"
             id="g1487">
            <path
               style="stroke:none"
               d="m 1.71875,-2.75 h 0.703125 c 0.140625,0 0.21875,0 0.21875,-0.15625 C 2.640625,-3 2.5625,-3 2.4375,-3 H 1.78125 l 0.25,-1.03125 C 2.046875,-4.0625 2.0625,-4.109375 2.0625,-4.125 c 0,-0.140625 -0.109375,-0.234375 -0.25,-0.234375 -0.171875,0 -0.265625,0.125 -0.328125,0.296875 C 1.4375,-3.875 1.53125,-4.21875 1.21875,-3 H 0.515625 c -0.125,0 -0.21875,0 -0.21875,0.15625 C 0.296875,-2.75 0.375,-2.75 0.5,-2.75 H 1.15625 L 0.75,-1.109375 C 0.703125,-0.9375 0.640625,-0.6875 0.640625,-0.59375 c 0,0.40625 0.359375,0.65625 0.75,0.65625 0.78125,0 1.21875,-0.96875 1.21875,-1.0625 0,-0.09375 -0.09375,-0.09375 -0.109375,-0.09375 -0.09375,0 -0.09375,0.015625 -0.15625,0.140625 -0.1875,0.4375 -0.546875,0.828125 -0.921875,0.828125 -0.15625,0 -0.25,-0.09375 -0.25,-0.34375 0,-0.0625 0.03125,-0.21875 0.046875,-0.28125 z m 0,0"
               id="id-6a9f844e-7b6c-4d15-9961-c1b8872550ee" />
          </g>
        </g>
      </g>
    </g>
    <g
       transform="matrix(1.99999 0 0 1.99999 435.026 220.058)"
       ns4:version="1.8.1"
       ns4:texconverter="pdflatex"
       ns4:pdfconverter="inkscape"
       ns4:text="${\\boldsymbol \\delta}_{t-1}$"
       ns4:preamble="/home/manel/.config/inkscape/extensions/textext/default_packages.tex"
       ns4:scale="1.999995"
       ns4:alignment="middle center"
       ns4:stroke-to-path="0"
       ns4:inkscapeversion="1.2.2"
       ns4:jacobian_sqrt="1.99999"
       id="g24821-6-8-8">
      <defs
         id="id-5d5856be-7d6b-40be-8e12-005f03e994d7">
        <g
           id="id-17b4e5b9-6424-4179-bf06-92f3e6d5faef">
          <symbol
             overflow="visible"
             id="id-fa516623-f402-45e9-9d41-9b6cabb148a9">
            <path
               style="stroke:none"
               d=""
               id="id-6cbe1c43-4b9c-4b72-ab3e-7dbdbda5a50e" />
          </symbol>
          <symbol
             overflow="visible"
             id="id-0a36c8d0-2e88-4f2e-b12b-a9bbdd701dd5">
            <path
               style="stroke:none"
               d="m 2.828125,-4.421875 c -1.765625,0.40625 -2.375,1.921875 -2.375,2.8125 0,1.203125 0.96875,1.734375 2.03125,1.734375 C 3.796875,0.125 4.75,-1.46875 4.75,-3.078125 4.75,-3.96875 4.390625,-4.390625 3.984375,-4.78125 3.53125,-5.203125 2.65625,-6.015625 2.65625,-6.375 c 0,-0.046875 0.109375,-0.3125 0.46875,-0.3125 0.328125,0 0.578125,0.171875 0.75,0.296875 0.1875,0.15625 0.484375,0.375 0.703125,0.375 0.3125,0 0.53125,-0.28125 0.53125,-0.53125 0,-0.296875 -0.15625,-0.328125 -0.6875,-0.4375 C 4.203125,-7.03125 3.625,-7.15625 3.359375,-7.15625 c -0.53125,0 -1.125,0.375 -1.125,1.09375 0,0.5625 0.375,1.234375 0.59375,1.640625 z m 0.21875,0.359375 c 0.25,0.390625 0.5625,0.953125 0.5625,1.65625 0,0.4375 -0.265625,2.171875 -1.09375,2.171875 -0.109375,0 -0.484375,-0.03125 -0.765625,-0.28125 C 1.5,-0.75 1.5,-1.125 1.5,-1.25 c 0,-0.515625 0.28125,-1.484375 0.453125,-1.84375 0.140625,-0.265625 0.4375,-0.75 1.09375,-0.96875 z m 0,0"
               id="id-93e4a792-00b7-43e2-95d9-0745582e2e4f" />
          </symbol>
          <symbol
             overflow="visible"
             id="id-5b887972-fa46-4347-9d94-36f3aa4d5ad9">
            <path
               style="stroke:none"
               d=""
               id="id-fbf7b008-bd7e-4d8e-9e58-629657c9d80c" />
          </symbol>
          <symbol
             overflow="visible"
             id="id-03aa86ba-0b74-49e7-be7d-1f6d4779442d">
            <path
               style="stroke:none"
               d="m 1.71875,-2.75 h 0.703125 c 0.140625,0 0.21875,0 0.21875,-0.15625 C 2.640625,-3 2.5625,-3 2.4375,-3 H 1.78125 l 0.25,-1.03125 C 2.046875,-4.0625 2.0625,-4.109375 2.0625,-4.125 c 0,-0.140625 -0.109375,-0.234375 -0.25,-0.234375 -0.171875,0 -0.265625,0.125 -0.328125,0.296875 C 1.4375,-3.875 1.53125,-4.21875 1.21875,-3 H 0.515625 c -0.125,0 -0.21875,0 -0.21875,0.15625 C 0.296875,-2.75 0.375,-2.75 0.5,-2.75 H 1.15625 L 0.75,-1.109375 C 0.703125,-0.9375 0.640625,-0.6875 0.640625,-0.59375 c 0,0.40625 0.359375,0.65625 0.75,0.65625 0.78125,0 1.21875,-0.96875 1.21875,-1.0625 0,-0.09375 -0.09375,-0.09375 -0.109375,-0.09375 -0.09375,0 -0.09375,0.015625 -0.15625,0.140625 -0.1875,0.4375 -0.546875,0.828125 -0.921875,0.828125 -0.15625,0 -0.25,-0.09375 -0.25,-0.34375 0,-0.0625 0.03125,-0.21875 0.046875,-0.28125 z m 0,0"
               id="id-0f469088-1fd8-4b02-b9a3-97674b85c88c" />
          </symbol>
          <symbol
             overflow="visible"
             id="id-c262898a-f7d1-47e2-9634-71520640d606">
            <path
               style="stroke:none"
               d=""
               id="id-132146b3-4646-42a6-91cf-c4283387d371" />
          </symbol>
          <symbol
             overflow="visible"
             id="id-a2a27e4a-04fa-4144-ac40-ae8f0ef0d8c9">
            <path
               style="stroke:none"
               d="m 5.1875,-1.578125 c 0.109375,0 0.28125,0 0.28125,-0.15625 0,-0.1875 -0.171875,-0.1875 -0.28125,-0.1875 H 1.03125 c -0.109375,0 -0.28125,0 -0.28125,0.171875 0,0.171875 0.15625,0.171875 0.28125,0.171875 z m 0,0"
               id="id-55448c98-29e2-4fc4-a41c-3502ecf147f2" />
          </symbol>
          <symbol
             overflow="visible"
             id="id-80619479-05eb-4c39-959e-91c061557fae">
            <path
               style="stroke:none"
               d=""
               id="id-67718f03-1e5a-4972-9744-59d435149a04" />
          </symbol>
          <symbol
             overflow="visible"
             id="id-53385198-f5a9-4cc1-afcc-793af5dac74c">
            <path
               style="stroke:none"
               d="m 2.328125,-4.4375 c 0,-0.1875 0,-0.1875 -0.203125,-0.1875 -0.453125,0.4375 -1.078125,0.4375 -1.359375,0.4375 v 0.25 c 0.15625,0 0.625,0 1,-0.1875 v 3.546875 c 0,0.234375 0,0.328125 -0.6875,0.328125 H 0.8125 V 0 c 0.125,0 0.984375,-0.03125 1.234375,-0.03125 0.21875,0 1.09375,0.03125 1.25,0.03125 V -0.25 H 3.03125 c -0.703125,0 -0.703125,-0.09375 -0.703125,-0.328125 z m 0,0"
               id="id-22b8f870-15f3-4a27-95e4-a662d583c9f6" />
          </symbol>
        </g>
      </defs>
      <g
         id="id-3c1269c0-b27d-468c-87e0-1d040c7b62f8"
         transform="translate(-149.165, -127.609)">
        <g
           style="fill:#000000;fill-opacity:1"
           id="id-4f3b39ee-aee8-4de6-a00b-116b9dc0e462">
          <g
             transform="translate(148.712, 134.765)"
             id="g1928">
            <path
               style="stroke:none"
               d="m 2.828125,-4.421875 c -1.765625,0.40625 -2.375,1.921875 -2.375,2.8125 0,1.203125 0.96875,1.734375 2.03125,1.734375 C 3.796875,0.125 4.75,-1.46875 4.75,-3.078125 4.75,-3.96875 4.390625,-4.390625 3.984375,-4.78125 3.53125,-5.203125 2.65625,-6.015625 2.65625,-6.375 c 0,-0.046875 0.109375,-0.3125 0.46875,-0.3125 0.328125,0 0.578125,0.171875 0.75,0.296875 0.1875,0.15625 0.484375,0.375 0.703125,0.375 0.3125,0 0.53125,-0.28125 0.53125,-0.53125 0,-0.296875 -0.15625,-0.328125 -0.6875,-0.4375 C 4.203125,-7.03125 3.625,-7.15625 3.359375,-7.15625 c -0.53125,0 -1.125,0.375 -1.125,1.09375 0,0.5625 0.375,1.234375 0.59375,1.640625 z m 0.21875,0.359375 c 0.25,0.390625 0.5625,0.953125 0.5625,1.65625 0,0.4375 -0.265625,2.171875 -1.09375,2.171875 -0.109375,0 -0.484375,-0.03125 -0.765625,-0.28125 C 1.5,-0.75 1.5,-1.125 1.5,-1.25 c 0,-0.515625 0.28125,-1.484375 0.453125,-1.84375 0.140625,-0.265625 0.4375,-0.75 1.09375,-0.96875 z m 0,0"
               id="id-f645698e-6899-4e5d-8a5d-b0cbeceeeda0" />
          </g>
        </g>
        <g
           style="fill:#000000;fill-opacity:1"
           id="id-f21415a3-0b97-4926-b7d3-e5b37f33472f">
          <g
             transform="translate(154.295, 136.259)"
             id="g1932">
            <path
               style="stroke:none"
               d="m 1.71875,-2.75 h 0.703125 c 0.140625,0 0.21875,0 0.21875,-0.15625 C 2.640625,-3 2.5625,-3 2.4375,-3 H 1.78125 l 0.25,-1.03125 C 2.046875,-4.0625 2.0625,-4.109375 2.0625,-4.125 c 0,-0.140625 -0.109375,-0.234375 -0.25,-0.234375 -0.171875,0 -0.265625,0.125 -0.328125,0.296875 C 1.4375,-3.875 1.53125,-4.21875 1.21875,-3 H 0.515625 c -0.125,0 -0.21875,0 -0.21875,0.15625 C 0.296875,-2.75 0.375,-2.75 0.5,-2.75 H 1.15625 L 0.75,-1.109375 C 0.703125,-0.9375 0.640625,-0.6875 0.640625,-0.59375 c 0,0.40625 0.359375,0.65625 0.75,0.65625 0.78125,0 1.21875,-0.96875 1.21875,-1.0625 0,-0.09375 -0.09375,-0.09375 -0.109375,-0.09375 -0.09375,0 -0.09375,0.015625 -0.15625,0.140625 -0.1875,0.4375 -0.546875,0.828125 -0.921875,0.828125 -0.15625,0 -0.25,-0.09375 -0.25,-0.34375 0,-0.0625 0.03125,-0.21875 0.046875,-0.28125 z m 0,0"
               id="id-5f15d070-b452-41b4-be66-224519c8b43c" />
          </g>
        </g>
        <g
           style="fill:#000000;fill-opacity:1"
           id="id-2f0eefa3-8d68-431f-9899-fc555873e1e5">
          <g
             transform="translate(157.305, 136.259)"
             id="g1936">
            <path
               style="stroke:none"
               d="m 5.1875,-1.578125 c 0.109375,0 0.28125,0 0.28125,-0.15625 0,-0.1875 -0.171875,-0.1875 -0.28125,-0.1875 H 1.03125 c -0.109375,0 -0.28125,0 -0.28125,0.171875 0,0.171875 0.15625,0.171875 0.28125,0.171875 z m 0,0"
               id="id-3d34fba4-1104-4afe-80a5-b3fcfd7aba5b" />
          </g>
        </g>
        <g
           style="fill:#000000;fill-opacity:1"
           id="id-7e1f4500-d929-4bc9-8344-e8deff486b9f">
          <g
             transform="translate(163.532, 136.259)"
             id="g1940">
            <path
               style="stroke:none"
               d="m 2.328125,-4.4375 c 0,-0.1875 0,-0.1875 -0.203125,-0.1875 -0.453125,0.4375 -1.078125,0.4375 -1.359375,0.4375 v 0.25 c 0.15625,0 0.625,0 1,-0.1875 v 3.546875 c 0,0.234375 0,0.328125 -0.6875,0.328125 H 0.8125 V 0 c 0.125,0 0.984375,-0.03125 1.234375,-0.03125 0.21875,0 1.09375,0.03125 1.25,0.03125 V -0.25 H 3.03125 c -0.703125,0 -0.703125,-0.09375 -0.703125,-0.328125 z m 0,0"
               id="id-f9f25091-e5aa-41f1-974f-8183a2d6d4b9" />
          </g>
        </g>
      </g>
    </g>
    <g
       transform="matrix(1.99999 0 0 1.99999 444.701 109.823)"
       ns4:version="1.8.1"
       ns4:texconverter="pdflatex"
       ns4:pdfconverter="inkscape"
       ns4:text="${\\boldsymbol \\delta}_{t-2}$"
       ns4:preamble="/home/manel/.config/inkscape/extensions/textext/default_packages.tex"
       ns4:scale="1.999995"
       ns4:alignment="middle center"
       ns4:stroke-to-path="0"
       ns4:inkscapeversion="1.2.2"
       ns4:jacobian_sqrt="1.99999"
       id="g24821-4-6">
      <defs
         id="id-f39a8420-2907-471e-b6f3-ef56680934af">
        <g
           id="id-688adcd2-8bc8-4fbf-8696-43b4723098f8">
          <symbol
             overflow="visible"
             id="id-d549f0e2-e97a-46a6-bf96-7966c7cb4b28">
            <path
               style="stroke:none"
               d=""
               id="id-29888b6d-673d-43b0-8006-cbec53371d00" />
          </symbol>
          <symbol
             overflow="visible"
             id="id-bb05b230-e959-4cac-b056-0b1e4e250025">
            <path
               style="stroke:none"
               d="m 2.828125,-4.421875 c -1.765625,0.40625 -2.375,1.921875 -2.375,2.8125 0,1.203125 0.96875,1.734375 2.03125,1.734375 C 3.796875,0.125 4.75,-1.46875 4.75,-3.078125 4.75,-3.96875 4.390625,-4.390625 3.984375,-4.78125 3.53125,-5.203125 2.65625,-6.015625 2.65625,-6.375 c 0,-0.046875 0.109375,-0.3125 0.46875,-0.3125 0.328125,0 0.578125,0.171875 0.75,0.296875 0.1875,0.15625 0.484375,0.375 0.703125,0.375 0.3125,0 0.53125,-0.28125 0.53125,-0.53125 0,-0.296875 -0.15625,-0.328125 -0.6875,-0.4375 C 4.203125,-7.03125 3.625,-7.15625 3.359375,-7.15625 c -0.53125,0 -1.125,0.375 -1.125,1.09375 0,0.5625 0.375,1.234375 0.59375,1.640625 z m 0.21875,0.359375 c 0.25,0.390625 0.5625,0.953125 0.5625,1.65625 0,0.4375 -0.265625,2.171875 -1.09375,2.171875 -0.109375,0 -0.484375,-0.03125 -0.765625,-0.28125 C 1.5,-0.75 1.5,-1.125 1.5,-1.25 c 0,-0.515625 0.28125,-1.484375 0.453125,-1.84375 0.140625,-0.265625 0.4375,-0.75 1.09375,-0.96875 z m 0,0"
               id="id-d47a437f-8881-4c50-8e95-7adcbf809b61" />
          </symbol>
          <symbol
             overflow="visible"
             id="id-42e59d1f-c432-4d3c-9ff0-119424d02be3">
            <path
               style="stroke:none"
               d=""
               id="id-6074a0f7-63ab-4993-89af-e6c8e331ce77" />
          </symbol>
          <symbol
             overflow="visible"
             id="id-4c321d15-e89f-4844-8c3d-8f5a8181fb97">
            <path
               style="stroke:none"
               d="m 1.71875,-2.75 h 0.703125 c 0.140625,0 0.21875,0 0.21875,-0.15625 C 2.640625,-3 2.5625,-3 2.4375,-3 H 1.78125 l 0.25,-1.03125 C 2.046875,-4.0625 2.0625,-4.109375 2.0625,-4.125 c 0,-0.140625 -0.109375,-0.234375 -0.25,-0.234375 -0.171875,0 -0.265625,0.125 -0.328125,0.296875 C 1.4375,-3.875 1.53125,-4.21875 1.21875,-3 H 0.515625 c -0.125,0 -0.21875,0 -0.21875,0.15625 C 0.296875,-2.75 0.375,-2.75 0.5,-2.75 H 1.15625 L 0.75,-1.109375 C 0.703125,-0.9375 0.640625,-0.6875 0.640625,-0.59375 c 0,0.40625 0.359375,0.65625 0.75,0.65625 0.78125,0 1.21875,-0.96875 1.21875,-1.0625 0,-0.09375 -0.09375,-0.09375 -0.109375,-0.09375 -0.09375,0 -0.09375,0.015625 -0.15625,0.140625 -0.1875,0.4375 -0.546875,0.828125 -0.921875,0.828125 -0.15625,0 -0.25,-0.09375 -0.25,-0.34375 0,-0.0625 0.03125,-0.21875 0.046875,-0.28125 z m 0,0"
               id="id-b75b60c0-357b-4636-8f25-9523d255d7ad" />
          </symbol>
          <symbol
             overflow="visible"
             id="id-aea34807-309b-4cb8-9a1e-f4337185e9b8">
            <path
               style="stroke:none"
               d=""
               id="id-aaddf9dd-fdb8-456d-b5b0-d0c555b95bcf" />
          </symbol>
          <symbol
             overflow="visible"
             id="id-22ce3430-3fe3-4115-b46f-2eb7825de37d">
            <path
               style="stroke:none"
               d="m 5.1875,-1.578125 c 0.109375,0 0.28125,0 0.28125,-0.15625 0,-0.1875 -0.171875,-0.1875 -0.28125,-0.1875 H 1.03125 c -0.109375,0 -0.28125,0 -0.28125,0.171875 0,0.171875 0.15625,0.171875 0.28125,0.171875 z m 0,0"
               id="id-845ce1d3-f0bb-40b4-bfee-d2e2f3dbe73d" />
          </symbol>
          <symbol
             overflow="visible"
             id="id-f1628ab5-c0af-4656-bf95-affa58bdef38">
            <path
               style="stroke:none"
               d=""
               id="id-79baca47-c3b5-4308-983a-17ace2e1e990" />
          </symbol>
          <symbol
             overflow="visible"
             id="id-9c8ca6bd-fa17-4014-8ba6-c82d931fce99">
            <path
               style="stroke:none"
               d="M 3.515625,-1.265625 H 3.28125 c -0.015625,0.15625 -0.09375,0.5625 -0.1875,0.625 C 3.046875,-0.59375 2.515625,-0.59375 2.40625,-0.59375 H 1.125 c 0.734375,-0.640625 0.984375,-0.84375 1.390625,-1.171875 0.515625,-0.40625 1,-0.84375 1,-1.5 0,-0.84375 -0.734375,-1.359375 -1.625,-1.359375 -0.859375,0 -1.453125,0.609375 -1.453125,1.25 0,0.34375 0.296875,0.390625 0.375,0.390625 0.15625,0 0.359375,-0.125 0.359375,-0.375 0,-0.125 -0.046875,-0.375 -0.40625,-0.375 C 0.984375,-4.21875 1.453125,-4.375 1.78125,-4.375 c 0.703125,0 1.0625,0.546875 1.0625,1.109375 0,0.609375 -0.4375,1.078125 -0.65625,1.328125 L 0.515625,-0.265625 C 0.4375,-0.203125 0.4375,-0.1875 0.4375,0 h 2.875 z m 0,0"
               id="id-8c93ea2d-04c1-446f-88cf-ac52bc4b1711" />
          </symbol>
        </g>
      </defs>
      <g
         id="id-b0d149c1-bf1a-40a5-bafe-f0f72530e740"
         transform="translate(-149.165, -127.609)">
        <g
           style="fill:#000000;fill-opacity:1"
           id="id-69e49c98-4a58-4d22-b1e5-7680b59d60c3">
          <g
             transform="translate(148.712, 134.765)"
             id="g2409">
            <path
               style="stroke:none"
               d="m 2.828125,-4.421875 c -1.765625,0.40625 -2.375,1.921875 -2.375,2.8125 0,1.203125 0.96875,1.734375 2.03125,1.734375 C 3.796875,0.125 4.75,-1.46875 4.75,-3.078125 4.75,-3.96875 4.390625,-4.390625 3.984375,-4.78125 3.53125,-5.203125 2.65625,-6.015625 2.65625,-6.375 c 0,-0.046875 0.109375,-0.3125 0.46875,-0.3125 0.328125,0 0.578125,0.171875 0.75,0.296875 0.1875,0.15625 0.484375,0.375 0.703125,0.375 0.3125,0 0.53125,-0.28125 0.53125,-0.53125 0,-0.296875 -0.15625,-0.328125 -0.6875,-0.4375 C 4.203125,-7.03125 3.625,-7.15625 3.359375,-7.15625 c -0.53125,0 -1.125,0.375 -1.125,1.09375 0,0.5625 0.375,1.234375 0.59375,1.640625 z m 0.21875,0.359375 c 0.25,0.390625 0.5625,0.953125 0.5625,1.65625 0,0.4375 -0.265625,2.171875 -1.09375,2.171875 -0.109375,0 -0.484375,-0.03125 -0.765625,-0.28125 C 1.5,-0.75 1.5,-1.125 1.5,-1.25 c 0,-0.515625 0.28125,-1.484375 0.453125,-1.84375 0.140625,-0.265625 0.4375,-0.75 1.09375,-0.96875 z m 0,0"
               id="id-f85989d6-ccb9-4296-8010-434404ef0373" />
          </g>
        </g>
        <g
           style="fill:#000000;fill-opacity:1"
           id="id-aae78ced-cba0-404c-86ff-86b9fa51884f">
          <g
             transform="translate(154.295, 136.259)"
             id="g2413">
            <path
               style="stroke:none"
               d="m 1.71875,-2.75 h 0.703125 c 0.140625,0 0.21875,0 0.21875,-0.15625 C 2.640625,-3 2.5625,-3 2.4375,-3 H 1.78125 l 0.25,-1.03125 C 2.046875,-4.0625 2.0625,-4.109375 2.0625,-4.125 c 0,-0.140625 -0.109375,-0.234375 -0.25,-0.234375 -0.171875,0 -0.265625,0.125 -0.328125,0.296875 C 1.4375,-3.875 1.53125,-4.21875 1.21875,-3 H 0.515625 c -0.125,0 -0.21875,0 -0.21875,0.15625 C 0.296875,-2.75 0.375,-2.75 0.5,-2.75 H 1.15625 L 0.75,-1.109375 C 0.703125,-0.9375 0.640625,-0.6875 0.640625,-0.59375 c 0,0.40625 0.359375,0.65625 0.75,0.65625 0.78125,0 1.21875,-0.96875 1.21875,-1.0625 0,-0.09375 -0.09375,-0.09375 -0.109375,-0.09375 -0.09375,0 -0.09375,0.015625 -0.15625,0.140625 -0.1875,0.4375 -0.546875,0.828125 -0.921875,0.828125 -0.15625,0 -0.25,-0.09375 -0.25,-0.34375 0,-0.0625 0.03125,-0.21875 0.046875,-0.28125 z m 0,0"
               id="id-c9744402-bd08-4783-948a-d6bfb66a9876" />
          </g>
        </g>
        <g
           style="fill:#000000;fill-opacity:1"
           id="id-41d4c93c-7c3e-4ef2-9137-bf7ae2d6e9a9">
          <g
             transform="translate(157.305, 136.259)"
             id="g2417">
            <path
               style="stroke:none"
               d="m 5.1875,-1.578125 c 0.109375,0 0.28125,0 0.28125,-0.15625 0,-0.1875 -0.171875,-0.1875 -0.28125,-0.1875 H 1.03125 c -0.109375,0 -0.28125,0 -0.28125,0.171875 0,0.171875 0.15625,0.171875 0.28125,0.171875 z m 0,0"
               id="id-bf9ccb97-cd48-426f-be06-dd8e952b9a8d" />
          </g>
        </g>
        <g
           style="fill:#000000;fill-opacity:1"
           id="id-d85d5274-151c-47ca-ba80-46fb403ba32c">
          <g
             transform="translate(163.532, 136.259)"
             id="g2421">
            <path
               style="stroke:none"
               d="M 3.515625,-1.265625 H 3.28125 c -0.015625,0.15625 -0.09375,0.5625 -0.1875,0.625 C 3.046875,-0.59375 2.515625,-0.59375 2.40625,-0.59375 H 1.125 c 0.734375,-0.640625 0.984375,-0.84375 1.390625,-1.171875 0.515625,-0.40625 1,-0.84375 1,-1.5 0,-0.84375 -0.734375,-1.359375 -1.625,-1.359375 -0.859375,0 -1.453125,0.609375 -1.453125,1.25 0,0.34375 0.296875,0.390625 0.375,0.390625 0.15625,0 0.359375,-0.125 0.359375,-0.375 0,-0.125 -0.046875,-0.375 -0.40625,-0.375 C 0.984375,-4.21875 1.453125,-4.375 1.78125,-4.375 c 0.703125,0 1.0625,0.546875 1.0625,1.109375 0,0.609375 -0.4375,1.078125 -0.65625,1.328125 L 0.515625,-0.265625 C 0.4375,-0.203125 0.4375,-0.1875 0.4375,0 h 2.875 z m 0,0"
               id="id-5a0745c2-a64b-4a1d-98c3-edad6bc9531f" />
          </g>
        </g>
      </g>
    </g>
  </g>
</svg>
