<?xml version="1.0" encoding="UTF-8" standalone="no"?>
<svg
   width="249.19922pt"
   height="169.75pt"
   viewBox="0 0 249.19922 169.75"
   version="1.1"
   id="svg1119"
   sodipodi:docname="bert-finetune-classification.svg"
   inkscape:version="1.2.2 (1:1.2.2+202212051551+b0a8486541)"
   xmlns:inkscape="http://www.inkscape.org/namespaces/inkscape"
   xmlns:sodipodi="http://sodipodi.sourceforge.net/DTD/sodipodi-0.dtd"
   xmlns="http://www.w3.org/2000/svg"
   xmlns:svg="http://www.w3.org/2000/svg">
  <defs
     id="defs1123" />
  <sodipodi:namedview
     id="namedview1121"
     pagecolor="#ffffff"
     bordercolor="#666666"
     borderopacity="1.0"
     inkscape:showpageshadow="2"
     inkscape:pageopacity="0.0"
     inkscape:pagecheckerboard="0"
     inkscape:deskcolor="#d1d1d1"
     inkscape:document-units="pt"
     showgrid="false"
     inkscape:zoom="3.6256906"
     inkscape:cx="137.62895"
     inkscape:cy="68.676571"
     inkscape:window-width="1920"
     inkscape:window-height="1043"
     inkscape:window-x="0"
     inkscape:window-y="0"
     inkscape:window-maximized="1"
     inkscape:current-layer="svg1119" />
  <g
     id="surface1"
     transform="translate(0,-5.828125)">
    <path
       style="fill:#000000;fill-opacity:1;fill-rule:nonzero;stroke:none"
       d="m 12.121094,171.92578 v -0.9375 l 5.332031,-2.24609 v 0.97656 l -4.238281,1.73828 4.238281,1.75781 v 0.97657 z m 0,0"
       id="path984" />
    <path
       style="fill:#000000;fill-opacity:1;fill-rule:nonzero;stroke:none"
       d="m 22.617188,173.3125 0.976562,0.11719 c -0.105469,0.67968 -0.378906,1.20703 -0.820312,1.58203 -0.445313,0.3789 -0.984376,0.5664 -1.621094,0.5664 -0.796875,0 -1.433594,-0.25781 -1.914063,-0.78125 -0.484375,-0.51953 -0.722656,-1.26953 -0.722656,-2.24609 0,-0.63672 0.101563,-1.19141 0.3125,-1.66016 0.207031,-0.46875 0.519531,-0.82031 0.9375,-1.05468 0.429687,-0.23438 0.898437,-0.35157 1.40625,-0.35157 0.625,0 1.136719,0.16407 1.542969,0.48829 0.402344,0.3125 0.664062,0.76171 0.78125,1.34765 l -0.957032,0.15625 c -0.09375,-0.39062 -0.253906,-0.68359 -0.488281,-0.8789 -0.234375,-0.20704 -0.515625,-0.3125 -0.839843,-0.3125 -0.507813,0 -0.917969,0.18359 -1.230469,0.54687 -0.300781,0.35156 -0.449219,0.91406 -0.449219,1.67969 0,0.79687 0.148438,1.36719 0.449219,1.71875 0.296875,0.35156 0.6875,0.52734 1.171875,0.52734 0.390625,0 0.714844,-0.11719 0.976562,-0.35156 0.257813,-0.23438 0.421875,-0.59766 0.488282,-1.09375 z m 0,0"
       id="path986" />
    <path
       style="fill:#000000;fill-opacity:1;fill-rule:nonzero;stroke:none"
       d="m 24.414062,175.44141 v -8.04688 h 0.976563 v 8.04688 z m 0,0"
       id="path988" />
    <path
       style="fill:#000000;fill-opacity:1;fill-rule:nonzero;stroke:none"
       d="m 26.542969,173.70312 0.976562,-0.15625 c 0.04687,0.39063 0.199219,0.69141 0.449219,0.89844 0.257812,0.21094 0.609375,0.3125 1.054688,0.3125 0.453124,0 0.789062,-0.0898 1.015624,-0.27344 0.21875,-0.17968 0.332032,-0.39453 0.332032,-0.64453 0,-0.23437 -0.09766,-0.41015 -0.292969,-0.52734 -0.148437,-0.0898 -0.484375,-0.20703 -1.015625,-0.35156 -0.734375,-0.17969 -1.242188,-0.33594 -1.523438,-0.46875 -0.273437,-0.12891 -0.484374,-0.3125 -0.625,-0.54688 -0.148437,-0.23437 -0.214843,-0.49219 -0.214843,-0.78125 0,-0.25781 0.05859,-0.5 0.175781,-0.72265 0.117188,-0.21875 0.277344,-0.41016 0.488281,-0.56641 0.15625,-0.10156 0.359375,-0.19531 0.625,-0.27344 0.273438,-0.0781 0.554688,-0.11719 0.859375,-0.11719 0.453125,0 0.847656,0.0664 1.191406,0.19532 0.351563,0.13281 0.609376,0.30859 0.78125,0.52734 0.164063,0.22266 0.28125,0.52344 0.351563,0.89844 l -0.976563,0.13672 c -0.03906,-0.29688 -0.171874,-0.53125 -0.390624,-0.70313 -0.210938,-0.16797 -0.503907,-0.2539 -0.878907,-0.2539 -0.460937,0 -0.78125,0.0781 -0.976562,0.23437 -0.195313,0.14453 -0.292969,0.32031 -0.292969,0.52734 0,0.13282 0.03906,0.24219 0.117188,0.33204 0.07812,0.11718 0.203124,0.21093 0.390624,0.27343 0.08594,0.0391 0.375,0.125 0.859376,0.25391 0.703124,0.18359 1.191406,0.33203 1.464843,0.44922 0.28125,0.11719 0.507813,0.29297 0.664063,0.52734 0.15625,0.22266 0.234375,0.50391 0.234375,0.83985 0,0.33984 -0.09766,0.65234 -0.292969,0.9375 -0.195312,0.28906 -0.480469,0.51562 -0.839844,0.68359 -0.351562,0.15625 -0.761718,0.23437 -1.230468,0.23437 -0.757813,0 -1.339844,-0.15625 -1.738282,-0.46875 -0.390625,-0.32421 -0.640625,-0.79296 -0.742187,-1.40625 z m 0,0"
       id="path990" />
    <path
       style="fill:#000000;fill-opacity:1;fill-rule:nonzero;stroke:none"
       d="m 37.773438,171.92578 -5.332032,2.26563 v -0.97657 l 4.21875,-1.75781 -4.21875,-1.73828 v -0.97656 l 5.332032,2.24609 z m 0,0"
       id="path992" />
    <path
       style="fill:#000000;fill-opacity:1;fill-rule:nonzero;stroke:none"
       d="m 56.035156,175.44141 v -7.10938 h -2.636718 v -0.9375 h 6.367187 v 0.9375 h -2.65625 v 7.10938 z m 0,0"
       id="path994" />
    <path
       style="fill:#000000;fill-opacity:1;fill-rule:nonzero;stroke:none"
       d="m 60.738281,175.44141 v -8.04688 h 0.996094 v 2.89063 c 0.453125,-0.53125 1.035156,-0.80079 1.738281,-0.80079 0.429688,0 0.800782,0.0859 1.113282,0.25391 0.320312,0.17188 0.550781,0.40625 0.683593,0.70313 0.140625,0.30078 0.214844,0.73828 0.214844,1.30859 v 3.69141 H 64.507812 V 171.75 c 0,-0.49219 -0.113281,-0.85156 -0.332031,-1.07422 -0.210937,-0.23437 -0.507812,-0.35156 -0.898437,-0.35156 -0.304688,0 -0.582032,0.0781 -0.839844,0.23437 -0.265625,0.14453 -0.445312,0.34766 -0.546875,0.60547 -0.109375,0.26172 -0.15625,0.625 -0.15625,1.09375 v 3.1836 z m 0,0"
       id="path996" />
    <path
       style="fill:#000000;fill-opacity:1;fill-rule:nonzero;stroke:none"
       d="m 66.988281,168.52734 v -1.13281 h 0.996094 v 1.13281 z m 0,6.91407 v -5.83985 h 0.996094 v 5.83985 z m 0,0"
       id="path998" />
    <path
       style="fill:#000000;fill-opacity:1;fill-rule:nonzero;stroke:none"
       d="m 69.09375,173.70312 0.976562,-0.15625 c 0.05078,0.39063 0.199219,0.69141 0.449219,0.89844 0.257813,0.21094 0.609375,0.3125 1.054688,0.3125 0.453125,0 0.792969,-0.0898 1.015625,-0.27344 0.21875,-0.17968 0.332031,-0.39453 0.332031,-0.64453 0,-0.23437 -0.09766,-0.41015 -0.292969,-0.52734 -0.144531,-0.0898 -0.484375,-0.20703 -1.015625,-0.35156 -0.730469,-0.17969 -1.238281,-0.33594 -1.523437,-0.46875 -0.273438,-0.12891 -0.484375,-0.3125 -0.625,-0.54688 C 69.320312,171.71094 69.25,171.45312 69.25,171.16406 c 0,-0.25781 0.05859,-0.5 0.175781,-0.72265 0.117188,-0.21875 0.277344,-0.41016 0.488281,-0.56641 0.15625,-0.10156 0.363282,-0.19531 0.625,-0.27344 0.273438,-0.0781 0.558594,-0.11719 0.859376,-0.11719 0.453124,0 0.851562,0.0664 1.191406,0.19532 0.351562,0.13281 0.609375,0.30859 0.78125,0.52734 0.167968,0.22266 0.285156,0.52344 0.351562,0.89844 l -0.976562,0.13672 c -0.03906,-0.29688 -0.171875,-0.53125 -0.390625,-0.70313 -0.210938,-0.16797 -0.503907,-0.2539 -0.878907,-0.2539 -0.457031,0 -0.78125,0.0781 -0.976562,0.23437 -0.195312,0.14453 -0.292969,0.32031 -0.292969,0.52734 0,0.13282 0.03906,0.24219 0.117188,0.33204 0.07813,0.11718 0.207031,0.21093 0.390625,0.27343 0.08984,0.0391 0.375,0.125 0.859375,0.25391 0.703125,0.18359 1.191406,0.33203 1.464843,0.44922 0.285157,0.11719 0.507813,0.29297 0.664063,0.52734 0.15625,0.22266 0.234375,0.50391 0.234375,0.83985 0,0.33984 -0.09766,0.65234 -0.292969,0.9375 -0.195312,0.28906 -0.476562,0.51562 -0.839843,0.68359 -0.351563,0.15625 -0.761719,0.23437 -1.230469,0.23437 -0.757813,0 -1.335938,-0.15625 -1.738281,-0.46875 -0.390626,-0.32421 -0.640626,-0.79296 -0.742188,-1.40625 z m 0,0"
       id="path1000" />
    <path
       style="fill:#000000;fill-opacity:1;fill-rule:nonzero;stroke:none"
       d="m 91.195312,173.70312 0.976563,-0.15625 c 0.04687,0.39063 0.199219,0.69141 0.449219,0.89844 0.257812,0.21094 0.609375,0.3125 1.054687,0.3125 0.453125,0 0.789063,-0.0898 1.015625,-0.27344 0.21875,-0.17968 0.332032,-0.39453 0.332032,-0.64453 0,-0.23437 -0.09766,-0.41015 -0.292969,-0.52734 -0.148438,-0.0898 -0.484375,-0.20703 -1.015625,-0.35156 -0.734375,-0.17969 -1.242188,-0.33594 -1.523438,-0.46875 -0.273437,-0.12891 -0.484375,-0.3125 -0.625,-0.54688 -0.148437,-0.23437 -0.214844,-0.49219 -0.214844,-0.78125 0,-0.25781 0.05859,-0.5 0.175782,-0.72265 0.117187,-0.21875 0.277344,-0.41016 0.488281,-0.56641 0.15625,-0.10156 0.359375,-0.19531 0.625,-0.27344 0.273437,-0.0781 0.554687,-0.11719 0.859375,-0.11719 0.453125,0 0.847656,0.0664 1.191406,0.19532 0.351563,0.13281 0.609375,0.30859 0.78125,0.52734 0.164063,0.22266 0.28125,0.52344 0.351563,0.89844 l -0.976563,0.13672 c -0.03906,-0.29688 -0.171875,-0.53125 -0.390625,-0.70313 -0.210937,-0.16797 -0.503906,-0.2539 -0.878906,-0.2539 -0.460937,0 -0.78125,0.0781 -0.976563,0.23437 -0.195312,0.14453 -0.292968,0.32031 -0.292968,0.52734 0,0.13282 0.03906,0.24219 0.117187,0.33204 0.07813,0.11718 0.203125,0.21093 0.390625,0.27343 0.08594,0.0391 0.375,0.125 0.859375,0.25391 0.703125,0.18359 1.191407,0.33203 1.464844,0.44922 0.28125,0.11719 0.507813,0.29297 0.664063,0.52734 0.15625,0.22266 0.234374,0.50391 0.234374,0.83985 0,0.33984 -0.09766,0.65234 -0.292968,0.9375 -0.195313,0.28906 -0.480469,0.51562 -0.839844,0.68359 -0.351562,0.15625 -0.761719,0.23437 -1.230469,0.23437 -0.757812,0 -1.339843,-0.15625 -1.738281,-0.46875 -0.390625,-0.32421 -0.640625,-0.79296 -0.742188,-1.40625 z m 0,0"
       id="path1002" />
    <path
       style="fill:#000000;fill-opacity:1;fill-rule:nonzero;stroke:none"
       d="m 97.210938,175.44141 v -8.04688 h 0.996093 v 2.89063 c 0.453125,-0.53125 1.035157,-0.80079 1.738281,-0.80079 0.429688,0 0.800778,0.0859 1.113278,0.25391 0.32032,0.17188 0.55079,0.40625 0.6836,0.70313 0.14062,0.30078 0.21484,0.73828 0.21484,1.30859 v 3.69141 h -0.97656 V 171.75 c 0,-0.49219 -0.11328,-0.85156 -0.33203,-1.07422 -0.21094,-0.23437 -0.50781,-0.35156 -0.89844,-0.35156 -0.304688,0 -0.582031,0.0781 -0.839844,0.23437 -0.265625,0.14453 -0.445312,0.34766 -0.546875,0.60547 -0.109375,0.26172 -0.15625,0.625 -0.15625,1.09375 v 3.1836 z m 0,0"
       id="path1004" />
    <path
       style="fill:#000000;fill-opacity:1;fill-rule:nonzero;stroke:none"
       d="m 103.09766,172.53125 c 0,-1.07813 0.29687,-1.87891 0.89843,-2.40234 0.50782,-0.42969 1.11719,-0.64454 1.83594,-0.64454 0.80469,0 1.46485,0.26172 1.97266,0.78125 0.50781,0.52344 0.76172,1.2461 0.76172,2.16797 0,0.75782 -0.11719,1.34766 -0.35157,1.77735 -0.22656,0.42968 -0.54687,0.76953 -0.97656,1.01562 -0.42969,0.23438 -0.89844,0.35156 -1.40625,0.35156 -0.82031,0 -1.48437,-0.25781 -1.99219,-0.78125 -0.5,-0.53125 -0.74218,-1.28906 -0.74218,-2.26562 z m 1.01562,0 c 0,0.74219 0.16016,1.30469 0.48828,1.67969 0.32032,0.36718 0.73047,0.54687 1.23047,0.54687 0.49219,0 0.90235,-0.17969 1.23047,-0.54687 0.32031,-0.375 0.48828,-0.94922 0.48828,-1.71875 0,-0.71485 -0.16797,-1.26172 -0.48828,-1.64063 -0.32812,-0.375 -0.73828,-0.5664 -1.23047,-0.5664 -0.5,0 -0.91015,0.1914 -1.23047,0.5664 -0.32812,0.36719 -0.48828,0.92578 -0.48828,1.67969 z m 0,0"
       id="path1006" />
    <path
       style="fill:#000000;fill-opacity:1;fill-rule:nonzero;stroke:none"
       d="m 110.79688,175.44141 -1.77735,-5.83985 h 1.01563 l 0.9375,3.37891 0.33203,1.25 c 0.0117,-0.0625 0.11719,-0.46875 0.3125,-1.21094 l 0.91797,-3.41797 h 1.01562 l 0.87891,3.39844 0.29297,1.11328 0.33203,-1.13281 0.99609,-3.37891 h 0.95703 l -1.8164,5.83985 h -1.01563 l -0.9375,-3.4961 -0.23437,-0.99609 -1.17188,4.49219 z m 0,0"
       id="path1008" />
    <path
       style="fill:#000000;fill-opacity:1;fill-rule:nonzero;stroke:none"
       d="m 140.68359,168.52734 v -1.13281 h 0.9961 v 1.13281 z m 0,6.91407 v -5.83985 h 0.9961 v 5.83985 z m 0,0"
       id="path1010" />
    <path
       style="fill:#000000;fill-opacity:1;fill-rule:nonzero;stroke:none"
       d="m 142.79297,173.70312 0.97656,-0.15625 c 0.0469,0.39063 0.19922,0.69141 0.44922,0.89844 0.25781,0.21094 0.60937,0.3125 1.05469,0.3125 0.45312,0 0.78906,-0.0898 1.01562,-0.27344 0.21875,-0.17968 0.33203,-0.39453 0.33203,-0.64453 0,-0.23437 -0.0977,-0.41015 -0.29297,-0.52734 -0.14843,-0.0898 -0.48437,-0.20703 -1.01562,-0.35156 -0.73438,-0.17969 -1.24219,-0.33594 -1.52344,-0.46875 -0.27344,-0.12891 -0.48437,-0.3125 -0.625,-0.54688 -0.14844,-0.23437 -0.21484,-0.49219 -0.21484,-0.78125 0,-0.25781 0.0586,-0.5 0.17578,-0.72265 0.11719,-0.21875 0.27734,-0.41016 0.48828,-0.56641 0.15625,-0.10156 0.35938,-0.19531 0.625,-0.27344 0.27344,-0.0781 0.55469,-0.11719 0.85938,-0.11719 0.45312,0 0.84765,0.0664 1.1914,0.19532 0.35156,0.13281 0.60938,0.30859 0.78125,0.52734 0.16406,0.22266 0.28125,0.52344 0.35156,0.89844 l -0.97656,0.13672 c -0.0391,-0.29688 -0.17187,-0.53125 -0.39062,-0.70313 -0.21094,-0.16797 -0.50391,-0.2539 -0.87891,-0.2539 -0.46094,0 -0.78125,0.0781 -0.97656,0.23437 -0.19531,0.14453 -0.29297,0.32031 -0.29297,0.52734 0,0.13282 0.0391,0.24219 0.11719,0.33204 0.0781,0.11718 0.20312,0.21093 0.39062,0.27343 0.0859,0.0391 0.375,0.125 0.85938,0.25391 0.70312,0.18359 1.1914,0.33203 1.46484,0.44922 0.28125,0.11719 0.50781,0.29297 0.66406,0.52734 0.15625,0.22266 0.23438,0.50391 0.23438,0.83985 0,0.33984 -0.0977,0.65234 -0.29297,0.9375 -0.19531,0.28906 -0.48047,0.51562 -0.83984,0.68359 -0.35157,0.15625 -0.76172,0.23437 -1.23047,0.23437 -0.75782,0 -1.33985,-0.15625 -1.73828,-0.46875 -0.39063,-0.32421 -0.64063,-0.79296 -0.74219,-1.40625 z m 0,0"
       id="path1012" />
    <path
       style="fill:#000000;fill-opacity:1;fill-rule:nonzero;stroke:none"
       d="m 175.92969,175.44141 v -5.83985 h 0.89843 v 0.83985 c 0.41407,-0.63672 1.03516,-0.95704 1.85547,-0.95704 0.35157,0 0.66797,0.0664 0.95703,0.19532 0.29688,0.11718 0.51954,0.28125 0.66407,0.48828 0.14062,0.19531 0.24609,0.4375 0.3125,0.72265 0.0391,0.1836 0.0586,0.50391 0.0586,0.95704 v 3.59375 h -0.99609 v -3.55469 c 0,-0.40235 -0.0391,-0.70313 -0.11719,-0.89844 -0.0781,-0.19531 -0.21484,-0.35156 -0.41016,-0.46875 -0.19531,-0.12891 -0.42578,-0.19531 -0.68359,-0.19531 -0.41797,0 -0.78125,0.13672 -1.09375,0.41015 -0.30078,0.26172 -0.44922,0.76954 -0.44922,1.52344 v 3.1836 z m 0,0"
       id="path1014" />
    <path
       style="fill:#000000;fill-opacity:1;fill-rule:nonzero;stroke:none"
       d="m 181.81641,172.53125 c 0,-1.07813 0.29687,-1.87891 0.89843,-2.40234 0.50782,-0.42969 1.11719,-0.64454 1.83594,-0.64454 0.80469,0 1.46484,0.26172 1.97266,0.78125 0.50781,0.52344 0.76172,1.2461 0.76172,2.16797 0,0.75782 -0.11719,1.34766 -0.35157,1.77735 -0.22656,0.42968 -0.54687,0.76953 -0.97656,1.01562 -0.42969,0.23438 -0.89844,0.35156 -1.40625,0.35156 -0.82031,0 -1.48437,-0.25781 -1.99219,-0.78125 -0.5,-0.53125 -0.74218,-1.28906 -0.74218,-2.26562 z m 1.01562,0 c 0,0.74219 0.16016,1.30469 0.48828,1.67969 0.32031,0.36718 0.73047,0.54687 1.23047,0.54687 0.49219,0 0.90234,-0.17969 1.23047,-0.54687 0.32031,-0.375 0.48828,-0.94922 0.48828,-1.71875 0,-0.71485 -0.16797,-1.26172 -0.48828,-1.64063 -0.32813,-0.375 -0.73828,-0.5664 -1.23047,-0.5664 -0.5,0 -0.91016,0.1914 -1.23047,0.5664 -0.32812,0.36719 -0.48828,0.92578 -0.48828,1.67969 z m 0,0"
       id="path1016" />
    <path
       style="fill:#000000;fill-opacity:1;fill-rule:nonzero;stroke:none"
       d="m 190.61328,174.5625 0.13672,0.85937 c -0.28906,0.0625 -0.53906,0.0977 -0.74219,0.0977 -0.36719,0 -0.64453,-0.0586 -0.83984,-0.17578 -0.19531,-0.11719 -0.34375,-0.26563 -0.42969,-0.44922 -0.0781,-0.17969 -0.11719,-0.56641 -0.11719,-1.15234 v -3.35938 h -0.72265 v -0.78125 h 0.72265 v -1.44531 l 0.9961,-0.58594 v 2.03125 h 0.99609 v 0.78125 h -0.99609 v 3.39844 c 0,0.28906 0.008,0.46875 0.0391,0.54687 0.0391,0.0781 0.0977,0.14454 0.17578,0.19532 0.0781,0.0547 0.18359,0.0781 0.33203,0.0781 0.11719,0 0.26172,-0.0117 0.44922,-0.0391 z m 0,0"
       id="path1018" />
    <path
       style="fill:#000000;fill-opacity:1;fill-rule:nonzero;stroke:none"
       d="m 216.53125,175.44141 h -0.91797 v -8.04688 h 0.97656 v 2.87109 c 0.41797,-0.51953 0.94922,-0.78125 1.60157,-0.78125 0.36328,0 0.70312,0.0742 1.01562,0.21485 0.32422,0.14453 0.59375,0.34765 0.80078,0.60547 0.20703,0.26172 0.3711,0.58203 0.48828,0.95703 0.11719,0.36719 0.17578,0.75781 0.17578,1.17187 0,1.00391 -0.24609,1.77735 -0.74218,2.32422 -0.4961,0.54688 -1.08594,0.82031 -1.77735,0.82031 -0.6914,0 -1.23047,-0.28515 -1.62109,-0.85937 z m -0.0195,-2.96875 c 0,0.70312 0.0977,1.21093 0.29297,1.52343 0.3125,0.50782 0.73047,0.76172 1.25,0.76172 0.4414,0 0.82031,-0.1875 1.13281,-0.5664 0.3125,-0.375 0.46875,-0.9375 0.46875,-1.67969 0,-0.75391 -0.14844,-1.3125 -0.44922,-1.67969 -0.30078,-0.36328 -0.66406,-0.54687 -1.09375,-0.54687 -0.44141,0 -0.82031,0.1914 -1.13281,0.5664 -0.3125,0.37891 -0.46875,0.91797 -0.46875,1.6211 z m 0,0"
       id="path1020" />
    <path
       style="fill:#000000;fill-opacity:1;fill-rule:nonzero;stroke:none"
       d="m 225.67969,174.71875 c -0.36719,0.3125 -0.71875,0.53516 -1.05469,0.66406 -0.33984,0.125 -0.70313,0.19531 -1.09375,0.19531 -0.64063,0 -1.13281,-0.15625 -1.48438,-0.46875 -0.33984,-0.3125 -0.50781,-0.71484 -0.50781,-1.21093 0,-0.28516 0.0625,-0.54688 0.19531,-0.78125 0.12891,-0.23438 0.29688,-0.42188 0.50782,-0.56641 0.20703,-0.14062 0.4414,-0.25391 0.70312,-0.33203 0.19531,-0.0391 0.48828,-0.082 0.87891,-0.13672 0.80469,-0.0898 1.39844,-0.20703 1.77734,-0.35156 0,-0.12891 0,-0.21485 0,-0.25391 0,-0.40234 -0.0937,-0.68359 -0.27344,-0.83984 -0.26171,-0.23438 -0.64062,-0.35156 -1.13281,-0.35156 -0.46875,0 -0.8164,0.0859 -1.03515,0.2539 -0.22266,0.15625 -0.38672,0.44531 -0.48829,0.85938 l -0.95703,-0.11719 c 0.0781,-0.41406 0.21485,-0.74609 0.41016,-0.99609 0.20703,-0.25782 0.5,-0.45313 0.87891,-0.58594 0.39062,-0.14063 0.83203,-0.21485 1.32812,-0.21485 0.50781,0 0.91016,0.0586 1.21094,0.17579 0.3125,0.11718 0.53906,0.26953 0.68359,0.44921 0.15625,0.17188 0.25781,0.39063 0.3125,0.66407 0.0391,0.17187 0.0586,0.46875 0.0586,0.89843 V 173 c 0,0.91406 0.0195,1.49219 0.0586,1.73828 0.0391,0.25 0.12109,0.48438 0.25391,0.70313 H 225.875 c -0.10547,-0.20704 -0.17188,-0.44922 -0.19531,-0.72266 z m -0.0781,-2.20703 c -0.36719,0.14453 -0.90625,0.26953 -1.62109,0.37109 -0.40625,0.0664 -0.69141,0.13672 -0.85938,0.21485 -0.17187,0.0664 -0.30078,0.17187 -0.39062,0.3125 -0.0937,0.14453 -0.13672,0.30078 -0.13672,0.46875 0,0.26171 0.0977,0.48437 0.29297,0.66406 0.19531,0.17187 0.48828,0.2539 0.8789,0.2539 0.375,0 0.71485,-0.082 1.01563,-0.2539 0.29687,-0.16797 0.51953,-0.39453 0.66406,-0.6836 0.10156,-0.21875 0.15625,-0.54687 0.15625,-0.97656 z m 0,0"
       id="path1022" />
    <path
       style="fill:#000000;fill-opacity:1;fill-rule:nonzero;stroke:none"
       d="m 231.91797,175.44141 v -0.74219 c -0.37891,0.58594 -0.92578,0.8789 -1.64063,0.8789 -0.45703,0 -0.8789,-0.13281 -1.26953,-0.39062 -0.39062,-0.25781 -0.69922,-0.61719 -0.91797,-1.07422 -0.21093,-0.45312 -0.3125,-0.98047 -0.3125,-1.58203 0,-0.58594 0.0977,-1.11328 0.29297,-1.58203 0.19531,-0.48047 0.48047,-0.84375 0.85938,-1.09375 0.39062,-0.2461 0.82422,-0.3711 1.30859,-0.3711 0.35156,0 0.66406,0.0742 0.9375,0.21485 0.27344,0.14453 0.49219,0.33984 0.66406,0.58594 v -2.89063 h 0.9961 v 8.04688 z m -3.125,-2.91016 c 0,0.74219 0.15625,1.30469 0.46875,1.67969 0.3125,0.36718 0.68359,0.54687 1.11328,0.54687 0.42969,0 0.79297,-0.17578 1.09375,-0.52734 0.3125,-0.35156 0.46875,-0.89063 0.46875,-1.6211 0,-0.79296 -0.15625,-1.3789 -0.46875,-1.75781 -0.3125,-0.375 -0.69141,-0.5664 -1.13281,-0.5664 -0.44532,0 -0.81641,0.18359 -1.11328,0.54687 -0.28907,0.36719 -0.42969,0.93359 -0.42969,1.69922 z m 0,0"
       id="path1024" />
    <path
       style="fill:none;stroke:#000000;stroke-width:1;stroke-linecap:round;stroke-linejoin:round;stroke-miterlimit:10;stroke-opacity:1"
       d="M 212,314 V 244.4"
       transform="matrix(1.25,0,0,1.25,-201.25,-230)"
       id="path1026" />
    <path
       style="fill:none;stroke:#000000;stroke-width:1;stroke-linecap:butt;stroke-linejoin:miter;stroke-miterlimit:10;stroke-opacity:1"
       d="m 212,240.4 v 4 m -1.5,0 1.5,-4 1.5,4"
       transform="matrix(1.25,0,0,1.25,-201.25,-230)"
       id="path1028" />
    <path
       style="fill:none;stroke:#000000;stroke-width:1;stroke-linecap:round;stroke-linejoin:round;stroke-miterlimit:10;stroke-opacity:1"
       d="M 244.18125,314 V 244.4"
       transform="matrix(1.25,0,0,1.25,-201.25,-230)"
       id="path1030" />
    <path
       style="fill:none;stroke:#000000;stroke-width:1;stroke-linecap:butt;stroke-linejoin:miter;stroke-miterlimit:10;stroke-opacity:1"
       d="m 244.18125,240.4 v 4 m -1.5,0 1.5,-4 1.5,4"
       transform="matrix(1.25,0,0,1.25,-201.25,-230)"
       id="path1032" />
    <path
       style="fill:none;stroke:#000000;stroke-width:1;stroke-linecap:round;stroke-linejoin:round;stroke-miterlimit:10;stroke-opacity:1"
       d="M 276.20312,314 V 244.4"
       transform="matrix(1.25,0,0,1.25,-201.25,-230)"
       id="path1034" />
    <path
       style="fill:none;stroke:#000000;stroke-width:1;stroke-linecap:butt;stroke-linejoin:miter;stroke-miterlimit:10;stroke-opacity:1"
       d="m 276.20312,240.4 v 4 m -1.5,0 1.5,-4 1.5,4"
       transform="matrix(1.25,0,0,1.25,-201.25,-230)"
       id="path1036" />
    <path
       style="fill:none;stroke:#000000;stroke-width:1;stroke-linecap:round;stroke-linejoin:round;stroke-miterlimit:10;stroke-opacity:1"
       d="M 307.40625,314 V 244.4"
       transform="matrix(1.25,0,0,1.25,-201.25,-230)"
       id="path1038" />
    <path
       style="fill:none;stroke:#000000;stroke-width:1;stroke-linecap:butt;stroke-linejoin:miter;stroke-miterlimit:10;stroke-opacity:1"
       d="m 307.40625,240.4 v 4 m -1.5,0 1.5,-4 1.5,4"
       transform="matrix(1.25,0,0,1.25,-201.25,-230)"
       id="path1040" />
    <path
       style="fill:none;stroke:#000000;stroke-width:1;stroke-linecap:round;stroke-linejoin:round;stroke-miterlimit:10;stroke-opacity:1"
       d="M 340.40625,314 V 244.4"
       transform="matrix(1.25,0,0,1.25,-201.25,-230)"
       id="path1042" />
    <path
       style="fill:none;stroke:#000000;stroke-width:1;stroke-linecap:butt;stroke-linejoin:miter;stroke-miterlimit:10;stroke-opacity:1"
       d="m 340.40625,240.4 v 4 m -1.5,0 1.5,-4 1.5,4"
       transform="matrix(1.25,0,0,1.25,-201.25,-230)"
       id="path1044" />
    <path
       style="fill:#66bdff;fill-opacity:1;fill-rule:nonzero;stroke:none"
       d="M 0.625,68.125 H 49.257812 V 41.558594 H 0.625 Z m 0,0"
       id="path1046" />
    <path
       style="fill:none;stroke:#000000;stroke-width:1;stroke-linecap:round;stroke-linejoin:round;stroke-miterlimit:10;stroke-opacity:1"
       d="m 161.5,217.24687 h 38.90625 V 238.5 H 161.5 Z m 0,0"
       transform="matrix(1.25,0,0,1.25,-201.25,-230)"
       id="path1048" />
    <path
       style="fill:#000000;fill-opacity:1;fill-rule:nonzero;stroke:none"
       d="m 18.359375,58.410156 v -8.046875 h 5.429687 v 0.9375 h -4.355468 v 2.5 h 3.769531 v 0.957031 h -3.769531 v 3.652344 z m 0,0"
       id="path1050" />
    <path
       style="fill:#000000;fill-opacity:1;fill-rule:nonzero;stroke:none"
       d="m 30.9375,55.578125 1.054688,0.273437 c -0.226563,0.871094 -0.625,1.542969 -1.210938,2.011719 -0.578125,0.457031 -1.285156,0.683594 -2.128906,0.683594 -0.859375,0 -1.5625,-0.175781 -2.109375,-0.527344 -0.546875,-0.351562 -0.96875,-0.859375 -1.25,-1.523437 -0.273438,-0.675782 -0.410157,-1.398438 -0.410157,-2.167969 0,-0.847656 0.15625,-1.582031 0.46875,-2.207031 0.320313,-0.625 0.78125,-1.09375 1.367188,-1.40625 0.59375,-0.324219 1.25,-0.488282 1.953125,-0.488282 0.804687,0 1.484375,0.207032 2.03125,0.625 0.554687,0.402344 0.941406,0.976563 1.152344,1.71875 l -1.054688,0.234376 C 30.613281,52.21875 30.351562,51.796875 30,51.535156 29.648438,51.261719 29.199219,51.125 28.652344,51.125 c -0.617188,0 -1.128906,0.148438 -1.542969,0.449219 -0.421875,0.300781 -0.714844,0.703125 -0.878906,1.210937 -0.171875,0.496094 -0.253907,1.003906 -0.253907,1.523438 0,0.691406 0.09766,1.296875 0.292969,1.816406 0.203125,0.507812 0.515625,0.886719 0.9375,1.132812 0.414063,0.246094 0.867188,0.371094 1.367188,0.371094 0.59375,0 1.097656,-0.167968 1.503906,-0.507812 0.414063,-0.351563 0.703125,-0.867188 0.859375,-1.542969 z m 0,0"
       id="path1052" />
    <path
       style="fill:#000000;fill-opacity:1;fill-rule:nonzero;stroke:none"
       d="M 6.105469,13.875 V 5.828125 h 3.046875 c 0.53125,0 0.941406,0.03125 1.230468,0.078125 0.390626,0.070312 0.710938,0.191406 0.976563,0.371094 0.273437,0.1875 0.488281,0.445312 0.644531,0.78125 0.164063,0.328125 0.253906,0.695312 0.253906,1.09375 0,0.695312 -0.226562,1.269531 -0.664062,1.738281 C 11.164062,10.359375 10.382812,10.59375 9.25,10.59375 H 7.179688 V 13.875 Z M 7.179688,9.65625 h 2.089843 c 0.671875,0 1.15625,-0.125 1.445313,-0.390625 0.296875,-0.257813 0.449218,-0.613281 0.449218,-1.074219 0,-0.335937 -0.08984,-0.625 -0.253906,-0.859375 C 10.738281,7.089844 10.507812,6.921875 10.226562,6.84375 10.054688,6.796875 9.722656,6.765625 9.230469,6.765625 H 7.179688 Z m 0,0"
       id="path1054" />
    <path
       style="fill:#000000;fill-opacity:1;fill-rule:nonzero;stroke:none"
       d="m 13.121094,10.964844 c 0,-1.078125 0.296875,-1.878906 0.898437,-2.402344 0.507813,-0.429688 1.117188,-0.644531 1.835938,-0.644531 0.804687,0 1.464843,0.265625 1.972656,0.78125 0.507813,0.523437 0.761719,1.246093 0.761719,2.167969 0,0.757812 -0.117188,1.347656 -0.351563,1.777343 -0.226562,0.429688 -0.546875,0.773438 -0.976562,1.015625 -0.429688,0.234375 -0.898438,0.351563 -1.40625,0.351563 -0.820313,0 -1.484375,-0.257813 -1.992188,-0.78125 -0.5,-0.53125 -0.742187,-1.289063 -0.742187,-2.265625 z m 1.015625,0 c 0,0.742187 0.160156,1.304687 0.488281,1.679687 0.320312,0.367188 0.730469,0.546875 1.230469,0.546875 0.492187,0 0.902343,-0.179687 1.230469,-0.546875 0.320312,-0.375 0.488281,-0.945312 0.488281,-1.71875 0,-0.710937 -0.167969,-1.257812 -0.488281,-1.640625 -0.328126,-0.375 -0.738282,-0.566406 -1.230469,-0.566406 -0.5,0 -0.910157,0.191406 -1.230469,0.566406 -0.328125,0.367188 -0.488281,0.929688 -0.488281,1.679688 z m 0,0"
       id="path1056" />
    <path
       style="fill:#000000;fill-opacity:1;fill-rule:nonzero;stroke:none"
       d="m 19.359375,12.136719 0.976563,-0.15625 c 0.04687,0.390625 0.199218,0.695312 0.449218,0.898437 0.257813,0.210938 0.609375,0.3125 1.054688,0.3125 0.453125,0 0.789062,-0.08594 1.015625,-0.273437 0.21875,-0.179688 0.332031,-0.394531 0.332031,-0.644531 0,-0.234376 -0.09766,-0.410157 -0.292969,-0.527344 -0.148437,-0.08594 -0.484375,-0.203125 -1.015625,-0.351563 -0.734375,-0.179687 -1.242187,-0.335937 -1.523437,-0.46875 -0.273438,-0.125 -0.484375,-0.3125 -0.625,-0.546875 -0.148438,-0.234375 -0.214844,-0.492187 -0.214844,-0.78125 0,-0.257812 0.05859,-0.496094 0.175781,-0.722656 0.117188,-0.21875 0.277344,-0.410156 0.488282,-0.566406 0.15625,-0.101563 0.359374,-0.195313 0.625,-0.273438 0.273437,-0.078125 0.554687,-0.117187 0.859374,-0.117187 0.453126,0 0.847657,0.070312 1.191407,0.195312 0.351562,0.132813 0.609375,0.308594 0.78125,0.527344 0.164062,0.226563 0.28125,0.523437 0.351562,0.898437 L 23.011719,9.675781 C 22.972656,9.378906 22.839844,9.144531 22.621094,8.972656 22.410156,8.808594 22.117188,8.71875 21.742188,8.71875 c -0.460938,0 -0.78125,0.078125 -0.976563,0.234375 -0.195313,0.148437 -0.292969,0.324219 -0.292969,0.527344 0,0.132812 0.03906,0.246093 0.117188,0.332031 0.07813,0.117188 0.203125,0.210938 0.390625,0.273438 0.08594,0.03906 0.375,0.128906 0.859375,0.253906 0.703125,0.1875 1.191406,0.332031 1.464844,0.449218 0.28125,0.117188 0.507812,0.292969 0.664062,0.527344 0.15625,0.226563 0.234375,0.503906 0.234375,0.839844 0,0.34375 -0.09766,0.65625 -0.292969,0.9375 -0.195312,0.289062 -0.480468,0.519531 -0.839844,0.683594 -0.351562,0.15625 -0.761718,0.234375 -1.230468,0.234375 -0.757813,0 -1.339844,-0.15625 -1.738282,-0.46875 -0.390624,-0.320313 -0.640624,-0.789063 -0.742187,-1.40625 z m 0,0"
       id="path1058" />
    <path
       style="fill:#000000;fill-opacity:1;fill-rule:nonzero;stroke:none"
       d="M 25.375,6.960938 V 5.828125 h 0.996094 v 1.132813 z m 0,6.914062 V 8.035156 h 0.996094 V 13.875 Z m 0,0"
       id="path1060" />
    <path
       style="fill:#000000;fill-opacity:1;fill-rule:nonzero;stroke:none"
       d="m 30.042969,12.996094 0.136719,0.859375 c -0.289063,0.06641 -0.539063,0.09766 -0.742188,0.09766 -0.367188,0 -0.644531,-0.05859 -0.839844,-0.175781 -0.195312,-0.117188 -0.34375,-0.261719 -0.429687,-0.449219 -0.07813,-0.179687 -0.117188,-0.566406 -0.117188,-1.152344 V 8.816406 h -0.722656 v -0.78125 h 0.722656 V 6.589844 l 0.996094,-0.585938 v 2.03125 h 0.996094 v 0.78125 h -0.996094 v 3.398438 c 0,0.289062 0.0078,0.46875 0.03906,0.546875 0.03906,0.07813 0.09766,0.148437 0.175781,0.195312 0.07813,0.05469 0.183593,0.07813 0.332031,0.07813 0.117188,0 0.261719,-0.0078 0.449219,-0.03906 z m 0,0"
       id="path1062" />
    <path
       style="fill:#000000;fill-opacity:1;fill-rule:nonzero;stroke:none"
       d="M 31,6.960938 V 5.828125 h 0.996094 V 6.960938 Z M 31,13.875 V 8.035156 h 0.996094 V 13.875 Z m 0,0"
       id="path1064" />
    <path
       style="fill:#000000;fill-opacity:1;fill-rule:nonzero;stroke:none"
       d="M 35.121094,13.875 32.894531,8.035156 h 1.054688 l 1.25,3.496094 c 0.125,0.382812 0.253906,0.773438 0.371093,1.171875 0.08594,-0.296875 0.214844,-0.664063 0.371094,-1.09375 l 1.289063,-3.574219 h 1.015625 L 36.039062,13.875 Z m 0,0"
       id="path1066" />
    <path
       style="fill:#000000;fill-opacity:1;fill-rule:nonzero;stroke:none"
       d="m 43.109375,12 1.035156,0.117188 c -0.171875,0.601562 -0.480469,1.070312 -0.917969,1.40625 -0.429687,0.328124 -0.988281,0.488281 -1.660156,0.488281 -0.851562,0 -1.523437,-0.257813 -2.03125,-0.78125 -0.5,-0.53125 -0.742187,-1.273438 -0.742187,-2.226563 0,-0.976562 0.253906,-1.726562 0.761719,-2.265625 0.507812,-0.546875 1.160156,-0.820312 1.972656,-0.820312 0.78125,0 1.410156,0.269531 1.894531,0.800781 0.492187,0.523438 0.742187,1.265625 0.742187,2.226562 0,0.07031 0,0.15625 0,0.273438 h -4.355468 c 0.03906,0.640625 0.21875,1.128906 0.546875,1.464844 0.320312,0.34375 0.730469,0.507812 1.230469,0.507812 0.359374,0 0.667968,-0.08594 0.917968,-0.273437 C 42.761719,12.722656 42.960938,12.421875 43.109375,12 Z m -3.242187,-1.601562 h 3.261718 C 43.089844,9.90625 42.960938,9.535156 42.757812,9.285156 42.445312,8.910156 42.035156,8.71875 41.527344,8.71875 41.066406,8.71875 40.6875,8.875 40.375,9.1875 40.070312,9.492188 39.90625,9.890625 39.867188,10.398438 Z m 0,0"
       id="path1068" />
    <path
       style="fill:none;stroke:#000000;stroke-width:1;stroke-linecap:round;stroke-linejoin:round;stroke-miterlimit:10;stroke-opacity:1"
       d="M 180.95312,314 V 244.4"
       transform="matrix(1.25,0,0,1.25,-201.25,-230)"
       id="path1070" />
    <path
       style="fill:none;stroke:#000000;stroke-width:1;stroke-linecap:butt;stroke-linejoin:miter;stroke-miterlimit:10;stroke-opacity:1"
       d="m 180.95312,240.4 v 4 m -1.5,0 1.5,-4 1.5,4"
       transform="matrix(1.25,0,0,1.25,-201.25,-230)"
       id="path1072" />
    <path
       style="fill:#b0d9ff;fill-opacity:1;fill-rule:nonzero;stroke:none"
       d="M 0.625,147.5 H 248.57422 V 90 H 0.625 Z m 0,0"
       id="path1074" />
    <path
       style="fill:none;stroke:#000000;stroke-width:1;stroke-linecap:round;stroke-linejoin:round;stroke-miterlimit:10;stroke-opacity:1"
       d="m 161.5,256 h 198.35937 v 46 H 161.5 Z m 0,0"
       transform="matrix(1.25,0,0,1.25,-201.25,-230)"
       id="path1076" />
    <path
       style="fill:#000000;fill-opacity:1;fill-rule:nonzero;stroke:none"
       d="m 75.199219,122.31641 v -7.10938 H 72.5625 v -0.9375 h 6.367188 v 0.9375 h -2.65625 v 7.10938 z m 0,0"
       id="path1078" />
    <path
       style="fill:#000000;fill-opacity:1;fill-rule:nonzero;stroke:none"
       d="m 79.464844,122.31641 v -5.83985 h 0.898437 v 0.89844 c 0.21875,-0.41406 0.429688,-0.6875 0.625,-0.82031 0.195313,-0.12891 0.410157,-0.19531 0.644531,-0.19531 0.320313,0 0.664063,0.10546 1.015626,0.3125 l -0.351563,0.91796 C 82.0625,117.44922 81.816406,117.375 81.574219,117.375 c -0.210938,0 -0.40625,0.0664 -0.585938,0.19531 -0.171875,0.13282 -0.292969,0.3125 -0.371093,0.54688 -0.109376,0.35156 -0.15625,0.73828 -0.15625,1.15234 v 3.04688 z m 0,0"
       id="path1080" />
    <path
       style="fill:#000000;fill-opacity:1;fill-rule:nonzero;stroke:none"
       d="m 87.039062,121.59375 c -0.367187,0.3125 -0.71875,0.53516 -1.054687,0.66406 -0.34375,0.125 -0.703125,0.19532 -1.09375,0.19532 -0.640625,0 -1.132813,-0.15625 -1.484375,-0.46875 -0.34375,-0.3125 -0.507812,-0.71485 -0.507812,-1.21094 0,-0.28516 0.0625,-0.54688 0.195312,-0.78125 0.125,-0.23438 0.296875,-0.42188 0.507812,-0.56641 0.203126,-0.14062 0.4375,-0.2539 0.703126,-0.33203 0.195312,-0.0391 0.488281,-0.082 0.878906,-0.13672 0.804687,-0.0898 1.394531,-0.20703 1.777344,-0.35156 0,-0.12891 0,-0.21484 0,-0.25391 0,-0.40234 -0.09375,-0.68359 -0.273438,-0.83984 -0.265625,-0.23438 -0.640625,-0.35156 -1.132812,-0.35156 -0.46875,0 -0.816407,0.0859 -1.035157,0.2539 -0.226562,0.15625 -0.386719,0.44532 -0.488281,0.85938 l -0.957031,-0.11719 c 0.07813,-0.41406 0.214843,-0.74609 0.410156,-0.99609 0.203125,-0.25782 0.496094,-0.45313 0.878906,-0.58594 0.390625,-0.14063 0.828125,-0.21484 1.328125,-0.21484 0.507813,0 0.90625,0.0586 1.210938,0.17578 0.3125,0.11718 0.535156,0.26953 0.683594,0.44922 0.15625,0.17187 0.257812,0.39062 0.3125,0.66406 0.03906,0.17187 0.05859,0.46875 0.05859,0.89844 v 1.32812 c 0,0.91406 0.01953,1.49219 0.05859,1.73828 0.03906,0.25 0.121094,0.48438 0.253906,0.70313 H 87.234375 C 87.125,122.10938 87.0625,121.86719 87.039062,121.59375 Z m -0.07812,-2.20703 c -0.367188,0.14453 -0.910157,0.26953 -1.621094,0.37109 -0.40625,0.0664 -0.695313,0.13672 -0.859375,0.21485 -0.171875,0.0664 -0.304688,0.17187 -0.390625,0.3125 -0.09375,0.14453 -0.136719,0.30078 -0.136719,0.46875 0,0.26172 0.09766,0.48437 0.292969,0.66406 0.195312,0.17187 0.488281,0.25391 0.878906,0.25391 0.375,0 0.710938,-0.082 1.015625,-0.25391 0.296875,-0.16797 0.515625,-0.39453 0.664063,-0.68359 0.101562,-0.21875 0.15625,-0.54688 0.15625,-0.97657 z m 0,0"
       id="path1082" />
    <path
       style="fill:#000000;fill-opacity:1;fill-rule:nonzero;stroke:none"
       d="m 89.488281,122.31641 v -5.83985 h 0.898438 v 0.83985 c 0.414062,-0.63672 1.035156,-0.95703 1.855469,-0.95703 0.351562,0 0.667968,0.0664 0.957031,0.19531 0.296875,0.11719 0.515625,0.28125 0.664062,0.48828 0.140625,0.19531 0.242188,0.4375 0.3125,0.72266 0.03906,0.18359 0.05859,0.5039 0.05859,0.95703 v 3.59375 h -0.996094 v -3.55469 c 0,-0.40234 -0.03906,-0.70313 -0.117187,-0.89844 -0.07813,-0.19531 -0.214844,-0.35156 -0.410156,-0.46875 -0.195313,-0.1289 -0.425782,-0.19531 -0.683594,-0.19531 -0.421875,0 -0.78125,0.13672 -1.09375,0.41016 -0.304688,0.26171 -0.449219,0.76953 -0.449219,1.52343 v 3.1836 z m 0,0"
       id="path1084" />
    <path
       style="fill:#000000;fill-opacity:1;fill-rule:nonzero;stroke:none"
       d="m 95.355469,120.57813 0.976562,-0.15625 c 0.04687,0.39062 0.199219,0.6914 0.449219,0.89843 0.257812,0.21094 0.609375,0.3125 1.054688,0.3125 0.453124,0 0.789062,-0.0898 1.015624,-0.27343 0.21875,-0.17969 0.332032,-0.39454 0.332032,-0.64454 0,-0.23437 -0.09766,-0.41015 -0.292969,-0.52734 -0.148437,-0.0898 -0.484375,-0.20703 -1.015625,-0.35156 -0.734375,-0.17969 -1.242188,-0.33594 -1.523438,-0.46875 -0.273437,-0.12891 -0.484374,-0.3125 -0.625,-0.54688 -0.148437,-0.23437 -0.214843,-0.49218 -0.214843,-0.78125 0,-0.25781 0.05859,-0.5 0.175781,-0.72265 0.117188,-0.21875 0.277344,-0.41016 0.488281,-0.56641 0.15625,-0.10156 0.359375,-0.19531 0.625,-0.27344 0.273438,-0.0781 0.554688,-0.11718 0.859375,-0.11718 0.453125,0 0.847656,0.0664 1.191406,0.19531 0.351563,0.13281 0.609376,0.30859 0.78125,0.52734 0.164063,0.22266 0.28125,0.52344 0.351563,0.89844 l -0.976563,0.13672 c -0.03906,-0.29688 -0.171874,-0.53125 -0.390624,-0.70313 -0.210938,-0.16797 -0.503907,-0.2539 -0.878907,-0.2539 -0.460937,0 -0.78125,0.0781 -0.976562,0.23437 -0.195313,0.14453 -0.292969,0.32031 -0.292969,0.52735 0,0.13281 0.03906,0.24218 0.117188,0.33203 0.07812,0.11718 0.203124,0.21093 0.390624,0.27343 0.08594,0.0391 0.375,0.125 0.859376,0.25391 0.703124,0.18359 1.191406,0.33203 1.464843,0.44922 0.28125,0.11719 0.507813,0.29297 0.664063,0.52734 0.156246,0.22266 0.234376,0.50391 0.234376,0.83985 0,0.33984 -0.0977,0.65234 -0.29297,0.9375 -0.195312,0.28906 -0.480469,0.51562 -0.839844,0.68359 -0.351562,0.15625 -0.761718,0.23438 -1.230468,0.23438 -0.757813,0 -1.339844,-0.15625 -1.738282,-0.46875 -0.390625,-0.32422 -0.640625,-0.79297 -0.742187,-1.40625 z m 0,0"
       id="path1086" />
    <path
       style="fill:#000000;fill-opacity:1;fill-rule:nonzero;stroke:none"
       d="m 101.60547,122.31641 v -5.0586 h -0.87891 v -0.78125 h 0.87891 v -0.60547 c 0,-0.40234 0.0273,-0.69531 0.0977,-0.8789 0.10156,-0.25781 0.27343,-0.46875 0.50781,-0.625 0.24219,-0.15625 0.58594,-0.23438 1.01562,-0.23438 0.27344,0 0.57422,0.0352 0.91797,0.0977 l -0.15625,0.85937 c -0.19531,-0.0391 -0.38672,-0.0586 -0.5664,-0.0586 -0.30469,0 -0.51954,0.0664 -0.64454,0.19531 -0.13281,0.13282 -0.19531,0.3711 -0.19531,0.72266 v 0.52734 h 1.15235 v 0.78125 h -1.15235 v 5.0586 z m 0,0"
       id="path1088" />
    <path
       style="fill:#000000;fill-opacity:1;fill-rule:nonzero;stroke:none"
       d="m 104.125,119.40625 c 0,-1.07812 0.29688,-1.87891 0.89844,-2.40234 0.50781,-0.42969 1.11719,-0.64453 1.83594,-0.64453 0.80468,0 1.46484,0.26171 1.97265,0.78125 0.50781,0.52343 0.76172,1.24609 0.76172,2.16796 0,0.75782 -0.11719,1.34766 -0.35156,1.77735 -0.22656,0.42969 -0.54688,0.76953 -0.97656,1.01562 -0.42969,0.23438 -0.89844,0.35157 -1.40625,0.35157 -0.82032,0 -1.48438,-0.25782 -1.99219,-0.78125 -0.5,-0.53125 -0.74219,-1.28907 -0.74219,-2.26563 z m 1.01563,0 c 0,0.74219 0.16015,1.30469 0.48828,1.67969 0.32031,0.36719 0.73047,0.54687 1.23047,0.54687 0.49218,0 0.90234,-0.17968 1.23046,-0.54687 0.32032,-0.375 0.48829,-0.94922 0.48829,-1.71875 0,-0.71485 -0.16797,-1.26172 -0.48829,-1.64063 -0.32812,-0.375 -0.73828,-0.5664 -1.23046,-0.5664 -0.5,0 -0.91016,0.1914 -1.23047,0.5664 -0.32813,0.36719 -0.48828,0.92578 -0.48828,1.67969 z m 0,0"
       id="path1090" />
    <path
       style="fill:#000000;fill-opacity:1;fill-rule:nonzero;stroke:none"
       d="m 110.73438,122.31641 v -5.83985 h 0.89843 v 0.89844 c 0.21875,-0.41406 0.42969,-0.6875 0.625,-0.82031 0.19532,-0.12891 0.41016,-0.19531 0.64453,-0.19531 0.32032,0 0.66407,0.10546 1.01563,0.3125 l -0.35156,0.91796 c -0.23438,-0.14062 -0.48047,-0.21484 -0.72266,-0.21484 -0.21094,0 -0.40625,0.0664 -0.58594,0.19531 -0.17187,0.13282 -0.29297,0.3125 -0.37109,0.54688 -0.10938,0.35156 -0.15625,0.73828 -0.15625,1.15234 v 3.04688 z m 0,0"
       id="path1092" />
    <path
       style="fill:#000000;fill-opacity:1;fill-rule:nonzero;stroke:none"
       d="m 114.5,122.31641 v -5.83985 h 0.87891 v 0.82032 c 0.17968,-0.28516 0.41797,-0.51172 0.72265,-0.6836 0.3125,-0.16797 0.66407,-0.2539 1.05469,-0.2539 0.42969,0 0.78125,0.0937 1.05469,0.27343 0.27344,0.17188 0.46875,0.41797 0.58594,0.74219 0.46875,-0.67578 1.0625,-1.01562 1.79687,-1.01562 0.58594,0 1.03516,0.16406 1.34766,0.48828 0.3125,0.3125 0.46875,0.80078 0.46875,1.46484 v 4.00391 h -0.9961 v -3.67188 c 0,-0.40234 -0.0352,-0.6875 -0.0977,-0.85937 -0.0547,-0.16797 -0.16797,-0.30469 -0.33203,-0.41016 -0.17188,-0.11719 -0.3711,-0.17578 -0.60547,-0.17578 -0.40625,0 -0.74219,0.13672 -1.01563,0.41016 -0.27344,0.27343 -0.41015,0.71093 -0.41015,1.30859 v 3.39844 h -0.9961 v -3.78907 c 0,-0.4414 -0.0781,-0.77343 -0.23437,-0.99609 -0.15625,-0.21875 -0.42188,-0.33203 -0.78125,-0.33203 -0.28907,0 -0.54688,0.0781 -0.78125,0.23437 -0.23438,0.14454 -0.40625,0.35938 -0.50782,0.64454 -0.10937,0.27343 -0.15625,0.67968 -0.15625,1.21093 v 3.02735 z m 0,0"
       id="path1094" />
    <path
       style="fill:#000000;fill-opacity:1;fill-rule:nonzero;stroke:none"
       d="m 127.85547,120.44141 1.03515,0.11718 c -0.17187,0.60157 -0.48046,1.07032 -0.91796,1.40625 -0.42969,0.32813 -0.98828,0.48829 -1.66016,0.48829 -0.85156,0 -1.52344,-0.25782 -2.03125,-0.78125 -0.5,-0.53125 -0.74219,-1.27344 -0.74219,-2.22657 0,-0.97656 0.25391,-1.73047 0.76172,-2.26562 0.50781,-0.54688 1.16016,-0.82031 1.97266,-0.82031 0.78125,0 1.41015,0.26953 1.89453,0.80078 0.49219,0.52343 0.74219,1.26562 0.74219,2.22656 0,0.0664 0,0.15625 0,0.27344 h -4.35547 c 0.0391,0.64062 0.21875,1.1289 0.54687,1.46484 0.32032,0.33984 0.73047,0.50781 1.23047,0.50781 0.35938,0 0.66797,-0.0898 0.91797,-0.27343 0.25781,-0.19532 0.45703,-0.5 0.60547,-0.91797 z m -3.24219,-1.60157 h 3.26172 c -0.0391,-0.49218 -0.16797,-0.86328 -0.37109,-1.11328 -0.3125,-0.375 -0.72266,-0.5664 -1.23047,-0.5664 -0.46094,0 -0.83985,0.15625 -1.15235,0.46875 -0.30468,0.30078 -0.46875,0.70312 -0.50781,1.21093 z m 0,0"
       id="path1096" />
    <path
       style="fill:#000000;fill-opacity:1;fill-rule:nonzero;stroke:none"
       d="m 130.10937,122.31641 v -5.83985 h 0.89844 v 0.89844 c 0.21875,-0.41406 0.42969,-0.6875 0.625,-0.82031 0.19531,-0.12891 0.41016,-0.19531 0.64453,-0.19531 0.32032,0 0.66407,0.10546 1.01563,0.3125 l -0.35156,0.91796 c -0.23438,-0.14062 -0.48047,-0.21484 -0.72266,-0.21484 -0.21094,0 -0.40625,0.0664 -0.58594,0.19531 -0.17187,0.13282 -0.29297,0.3125 -0.37109,0.54688 -0.10938,0.35156 -0.15625,0.73828 -0.15625,1.15234 v 3.04688 z m 0,0"
       id="path1098" />
    <path
       style="fill:#000000;fill-opacity:1;fill-rule:nonzero;stroke:none"
       d="m 140.98437,120.44141 1.03516,0.11718 c -0.17187,0.60157 -0.48047,1.07032 -0.91797,1.40625 -0.42969,0.32813 -0.98828,0.48829 -1.66015,0.48829 -0.85157,0 -1.52344,-0.25782 -2.03125,-0.78125 -0.5,-0.53125 -0.74219,-1.27344 -0.74219,-2.22657 0,-0.97656 0.2539,-1.73047 0.76172,-2.26562 0.50781,-0.54688 1.16015,-0.82031 1.97265,-0.82031 0.78125,0 1.41016,0.26953 1.89453,0.80078 0.49219,0.52343 0.74219,1.26562 0.74219,2.22656 0,0.0664 0,0.15625 0,0.27344 h -4.35547 c 0.0391,0.64062 0.21875,1.1289 0.54688,1.46484 0.32031,0.33984 0.73047,0.50781 1.23047,0.50781 0.35937,0 0.66797,-0.0898 0.91797,-0.27343 0.25781,-0.19532 0.45703,-0.5 0.60546,-0.91797 z m -3.24218,-1.60157 h 3.26172 c -0.0391,-0.49218 -0.16797,-0.86328 -0.3711,-1.11328 -0.3125,-0.375 -0.72265,-0.5664 -1.23047,-0.5664 -0.46093,0 -0.83984,0.15625 -1.15234,0.46875 -0.30469,0.30078 -0.46875,0.70312 -0.50781,1.21093 z m 0,0"
       id="path1100" />
    <path
       style="fill:#000000;fill-opacity:1;fill-rule:nonzero;stroke:none"
       d="m 143.25781,122.31641 v -5.83985 h 0.89844 v 0.83985 c 0.41406,-0.63672 1.03516,-0.95703 1.85547,-0.95703 0.35156,0 0.66797,0.0664 0.95703,0.19531 0.29687,0.11719 0.51562,0.28125 0.66406,0.48828 0.14063,0.19531 0.24219,0.4375 0.3125,0.72266 0.0391,0.18359 0.0586,0.5039 0.0586,0.95703 v 3.59375 h -0.9961 v -3.55469 c 0,-0.40234 -0.0391,-0.70313 -0.11719,-0.89844 -0.0781,-0.19531 -0.21484,-0.35156 -0.41015,-0.46875 -0.19531,-0.1289 -0.42578,-0.19531 -0.6836,-0.19531 -0.42187,0 -0.78125,0.13672 -1.09375,0.41016 -0.30468,0.26171 -0.44921,0.76953 -0.44921,1.52343 v 3.1836 z m 0,0"
       id="path1102" />
    <path
       style="fill:#000000;fill-opacity:1;fill-rule:nonzero;stroke:none"
       d="m 153.32031,120.1875 0.97656,0.11719 c -0.10546,0.67969 -0.3789,1.20703 -0.82031,1.58203 -0.4414,0.37891 -0.98437,0.56641 -1.62109,0.56641 -0.79297,0 -1.4336,-0.25782 -1.91406,-0.78125 -0.48047,-0.51954 -0.72266,-1.26954 -0.72266,-2.2461 0,-0.63672 0.10547,-1.1914 0.3125,-1.66015 0.20703,-0.46875 0.51953,-0.82032 0.9375,-1.05469 0.42969,-0.23438 0.89844,-0.35156 1.40625,-0.35156 0.625,0 1.14062,0.16406 1.54297,0.48828 0.40234,0.3125 0.66406,0.76172 0.78125,1.34765 l -0.95703,0.15625 c -0.0898,-0.39062 -0.25391,-0.68359 -0.48828,-0.8789 -0.23438,-0.20703 -0.51563,-0.3125 -0.83985,-0.3125 -0.50781,0 -0.91797,0.18359 -1.23047,0.54687 -0.30078,0.35156 -0.44922,0.91406 -0.44922,1.67969 0,0.79687 0.14844,1.36719 0.44922,1.71875 0.30078,0.35156 0.69141,0.52734 1.17188,0.52734 0.39062,0 0.71484,-0.11718 0.97656,-0.35156 0.26172,-0.23437 0.42188,-0.59766 0.48828,-1.09375 z m 0,0"
       id="path1104" />
    <path
       style="fill:#000000;fill-opacity:1;fill-rule:nonzero;stroke:none"
       d="m 154.76562,119.40625 c 0,-1.07812 0.30079,-1.87891 0.89844,-2.40234 0.50781,-0.42969 1.1211,-0.64453 1.83594,-0.64453 0.80859,0 1.46484,0.26171 1.97266,0.78125 0.50781,0.52343 0.76171,1.24609 0.76171,2.16796 0,0.75782 -0.11718,1.34766 -0.35156,1.77735 -0.22265,0.42969 -0.54687,0.76953 -0.97656,1.01562 -0.42969,0.23438 -0.89844,0.35157 -1.40625,0.35157 -0.82031,0 -1.48438,-0.25782 -1.99219,-0.78125 -0.49609,-0.53125 -0.74219,-1.28907 -0.74219,-2.26563 z m 1.01563,0 c 0,0.74219 0.16406,1.30469 0.48828,1.67969 0.32422,0.36719 0.73438,0.54687 1.23047,0.54687 0.49609,0 0.90625,-0.17968 1.23047,-0.54687 0.32422,-0.375 0.48828,-0.94922 0.48828,-1.71875 0,-0.71485 -0.16406,-1.26172 -0.48828,-1.64063 -0.32422,-0.375 -0.73438,-0.5664 -1.23047,-0.5664 -0.49609,0 -0.90625,0.1914 -1.23047,0.5664 -0.32422,0.36719 -0.48828,0.92578 -0.48828,1.67969 z m 0,0"
       id="path1106" />
    <path
       style="fill:#000000;fill-opacity:1;fill-rule:nonzero;stroke:none"
       d="m 165.18359,122.31641 v -0.74219 c -0.3789,0.58594 -0.92578,0.87891 -1.64062,0.87891 -0.45703,0 -0.87891,-0.13282 -1.26953,-0.39063 -0.39063,-0.25781 -0.69922,-0.61719 -0.91797,-1.07422 -0.21094,-0.45312 -0.3125,-0.98047 -0.3125,-1.58203 0,-0.58594 0.0977,-1.11328 0.29297,-1.58203 0.19531,-0.48047 0.48047,-0.84375 0.85937,-1.09375 0.39063,-0.24609 0.82422,-0.37109 1.3086,-0.37109 0.35156,0 0.66406,0.0742 0.9375,0.21484 0.27343,0.14453 0.49218,0.33984 0.66406,0.58594 v -2.89063 h 0.99609 v 8.04688 z m -3.125,-2.91016 c 0,0.74219 0.15625,1.30469 0.46875,1.67969 0.3125,0.36719 0.6836,0.54687 1.11328,0.54687 0.42969,0 0.79297,-0.17578 1.09375,-0.52734 0.3125,-0.35156 0.46875,-0.89063 0.46875,-1.62109 0,-0.79297 -0.15625,-1.37891 -0.46875,-1.75782 -0.3125,-0.375 -0.6914,-0.5664 -1.13281,-0.5664 -0.44531,0 -0.8164,0.18359 -1.11328,0.54687 -0.28906,0.36719 -0.42969,0.9336 -0.42969,1.69922 z m 0,0"
       id="path1108" />
    <path
       style="fill:#000000;fill-opacity:1;fill-rule:nonzero;stroke:none"
       d="m 171.63672,120.44141 1.03515,0.11718 c -0.17187,0.60157 -0.47656,1.07032 -0.91796,1.40625 -0.42969,0.32813 -0.98438,0.48829 -1.66016,0.48829 -0.84766,0 -1.52344,-0.25782 -2.03125,-0.78125 -0.49609,-0.53125 -0.74219,-1.27344 -0.74219,-2.22657 0,-0.97656 0.25391,-1.73047 0.76172,-2.26562 0.50781,-0.54688 1.16406,-0.82031 1.97266,-0.82031 0.78125,0 1.41015,0.26953 1.89453,0.80078 0.49219,0.52343 0.74219,1.26562 0.74219,2.22656 0,0.0664 0,0.15625 0,0.27344 h -4.35547 c 0.0391,0.64062 0.21875,1.1289 0.54687,1.46484 0.32422,0.33984 0.73438,0.50781 1.23047,0.50781 0.36328,0 0.66797,-0.0898 0.91797,-0.27343 0.25781,-0.19532 0.46094,-0.5 0.60547,-0.91797 z m -3.24219,-1.60157 h 3.26172 c -0.0391,-0.49218 -0.16406,-0.86328 -0.37109,-1.11328 -0.3125,-0.375 -0.72266,-0.5664 -1.23047,-0.5664 -0.45703,0 -0.83985,0.15625 -1.15235,0.46875 -0.30078,0.30078 -0.46875,0.70312 -0.50781,1.21093 z m 0,0"
       id="path1110" />
    <path
       style="fill:#000000;fill-opacity:1;fill-rule:nonzero;stroke:none"
       d="m 173.89062,122.31641 v -5.83985 h 0.89844 v 0.89844 c 0.21875,-0.41406 0.42969,-0.6875 0.625,-0.82031 0.19531,-0.12891 0.41016,-0.19531 0.64453,-0.19531 0.32032,0 0.66407,0.10546 1.01563,0.3125 l -0.35156,0.91796 C 176.48828,117.44922 176.24219,117.375 176,117.375 c -0.21094,0 -0.40625,0.0664 -0.58594,0.19531 -0.17187,0.13282 -0.29297,0.3125 -0.37109,0.54688 -0.10938,0.35156 -0.15625,0.73828 -0.15625,1.15234 v 3.04688 z m 0,0"
       id="path1112" />
    <path
       style="fill:none;stroke:#000000;stroke-width:1;stroke-linecap:round;stroke-linejoin:round;stroke-miterlimit:10;stroke-opacity:1"
       d="M 180.95312,217.24687 V 205.65"
       transform="matrix(1.25,0,0,1.25,-201.25,-230)"
       id="path1114" />
    <path
       style="fill:none;stroke:#000000;stroke-width:1;stroke-linecap:butt;stroke-linejoin:miter;stroke-miterlimit:10;stroke-opacity:1"
       d="m 180.95312,201.65 v 4 m -1.5,0 1.5,-4 1.5,4"
       transform="matrix(1.25,0,0,1.25,-201.25,-230)"
       id="path1116" />
  </g>
</svg>
