<?xml version="1.0" encoding="UTF-8" standalone="no"?>
<!-- Created with Inkscape (http://www.inkscape.org/) -->

<svg
   sodipodi:docname="LinearClassifier].svg"
   inkscape:version="1.1 (1:1.1+202105261517+ce6663b3b7)"
   id="svg89334"
   version="1.1"
   viewBox="0 0 114.77739 110.00014"
   height="110.00014mm"
   width="114.77739mm"
   xmlns:inkscape="http://www.inkscape.org/namespaces/inkscape"
   xmlns:sodipodi="http://sodipodi.sourceforge.net/DTD/sodipodi-0.dtd"
   xmlns="http://www.w3.org/2000/svg"
   xmlns:svg="http://www.w3.org/2000/svg"
   xmlns:ns1="http://www.iki.fi/pav/software/textext/">
  <sodipodi:namedview
     id="namedview89336"
     pagecolor="#ffffff"
     bordercolor="#666666"
     borderopacity="1.0"
     inkscape:pageshadow="2"
     inkscape:pageopacity="0.0"
     inkscape:pagecheckerboard="0"
     inkscape:document-units="mm"
     showgrid="false"
     inkscape:zoom="0.69308361"
     inkscape:cx="238.06651"
     inkscape:cy="196.94593"
     inkscape:window-width="1608"
     inkscape:window-height="986"
     inkscape:window-x="0"
     inkscape:window-y="0"
     inkscape:window-maximized="1"
     inkscape:current-layer="layer1" />
  <defs
     id="defs89331">
    <marker
       style="overflow:visible"
       id="Arrow1Lend"
       refX="0"
       refY="0"
       orient="auto"
       inkscape:stockid="Arrow1Lend"
       inkscape:isstock="true">
      <path
         transform="matrix(-0.8,0,0,-0.8,-10,0)"
         style="fill:context-stroke;fill-rule:evenodd;stroke:context-stroke;stroke-width:1pt"
         d="M 0,0 5,-5 -12.5,0 5,5 Z"
         id="path4413" />
    </marker>
    <g
       id="id-e3ba42eb-e1a8-411d-a664-d5b5d71ae790">
      <symbol
         overflow="visible"
         id="id-472fb776-5c56-406b-a3cd-bb76a730617d">
        <path
           style="stroke:none"
           d=""
           id="id-66b931a1-cfd3-47d6-9fba-99623193cb4d" />
      </symbol>
      <symbol
         overflow="visible"
         id="id-81f143cc-f3bb-4d38-a2d9-6c6d8db3092f">
        <path
           style="stroke:none"
           d="m 7.34375,-3.75 c 0.046875,-0.125 0.09375,-0.203125 0.6875,-0.203125 v -0.46875 C 7.796875,-4.40625 7.5,-4.390625 7.25,-4.390625 c -0.265625,0 -0.734375,-0.03125 -0.953125,-0.03125 v 0.46875 c 0.09375,0 0.578125,0 0.578125,0.109375 0,0.03125 -0.03125,0.09375 -0.03125,0.125 L 5.796875,-1.171875 4.65625,-3.953125 h 0.5625 v -0.46875 c -0.328125,0 -0.84375,0.03125 -1.140625,0.03125 -0.421875,0 -0.84375,-0.03125 -1,-0.03125 v 0.46875 h 0.59375 c 0.203125,0.5 0.203125,0.515625 0.203125,0.53125 0,0.03125 -0.03125,0.09375 -0.03125,0.125 L 3.046875,-1.390625 2,-3.953125 h 0.5625 v -0.46875 c -0.40625,0.015625 -0.8125,0.03125 -1.234375,0.03125 -0.296875,0 -0.734375,-0.03125 -1.078125,-0.03125 v 0.46875 h 0.59375 l 1.515625,3.71875 C 2.4375,-0.0625 2.46875,0.046875 2.71875,0.046875 c 0.25,0 0.296875,-0.109375 0.359375,-0.28125 L 4.140625,-2.8125 5.1875,-0.234375 c 0.078125,0.171875 0.109375,0.28125 0.359375,0.28125 0.25,0 0.296875,-0.109375 0.359375,-0.28125 z m 0,0"
           id="id-27bef393-16ac-45e5-8adf-64034481b6c3" />
      </symbol>
      <symbol
         overflow="visible"
         id="id-cafd5d66-949f-4af9-93fb-979315a1d0f5">
        <path
           style="stroke:none"
           d="M 3.453125,-2.453125 4.609375,-3.75 C 4.75,-3.890625 4.8125,-3.953125 5.625,-3.953125 v -0.46875 c -0.34375,0.015625 -0.859375,0.03125 -0.90625,0.03125 -0.25,0 -0.75,-0.03125 -1.03125,-0.03125 v 0.46875 c 0.140625,0 0.265625,0.015625 0.375,0.078125 -0.03125,0.0625 -0.03125,0.09375 -0.078125,0.125 L 3.15625,-2.8125 2.171875,-3.953125 h 0.40625 v -0.46875 c -0.265625,0 -0.890625,0.03125 -1.21875,0.03125 -0.3125,0 -0.765625,-0.03125 -1.09375,-0.03125 v 0.46875 h 0.71875 L 2.53125,-2.125 1.21875,-0.65625 c -0.15625,0.1875 -0.515625,0.1875 -1,0.1875 V 0 c 0.34375,-0.015625 0.875,-0.03125 0.921875,-0.03125 0.25,0 0.828125,0.015625 1.015625,0.03125 v -0.46875 c -0.171875,0 -0.359375,-0.046875 -0.359375,-0.109375 0,-0.015625 0,-0.015625 0.0625,-0.09375 l 0.96875,-1.09375 1.09375,1.296875 H 3.53125 V 0 c 0.265625,-0.015625 0.875,-0.03125 1.203125,-0.03125 0.3125,0 0.765625,0.015625 1.09375,0.03125 V -0.46875 H 5.125 Z m 0,0"
           id="id-691036c9-ff56-470a-990f-ebed46a8274f" />
      </symbol>
      <symbol
         overflow="visible"
         id="id-d4f00883-7443-4ea9-877c-a802892dc85c">
        <path
           style="stroke:none"
           d=""
           id="id-0089a681-2d9b-4a43-9654-0edaa2ca5dee" />
      </symbol>
      <symbol
         overflow="visible"
         id="id-4aa53615-8d11-4007-b979-43ad27408048">
        <path
           style="stroke:none"
           d="m 3.28125,-4.5 h 2.125 c 0.109375,0 0.28125,0 0.28125,-0.15625 0,-0.1875 -0.15625,-0.1875 -0.28125,-0.1875 H 0.8125 c -0.109375,0 -0.28125,0 -0.28125,0.171875 C 0.53125,-4.5 0.703125,-4.5 0.8125,-4.5 h 2.125 v 4.234375 C 2.9375,-0.15625 2.9375,0 3.109375,0 3.28125,0 3.28125,-0.171875 3.28125,-0.265625 Z m 0,0"
           id="id-9821de37-d59b-421c-a9a7-53d586652f50" />
      </symbol>
      <symbol
         overflow="visible"
         id="id-dbf9df14-e269-49d7-b9c4-39228e57e2bf">
        <path
           style="stroke:none"
           d=""
           id="id-1ccc7271-f249-4320-81cc-0bdf883c15cd" />
      </symbol>
      <symbol
         overflow="visible"
         id="id-9846060e-dbdd-49b4-b4b7-571773de67d0">
        <path
           style="stroke:none"
           d="m 4.078125,-2.296875 h 2.78125 C 7,-2.296875 7.1875,-2.296875 7.1875,-2.5 7.1875,-2.6875 7,-2.6875 6.859375,-2.6875 h -2.78125 v -2.796875 c 0,-0.140625 0,-0.328125 -0.203125,-0.328125 -0.203125,0 -0.203125,0.1875 -0.203125,0.328125 V -2.6875 h -2.78125 c -0.140625,0 -0.328125,0 -0.328125,0.1875 0,0.203125 0.1875,0.203125 0.328125,0.203125 h 2.78125 V 0.5 c 0,0.140625 0,0.328125 0.203125,0.328125 0.203125,0 0.203125,-0.1875 0.203125,-0.328125 z m 0,0"
           id="id-69c9f6f9-3051-44aa-9033-3f2db6b44ad4" />
      </symbol>
      <symbol
         overflow="visible"
         id="id-76c3b31a-d4bc-4fee-9cbe-13c05d2aaa49">
        <path
           style="stroke:none"
           d="m 6.84375,-3.265625 c 0.15625,0 0.34375,0 0.34375,-0.1875 C 7.1875,-3.65625 7,-3.65625 6.859375,-3.65625 h -5.96875 c -0.140625,0 -0.328125,0 -0.328125,0.203125 0,0.1875 0.1875,0.1875 0.328125,0.1875 z m 0.015625,1.9375 c 0.140625,0 0.328125,0 0.328125,-0.203125 0,-0.1875 -0.1875,-0.1875 -0.34375,-0.1875 H 0.890625 c -0.140625,0 -0.328125,0 -0.328125,0.1875 0,0.203125 0.1875,0.203125 0.328125,0.203125 z m 0,0"
           id="id-754d8bac-772a-44f5-842b-38dcc2ab3467" />
      </symbol>
      <symbol
         overflow="visible"
         id="id-a95a5bf5-cb0d-4992-9eb1-bfad6f3e85d1">
        <path
           style="stroke:none"
           d="m 4.578125,-3.1875 c 0,-0.796875 -0.046875,-1.59375 -0.390625,-2.328125 -0.453125,-0.96875 -1.28125,-1.125 -1.6875,-1.125 -0.609375,0 -1.328125,0.265625 -1.75,1.1875 -0.3125,0.6875 -0.359375,1.46875 -0.359375,2.265625 0,0.75 0.03125,1.640625 0.453125,2.40625 0.421875,0.796875 1.15625,1 1.640625,1 0.53125,0 1.296875,-0.203125 1.734375,-1.15625 0.3125,-0.6875 0.359375,-1.46875 0.359375,-2.25 z M 2.484375,0 C 2.09375,0 1.5,-0.25 1.328125,-1.203125 1.21875,-1.796875 1.21875,-2.71875 1.21875,-3.3125 c 0,-0.640625 0,-1.296875 0.078125,-1.828125 0.1875,-1.1875 0.9375,-1.28125 1.1875,-1.28125 0.328125,0 0.984375,0.1875 1.171875,1.171875 0.109375,0.5625 0.109375,1.3125 0.109375,1.9375 0,0.75 0,1.421875 -0.109375,2.0625 C 3.5,-0.296875 2.9375,0 2.484375,0 Z m 0,0"
           id="id-fc6efe5f-e92d-400f-bbcf-52171b665e34" />
      </symbol>
      <symbol
         overflow="visible"
         id="id-3f6b1f6e-f12c-422d-a9b2-fc65de40f272">
        <path
           style="stroke:none"
           d=""
           id="id-fafde77f-5cfd-47b8-9029-60179b5c1c91" />
      </symbol>
      <symbol
         overflow="visible"
         id="id-92902ab3-8cd7-4adf-89d6-a990b01c296f">
        <path
           style="stroke:none"
           d="m 2.375,-6.8125 c 0,0 0,-0.109375 -0.125,-0.109375 -0.21875,0 -0.953125,0.078125 -1.21875,0.109375 -0.078125,0 -0.1875,0.015625 -0.1875,0.1875 0,0.125 0.09375,0.125 0.25,0.125 0.46875,0 0.484375,0.0625 0.484375,0.171875 0,0.0625 -0.078125,0.40625 -0.125,0.609375 l -0.828125,3.25 c -0.109375,0.5 -0.15625,0.671875 -0.15625,1.015625 0,0.9375 0.53125,1.5625 1.265625,1.5625 1.171875,0 2.40625,-1.484375 2.40625,-2.921875 0,-0.90625 -0.53125,-1.59375 -1.328125,-1.59375 -0.453125,0 -0.875,0.296875 -1.171875,0.59375 z M 1.453125,-3.046875 C 1.5,-3.265625 1.5,-3.28125 1.59375,-3.390625 2.078125,-4.03125 2.53125,-4.1875 2.796875,-4.1875 c 0.359375,0 0.625,0.296875 0.625,0.9375 0,0.59375 -0.328125,1.734375 -0.515625,2.109375 -0.328125,0.671875 -0.78125,1.03125 -1.171875,1.03125 -0.34375,0 -0.671875,-0.265625 -0.671875,-1 0,-0.203125 0,-0.390625 0.15625,-1.015625 z m 0,0"
           id="id-e96ed8f8-e9d6-490a-81b7-3aab2943bf44" />
      </symbol>
    </g>
  </defs>
  <g
     inkscape:label="Layer 1"
     inkscape:groupmode="layer"
     id="layer1"
     transform="translate(-33.085576,-96.245437)">
    <path
       style="fill:none;stroke:#000000;stroke-width:0.264583px;stroke-linecap:butt;stroke-linejoin:miter;stroke-opacity:1;marker-end:url(#Arrow1Lend)"
       d="m 46.689257,194.51406 0.04921,-97.136988"
       id="path89452" />
    <path
       style="fill:none;stroke:#000000;stroke-width:0.264583px;stroke-linecap:butt;stroke-linejoin:miter;stroke-opacity:1;marker-end:url(#Arrow1Lend)"
       d="m 46.689257,194.51406 97.136983,0.0492"
       id="path89452-4" />
    <text
       xml:space="preserve"
       style="font-style:normal;font-weight:normal;font-size:10.5833px;line-height:1.25;font-family:sans-serif;fill:#000000;fill-opacity:1;stroke:none;stroke-width:0.264583"
       x="34.100838"
       y="84.666054"
       id="text91155"><tspan
         sodipodi:role="line"
         id="tspan91153"
         style="font-style:normal;font-variant:normal;font-weight:normal;font-stretch:normal;font-size:8.73122px;font-family:Sans;-inkscape-font-specification:'Sans, Normal';font-variant-ligatures:normal;font-variant-caps:normal;font-variant-numeric:normal;font-variant-east-asian:normal;stroke-width:0.264583"
         x="34.100838"
         y="84.666054" /></text>
    <text
       xml:space="preserve"
       style="font-style:normal;font-weight:normal;font-size:10.5833px;line-height:1.25;font-family:sans-serif;fill:#000000;fill-opacity:1;stroke:none;stroke-width:0.264583"
       x="32.958576"
       y="100.80684"
       id="text109231"><tspan
         sodipodi:role="line"
         id="tspan109229"
         style="font-style:normal;font-variant:normal;font-weight:normal;font-stretch:normal;font-size:10.5833px;font-family:'Latin Modern Math';-inkscape-font-specification:'Latin Modern Math, Normal';font-variant-ligatures:normal;font-variant-caps:normal;font-variant-numeric:normal;font-variant-east-asian:normal;stroke-width:0.264583"
         x="32.958576"
         y="100.80684">x<tspan
   style="font-size:65%;baseline-shift:sub"
   id="tspan114455">2</tspan></tspan></text>
    <text
       xml:space="preserve"
       style="font-style:normal;font-weight:normal;font-size:10.5833px;line-height:1.25;font-family:sans-serif;fill:#000000;fill-opacity:1;stroke:none;stroke-width:0.264583"
       x="137.80824"
       y="204.12892"
       id="text109231-0"><tspan
         sodipodi:role="line"
         id="tspan109229-4"
         style="font-style:normal;font-variant:normal;font-weight:normal;font-stretch:normal;font-size:10.5833px;font-family:'Latin Modern Math';-inkscape-font-specification:'Latin Modern Math, Normal';font-variant-ligatures:normal;font-variant-caps:normal;font-variant-numeric:normal;font-variant-east-asian:normal;stroke-width:0.264583"
         x="137.80824"
         y="204.12892">x<tspan
   style="font-size:65%;baseline-shift:sub"
   id="tspan114455-9">1</tspan></tspan></text>
    <ellipse
       style="fill:#000000;stroke:#000000;stroke-width:1;stroke-linejoin:round;stroke-miterlimit:4;stroke-dasharray:none;paint-order:fill markers stroke"
       id="path118902"
       cx="67.038536"
       cy="134.17624"
       rx="1.5314659"
       ry="1.8781707" />
    <ellipse
       style="fill:#000000;stroke:#000000;stroke-width:1;stroke-linejoin:round;stroke-miterlimit:4;stroke-dasharray:none;paint-order:fill markers stroke"
       id="path118902-4"
       cx="100.77605"
       cy="171.78632"
       rx="1.5314659"
       ry="1.8781707" />
    <ellipse
       style="fill:#000000;stroke:#000000;stroke-width:1;stroke-linejoin:round;stroke-miterlimit:4;stroke-dasharray:none;paint-order:fill markers stroke"
       id="path118902-2"
       cx="86.639442"
       cy="165.11914"
       rx="1.5314659"
       ry="1.8781707" />
    <ellipse
       style="fill:#000000;stroke:#000000;stroke-width:1;stroke-linejoin:round;stroke-miterlimit:4;stroke-dasharray:none;paint-order:fill markers stroke"
       id="path118902-5"
       cx="65.616455"
       cy="157.49014"
       rx="1.5314659"
       ry="1.8781707" />
    <ellipse
       style="fill:#000000;stroke:#000000;stroke-width:1;stroke-linejoin:round;stroke-miterlimit:4;stroke-dasharray:none;paint-order:fill markers stroke"
       id="path118902-1"
       cx="87.39399"
       cy="183.05682"
       rx="1.5314659"
       ry="1.8781707" />
    <ellipse
       style="fill:#000000;stroke:#000000;stroke-width:1;stroke-linejoin:round;stroke-miterlimit:4;stroke-dasharray:none;paint-order:fill markers stroke"
       id="path118902-6"
       cx="114.10592"
       cy="180.20863"
       rx="1.5314659"
       ry="1.8781707" />
    <ellipse
       style="fill:#000000;stroke:#000000;stroke-width:1;stroke-linejoin:round;stroke-miterlimit:4;stroke-dasharray:none;paint-order:fill markers stroke"
       id="path118902-13"
       cx="90.820778"
       cy="147.18144"
       rx="1.5314659"
       ry="1.8781707" />
    <ellipse
       style="fill:none;stroke:#000000;stroke-width:1;stroke-linejoin:round;stroke-miterlimit:4;stroke-dasharray:none;stroke-opacity:1;paint-order:fill markers stroke"
       id="path118902-7"
       cx="86.361763"
       cy="105.92519"
       rx="1.5314659"
       ry="1.8781707" />
    <ellipse
       style="fill:none;stroke:#000000;stroke-width:1;stroke-linejoin:round;stroke-miterlimit:4;stroke-dasharray:none;stroke-opacity:1;paint-order:fill markers stroke"
       id="path118902-4-7"
       cx="111.49355"
       cy="108.64407"
       rx="1.5314659"
       ry="1.8781707" />
    <ellipse
       style="fill:none;stroke:#000000;stroke-width:1;stroke-linejoin:round;stroke-miterlimit:4;stroke-dasharray:none;stroke-opacity:1;paint-order:fill markers stroke"
       id="path118902-2-1"
       cx="131.91708"
       cy="113.20119"
       rx="1.5314659"
       ry="1.8781707" />
    <ellipse
       style="fill:none;stroke:#000000;stroke-width:1;stroke-linejoin:round;stroke-miterlimit:4;stroke-dasharray:none;stroke-opacity:1;paint-order:fill markers stroke"
       id="path118902-5-2"
       cx="100.77776"
       cy="124.46873"
       rx="1.5314659"
       ry="1.8781707" />
    <ellipse
       style="fill:none;stroke:#000000;stroke-width:1;stroke-linejoin:round;stroke-miterlimit:4;stroke-dasharray:none;stroke-opacity:1;paint-order:fill markers stroke"
       id="path118902-1-1"
       cx="125.41841"
       cy="134.00198"
       rx="1.5314659"
       ry="1.8781707" />
    <ellipse
       style="fill:none;stroke:#000000;stroke-width:1;stroke-linejoin:round;stroke-miterlimit:4;stroke-dasharray:none;stroke-opacity:1;paint-order:fill markers stroke"
       id="path118902-6-0"
       cx="145.8315"
       cy="141.07924"
       rx="1.5314659"
       ry="1.8781707" />
    <ellipse
       style="fill:none;stroke:#000000;stroke-width:1;stroke-linejoin:round;stroke-miterlimit:4;stroke-dasharray:none;stroke-opacity:1;paint-order:fill markers stroke"
       id="path118902-13-8"
       cx="134.90396"
       cy="163.83797"
       rx="1.5314659"
       ry="1.8781707" />
    <path
       style="fill:none;stroke:#000000;stroke-width:0.264583px;stroke-linecap:butt;stroke-linejoin:miter;stroke-opacity:1"
       d="m 50.264239,107.56367 91.613571,75.18647"
       id="path119302" />
    <g
       transform="matrix(0.705556,0,0,0.705556,93.718592,134.47381)"
       ns1:version="1.3.0"
       ns1:texconverter="pdflatex"
       ns1:pdfconverter="inkscape"
       ns1:text="${\\bf w}^\\top {\\bf x}+b=0$"
       ns1:preamble="/home/manel/.config/inkscape/extensions/textext/default_packages.tex"
       ns1:scale="2.0"
       ns1:alignment="middle center"
       ns1:inkscapeversion="1.1"
       ns1:jacobian_sqrt="0.705556"
       id="g138242">
      <defs
         id="id-91efe912-f12f-4883-ab25-fa509873fa78">
        <g
           id="g139200">
          <symbol
             overflow="visible"
             id="symbol139158">
            <path
               style="stroke:none"
               d=""
               id="path139156" />
          </symbol>
          <symbol
             overflow="visible"
             id="symbol139162">
            <path
               style="stroke:none"
               d="m 7.34375,-3.75 c 0.046875,-0.125 0.09375,-0.203125 0.6875,-0.203125 v -0.46875 C 7.796875,-4.40625 7.5,-4.390625 7.25,-4.390625 c -0.265625,0 -0.734375,-0.03125 -0.953125,-0.03125 v 0.46875 c 0.09375,0 0.578125,0 0.578125,0.109375 0,0.03125 -0.03125,0.09375 -0.03125,0.125 L 5.796875,-1.171875 4.65625,-3.953125 h 0.5625 v -0.46875 c -0.328125,0 -0.84375,0.03125 -1.140625,0.03125 -0.421875,0 -0.84375,-0.03125 -1,-0.03125 v 0.46875 h 0.59375 c 0.203125,0.5 0.203125,0.515625 0.203125,0.53125 0,0.03125 -0.03125,0.09375 -0.03125,0.125 L 3.046875,-1.390625 2,-3.953125 h 0.5625 v -0.46875 c -0.40625,0.015625 -0.8125,0.03125 -1.234375,0.03125 -0.296875,0 -0.734375,-0.03125 -1.078125,-0.03125 v 0.46875 h 0.59375 l 1.515625,3.71875 C 2.4375,-0.0625 2.46875,0.046875 2.71875,0.046875 c 0.25,0 0.296875,-0.109375 0.359375,-0.28125 L 4.140625,-2.8125 5.1875,-0.234375 c 0.078125,0.171875 0.109375,0.28125 0.359375,0.28125 0.25,0 0.296875,-0.109375 0.359375,-0.28125 z m 0,0"
               id="path139160" />
          </symbol>
          <symbol
             overflow="visible"
             id="symbol139166">
            <path
               style="stroke:none"
               d="M 3.453125,-2.453125 4.609375,-3.75 C 4.75,-3.890625 4.8125,-3.953125 5.625,-3.953125 v -0.46875 c -0.34375,0.015625 -0.859375,0.03125 -0.90625,0.03125 -0.25,0 -0.75,-0.03125 -1.03125,-0.03125 v 0.46875 c 0.140625,0 0.265625,0.015625 0.375,0.078125 -0.03125,0.0625 -0.03125,0.09375 -0.078125,0.125 L 3.15625,-2.8125 2.171875,-3.953125 h 0.40625 v -0.46875 c -0.265625,0 -0.890625,0.03125 -1.21875,0.03125 -0.3125,0 -0.765625,-0.03125 -1.09375,-0.03125 v 0.46875 h 0.71875 L 2.53125,-2.125 1.21875,-0.65625 c -0.15625,0.1875 -0.515625,0.1875 -1,0.1875 V 0 c 0.34375,-0.015625 0.875,-0.03125 0.921875,-0.03125 0.25,0 0.828125,0.015625 1.015625,0.03125 v -0.46875 c -0.171875,0 -0.359375,-0.046875 -0.359375,-0.109375 0,-0.015625 0,-0.015625 0.0625,-0.09375 l 0.96875,-1.09375 1.09375,1.296875 H 3.53125 V 0 c 0.265625,-0.015625 0.875,-0.03125 1.203125,-0.03125 0.3125,0 0.765625,0.015625 1.09375,0.03125 V -0.46875 H 5.125 Z m 0,0"
               id="path139164" />
          </symbol>
          <symbol
             overflow="visible"
             id="symbol139170">
            <path
               style="stroke:none"
               d=""
               id="path139168" />
          </symbol>
          <symbol
             overflow="visible"
             id="symbol139174">
            <path
               style="stroke:none"
               d="m 3.28125,-4.5 h 2.125 c 0.109375,0 0.28125,0 0.28125,-0.15625 0,-0.1875 -0.15625,-0.1875 -0.28125,-0.1875 H 0.8125 c -0.109375,0 -0.28125,0 -0.28125,0.171875 C 0.53125,-4.5 0.703125,-4.5 0.8125,-4.5 h 2.125 v 4.234375 C 2.9375,-0.15625 2.9375,0 3.109375,0 3.28125,0 3.28125,-0.171875 3.28125,-0.265625 Z m 0,0"
               id="path139172" />
          </symbol>
          <symbol
             overflow="visible"
             id="symbol139178">
            <path
               style="stroke:none"
               d=""
               id="path139176" />
          </symbol>
          <symbol
             overflow="visible"
             id="symbol139182">
            <path
               style="stroke:none"
               d="m 4.078125,-2.296875 h 2.78125 C 7,-2.296875 7.1875,-2.296875 7.1875,-2.5 7.1875,-2.6875 7,-2.6875 6.859375,-2.6875 h -2.78125 v -2.796875 c 0,-0.140625 0,-0.328125 -0.203125,-0.328125 -0.203125,0 -0.203125,0.1875 -0.203125,0.328125 V -2.6875 h -2.78125 c -0.140625,0 -0.328125,0 -0.328125,0.1875 0,0.203125 0.1875,0.203125 0.328125,0.203125 h 2.78125 V 0.5 c 0,0.140625 0,0.328125 0.203125,0.328125 0.203125,0 0.203125,-0.1875 0.203125,-0.328125 z m 0,0"
               id="path139180" />
          </symbol>
          <symbol
             overflow="visible"
             id="symbol139186">
            <path
               style="stroke:none"
               d="m 6.84375,-3.265625 c 0.15625,0 0.34375,0 0.34375,-0.1875 C 7.1875,-3.65625 7,-3.65625 6.859375,-3.65625 h -5.96875 c -0.140625,0 -0.328125,0 -0.328125,0.203125 0,0.1875 0.1875,0.1875 0.328125,0.1875 z m 0.015625,1.9375 c 0.140625,0 0.328125,0 0.328125,-0.203125 0,-0.1875 -0.1875,-0.1875 -0.34375,-0.1875 H 0.890625 c -0.140625,0 -0.328125,0 -0.328125,0.1875 0,0.203125 0.1875,0.203125 0.328125,0.203125 z m 0,0"
               id="path139184" />
          </symbol>
          <symbol
             overflow="visible"
             id="symbol139190">
            <path
               style="stroke:none"
               d="m 4.578125,-3.1875 c 0,-0.796875 -0.046875,-1.59375 -0.390625,-2.328125 -0.453125,-0.96875 -1.28125,-1.125 -1.6875,-1.125 -0.609375,0 -1.328125,0.265625 -1.75,1.1875 -0.3125,0.6875 -0.359375,1.46875 -0.359375,2.265625 0,0.75 0.03125,1.640625 0.453125,2.40625 0.421875,0.796875 1.15625,1 1.640625,1 0.53125,0 1.296875,-0.203125 1.734375,-1.15625 0.3125,-0.6875 0.359375,-1.46875 0.359375,-2.25 z M 2.484375,0 C 2.09375,0 1.5,-0.25 1.328125,-1.203125 1.21875,-1.796875 1.21875,-2.71875 1.21875,-3.3125 c 0,-0.640625 0,-1.296875 0.078125,-1.828125 0.1875,-1.1875 0.9375,-1.28125 1.1875,-1.28125 0.328125,0 0.984375,0.1875 1.171875,1.171875 0.109375,0.5625 0.109375,1.3125 0.109375,1.9375 0,0.75 0,1.421875 -0.109375,2.0625 C 3.5,-0.296875 2.9375,0 2.484375,0 Z m 0,0"
               id="path139188" />
          </symbol>
          <symbol
             overflow="visible"
             id="symbol139194">
            <path
               style="stroke:none"
               d=""
               id="path139192" />
          </symbol>
          <symbol
             overflow="visible"
             id="symbol139198">
            <path
               style="stroke:none"
               d="m 2.375,-6.8125 c 0,0 0,-0.109375 -0.125,-0.109375 -0.21875,0 -0.953125,0.078125 -1.21875,0.109375 -0.078125,0 -0.1875,0.015625 -0.1875,0.1875 0,0.125 0.09375,0.125 0.25,0.125 0.46875,0 0.484375,0.0625 0.484375,0.171875 0,0.0625 -0.078125,0.40625 -0.125,0.609375 l -0.828125,3.25 c -0.109375,0.5 -0.15625,0.671875 -0.15625,1.015625 0,0.9375 0.53125,1.5625 1.265625,1.5625 1.171875,0 2.40625,-1.484375 2.40625,-2.921875 0,-0.90625 -0.53125,-1.59375 -1.328125,-1.59375 -0.453125,0 -0.875,0.296875 -1.171875,0.59375 z M 1.453125,-3.046875 C 1.5,-3.265625 1.5,-3.28125 1.59375,-3.390625 2.078125,-4.03125 2.53125,-4.1875 2.796875,-4.1875 c 0.359375,0 0.625,0.296875 0.625,0.9375 0,0.59375 -0.328125,1.734375 -0.515625,2.109375 -0.328125,0.671875 -0.78125,1.03125 -1.171875,1.03125 -0.34375,0 -0.671875,-0.265625 -0.671875,-1 0,-0.203125 0,-0.390625 0.15625,-1.015625 z m 0,0"
               id="path139196" />
          </symbol>
        </g>
      </defs>
      <g
         id="id-e0712032-7ea0-4084-9aaa-bc1039680927"
         transform="rotate(43.221561,234.08245,-109.34248)">
        <g
           id="g138690"
           transform="rotate(-3.1051853,177.14503,131.51796)">
          <g
             style="fill:#000000;fill-opacity:1"
             id="id-966a9d11-0585-442f-8e63-3cd8a136adee">
            <g
               transform="translate(148.712,134.765)"
               id="g138573">
              <path
                 style="stroke:none"
                 d="m 7.34375,-3.75 c 0.046875,-0.125 0.09375,-0.203125 0.6875,-0.203125 v -0.46875 C 7.796875,-4.40625 7.5,-4.390625 7.25,-4.390625 c -0.265625,0 -0.734375,-0.03125 -0.953125,-0.03125 v 0.46875 c 0.09375,0 0.578125,0 0.578125,0.109375 0,0.03125 -0.03125,0.09375 -0.03125,0.125 L 5.796875,-1.171875 4.65625,-3.953125 h 0.5625 v -0.46875 c -0.328125,0 -0.84375,0.03125 -1.140625,0.03125 -0.421875,0 -0.84375,-0.03125 -1,-0.03125 v 0.46875 h 0.59375 c 0.203125,0.5 0.203125,0.515625 0.203125,0.53125 0,0.03125 -0.03125,0.09375 -0.03125,0.125 L 3.046875,-1.390625 2,-3.953125 h 0.5625 v -0.46875 c -0.40625,0.015625 -0.8125,0.03125 -1.234375,0.03125 -0.296875,0 -0.734375,-0.03125 -1.078125,-0.03125 v 0.46875 h 0.59375 l 1.515625,3.71875 C 2.4375,-0.0625 2.46875,0.046875 2.71875,0.046875 c 0.25,0 0.296875,-0.109375 0.359375,-0.28125 L 4.140625,-2.8125 5.1875,-0.234375 c 0.078125,0.171875 0.109375,0.28125 0.359375,0.28125 0.25,0 0.296875,-0.109375 0.359375,-0.28125 z m 0,0"
                 id="id-057d946f-ba87-4e29-9878-8a31018b5203" />
            </g>
          </g>
          <g
             style="fill:#000000;fill-opacity:1"
             id="id-3e69a45a-7799-4651-92da-aa170067824e">
            <g
               transform="translate(157.146,131.149)"
               id="g138577">
              <path
                 style="stroke:none"
                 d="m 3.28125,-4.5 h 2.125 c 0.109375,0 0.28125,0 0.28125,-0.15625 0,-0.1875 -0.15625,-0.1875 -0.28125,-0.1875 H 0.8125 c -0.109375,0 -0.28125,0 -0.28125,0.171875 C 0.53125,-4.5 0.703125,-4.5 0.8125,-4.5 h 2.125 v 4.234375 C 2.9375,-0.15625 2.9375,0 3.109375,0 3.28125,0 3.28125,-0.171875 3.28125,-0.265625 Z m 0,0"
                 id="id-b088af49-78b0-4cb5-8918-77f1029f07af" />
            </g>
          </g>
          <g
             style="fill:#000000;fill-opacity:1"
             id="id-90e09b2e-71bf-4a04-be5c-10023430cd68">
            <g
               transform="translate(163.871,134.765)"
               id="g138581">
              <path
                 style="stroke:none"
                 d="M 3.453125,-2.453125 4.609375,-3.75 C 4.75,-3.890625 4.8125,-3.953125 5.625,-3.953125 v -0.46875 c -0.34375,0.015625 -0.859375,0.03125 -0.90625,0.03125 -0.25,0 -0.75,-0.03125 -1.03125,-0.03125 v 0.46875 c 0.140625,0 0.265625,0.015625 0.375,0.078125 -0.03125,0.0625 -0.03125,0.09375 -0.078125,0.125 L 3.15625,-2.8125 2.171875,-3.953125 h 0.40625 v -0.46875 c -0.265625,0 -0.890625,0.03125 -1.21875,0.03125 -0.3125,0 -0.765625,-0.03125 -1.09375,-0.03125 v 0.46875 h 0.71875 L 2.53125,-2.125 1.21875,-0.65625 c -0.15625,0.1875 -0.515625,0.1875 -1,0.1875 V 0 c 0.34375,-0.015625 0.875,-0.03125 0.921875,-0.03125 0.25,0 0.828125,0.015625 1.015625,0.03125 v -0.46875 c -0.171875,0 -0.359375,-0.046875 -0.359375,-0.109375 0,-0.015625 0,-0.015625 0.0625,-0.09375 l 0.96875,-1.09375 1.09375,1.296875 H 3.53125 V 0 c 0.265625,-0.015625 0.875,-0.03125 1.203125,-0.03125 0.3125,0 0.765625,0.015625 1.09375,0.03125 V -0.46875 H 5.125 Z m 0,0"
                 id="id-07e6ed5d-6e4f-423c-868b-3a39c34af788" />
            </g>
          </g>
          <g
             style="fill:#000000;fill-opacity:1"
             id="id-55fd5824-ed7f-44a2-946f-6aec88a80fc5">
            <g
               transform="translate(172.131,134.765)"
               id="g138585">
              <path
                 style="stroke:none"
                 d="m 4.078125,-2.296875 h 2.78125 C 7,-2.296875 7.1875,-2.296875 7.1875,-2.5 7.1875,-2.6875 7,-2.6875 6.859375,-2.6875 h -2.78125 v -2.796875 c 0,-0.140625 0,-0.328125 -0.203125,-0.328125 -0.203125,0 -0.203125,0.1875 -0.203125,0.328125 V -2.6875 h -2.78125 c -0.140625,0 -0.328125,0 -0.328125,0.1875 0,0.203125 0.1875,0.203125 0.328125,0.203125 h 2.78125 V 0.5 c 0,0.140625 0,0.328125 0.203125,0.328125 0.203125,0 0.203125,-0.1875 0.203125,-0.328125 z m 0,0"
                 id="id-cdf22355-64fc-4b5a-aaf6-2d1a249c6394" />
            </g>
          </g>
          <g
             style="fill:#000000;fill-opacity:1"
             id="id-3f4d6158-01e9-413f-bcec-56fba8caf952">
            <g
               transform="translate(182.094,134.765)"
               id="g138589">
              <path
                 style="stroke:none"
                 d="m 2.375,-6.8125 c 0,0 0,-0.109375 -0.125,-0.109375 -0.21875,0 -0.953125,0.078125 -1.21875,0.109375 -0.078125,0 -0.1875,0.015625 -0.1875,0.1875 0,0.125 0.09375,0.125 0.25,0.125 0.46875,0 0.484375,0.0625 0.484375,0.171875 0,0.0625 -0.078125,0.40625 -0.125,0.609375 l -0.828125,3.25 c -0.109375,0.5 -0.15625,0.671875 -0.15625,1.015625 0,0.9375 0.53125,1.5625 1.265625,1.5625 1.171875,0 2.40625,-1.484375 2.40625,-2.921875 0,-0.90625 -0.53125,-1.59375 -1.328125,-1.59375 -0.453125,0 -0.875,0.296875 -1.171875,0.59375 z M 1.453125,-3.046875 C 1.5,-3.265625 1.5,-3.28125 1.59375,-3.390625 2.078125,-4.03125 2.53125,-4.1875 2.796875,-4.1875 c 0.359375,0 0.625,0.296875 0.625,0.9375 0,0.59375 -0.328125,1.734375 -0.515625,2.109375 -0.328125,0.671875 -0.78125,1.03125 -1.171875,1.03125 -0.34375,0 -0.671875,-0.265625 -0.671875,-1 0,-0.203125 0,-0.390625 0.15625,-1.015625 z m 0,0"
                 id="id-26be45a7-2fb1-417c-bff4-55318c509c9a" />
            </g>
          </g>
          <g
             style="fill:#000000;fill-opacity:1"
             id="id-9133a6ae-2279-4fe5-b530-680fbee8b1d2">
            <g
               transform="translate(189.137,134.765)"
               id="g138593">
              <path
                 style="stroke:none"
                 d="m 6.84375,-3.265625 c 0.15625,0 0.34375,0 0.34375,-0.1875 C 7.1875,-3.65625 7,-3.65625 6.859375,-3.65625 h -5.96875 c -0.140625,0 -0.328125,0 -0.328125,0.203125 0,0.1875 0.1875,0.1875 0.328125,0.1875 z m 0.015625,1.9375 c 0.140625,0 0.328125,0 0.328125,-0.203125 0,-0.1875 -0.1875,-0.1875 -0.34375,-0.1875 H 0.890625 c -0.140625,0 -0.328125,0 -0.328125,0.1875 0,0.203125 0.1875,0.203125 0.328125,0.203125 z m 0,0"
                 id="id-9ea23bcd-f1b8-4752-95a8-c6ad45e41618" />
            </g>
          </g>
          <g
             style="fill:#000000;fill-opacity:1"
             id="id-696b6dfe-7855-4f25-92f6-5d778a69eb24">
            <g
               transform="translate(199.656,134.765)"
               id="g138597">
              <path
                 style="stroke:none"
                 d="m 4.578125,-3.1875 c 0,-0.796875 -0.046875,-1.59375 -0.390625,-2.328125 -0.453125,-0.96875 -1.28125,-1.125 -1.6875,-1.125 -0.609375,0 -1.328125,0.265625 -1.75,1.1875 -0.3125,0.6875 -0.359375,1.46875 -0.359375,2.265625 0,0.75 0.03125,1.640625 0.453125,2.40625 0.421875,0.796875 1.15625,1 1.640625,1 0.53125,0 1.296875,-0.203125 1.734375,-1.15625 0.3125,-0.6875 0.359375,-1.46875 0.359375,-2.25 z M 2.484375,0 C 2.09375,0 1.5,-0.25 1.328125,-1.203125 1.21875,-1.796875 1.21875,-2.71875 1.21875,-3.3125 c 0,-0.640625 0,-1.296875 0.078125,-1.828125 0.1875,-1.1875 0.9375,-1.28125 1.1875,-1.28125 0.328125,0 0.984375,0.1875 1.171875,1.171875 0.109375,0.5625 0.109375,1.3125 0.109375,1.9375 0,0.75 0,1.421875 -0.109375,2.0625 C 3.5,-0.296875 2.9375,0 2.484375,0 Z m 0,0"
                 id="id-d598d6fc-192b-4bf7-be91-91c5a712934e" />
            </g>
          </g>
        </g>
      </g>
    </g>
  </g>
</svg>
